<svg viewBox="0 0 500 500" xmlns="http://www.w3.org/2000/svg"><path d="m440.41 275.3c13.14-67.14-32.52-102.6-124.3-112.16-101.11-10.54-67.72-74.63-119.02-109.6s-196.27 3.03-122.61 164.71 339.52 191.9 365.93 57.05z" fill="#f5f5f5"/><path d="m472.62 442.88c0 .15-92.49.27-206.55.27s-206.56-.15-206.56-.27 92.46-.26 206.56-.26 206.55.12 206.55.26z" fill="#263238"/><path d="m181.61 128.06s.87-44.81-36.2-67.57h117.49s33.59 27.22 33.87 67.57z" fill="#ebebeb"/><path d="m253.94 76.83c0 .15-13.42.27-30 .27s-30-.12-30-.27 13.42-.26 30-.26 30 .12 30 .26z" fill="#455a64"/><path d="m266.76 84.94c0 .14-17.78.26-39.71.26s-39.71-.12-39.71-.26 17.78-.27 39.71-.27 39.71.12 39.71.27z" fill="#263238"/><path d="m273.44 105.44c0 .14-17.78.26-39.71.26s-39.72-.12-39.72-.26 17.78-.26 39.72-.26 39.71.12 39.71.26z" fill="#263238"/><path d="m231.94 94.27a9.48 9.48 0 0 1 -1.62.11l-4.44.08c-3.75.05-8.92.08-14.64.08s-10.89 0-14.64-.08l-4.44-.08a9.48 9.48 0 0 1 -1.62-.11 10.41 10.41 0 0 1 1.62-.1l4.44-.08c3.75 0 8.92-.08 14.64-.08s10.89 0 14.64.08l4.44.08a10.41 10.41 0 0 1 1.62.1z" fill="#263238"/><path d="m266.76 94.27a5.23 5.23 0 0 1 -1.2.11l-3.28.08c-2.76.05-6.59.08-10.81.08s-8.05 0-10.81-.08l-3.28-.08a5.34 5.34 0 0 1 -1.2-.11 5.85 5.85 0 0 1 1.2-.1l3.28-.08c2.76 0 6.59-.08 10.81-.08s8 0 10.81.08l3.28.08a5.73 5.73 0 0 1 1.2.1z" fill="#263238"/><path d="m239.31 116.43a9.69 9.69 0 0 1 -1.63.11l-4.43.08c-3.75 0-8.93.08-14.64.08s-10.9 0-14.65-.08l-4.43-.08a9.69 9.69 0 0 1 -1.63-.11 10.64 10.64 0 0 1 1.63-.1l4.43-.08c3.75 0 8.93-.08 14.65-.08s10.89 0 14.64.08l4.43.08a10.64 10.64 0 0 1 1.63.1z" fill="#263238"/><path d="m274.13 116.43a5.34 5.34 0 0 1 -1.2.11l-3.28.08c-2.77 0-6.59.08-10.81.08s-8 0-10.82-.08l-3.28-.08a5.34 5.34 0 0 1 -1.2-.11 5.85 5.85 0 0 1 1.2-.1l3.28-.08c2.77 0 6.59-.08 10.82-.08s8 0 10.81.08l3.28.08a5.85 5.85 0 0 1 1.2.1z" fill="#263238"/><path d="m157.59 126.79h173.34l9.44 300.3a15.35 15.35 0 0 1 -15.37 15.83h-180.22a9.92 9.92 0 0 1 -9.91-9.43l-8.33-169.57s-51.41-18.67-50.54-75.6c0 0 2.34-61.53 81.59-61.53z" fill="#263238"/><path d="m167 442.46-7.56-315.67h177.78l3.21 302.39a13.28 13.28 0 0 1 -13.31 13.7z" fill="#455a64"/><path d="m174.13 145.08 3.6 146.98h144.79l-1.95-146.98z" fill="#263238"/><path d="m190.15 164.1c7.07 1.91 16 1.1 23.26.75a2 2 0 0 0 0-4c-7.26-.36-16.2-1.17-23.26.75a1.33 1.33 0 0 0 0 2.55z" fill="#e0e0e0"/><path d="m225.77 163.81c6.94 1.77 15.91 1.45 23 .77a2 2 0 0 0 0-4c-7.09-.69-16.06-1-23 .77a1.29 1.29 0 0 0 0 2.47z" fill="#e0e0e0"/><path d="m260.91 163.18c3.49 1.06 7.26.88 10.88.94a70.76 70.76 0 0 0 11.09-.21c1.81-.26 1.81-3.41 0-3.66a69.57 69.57 0 0 0 -11.09-.22c-3.62.06-7.39-.12-10.88.94a1.15 1.15 0 0 0 0 2.21z" fill="#e0e0e0"/><path d="m293.47 163.38a58.61 58.61 0 0 0 7.95.61c2.64.06 5.49.49 8.05-.24a1.75 1.75 0 0 0 0-3.35c-2.56-.73-5.41-.3-8.05-.24a57 57 0 0 0 -7.95.62 1.36 1.36 0 0 0 0 2.6z" fill="#e0e0e0"/><path d="m177.78 309.54h41.96v29.99h-41.96z" fill="#f4511e"/><path d="m177.78 309.54h7.59v29.99h-7.59z" fill="#263238"/><path d="m229.16 309.54h41.96v29.99h-41.96z" fill="#f4511e"/><path d="m228.73 309.54h7.59v29.99h-7.59z" fill="#263238"/><path d="m280.55 309.54h41.96v29.99h-41.96z" fill="#f4511e"/><path d="m279.35 309.54h7.59v29.99h-7.59z" fill="#263238"/><path d="m280.55 349.44h41.96v29.99h-41.96z" fill="#f4511e"/><path d="m280.55 349.44h7.82v29.99h-7.82z" fill="#263238"/><path d="m177.78 349.44h41.96v29.99h-41.96z" fill="#f4511e"/><path d="m177.78 349.38h7.59v29.99h-7.59z" fill="#263238"/><path d="m177.78 388.94h41.96v29.99h-41.96z" fill="#f4511e"/><path d="m177.78 388.94h41.96v29.99h-41.96z" opacity=".3"/><path d="m177.78 388.94h7.59v29.99h-7.59z" fill="#263238"/><path d="m228.93 349.44h41.96v29.99h-41.96z" fill="#f4511e"/><path d="m228.93 349.38h7.59v29.99h-7.59z" fill="#263238"/><path d="m229.16 388.94h41.96v29.99h-41.96z" fill="#f4511e"/><path d="m229.16 388.94h41.96v29.99h-41.96z" opacity=".3"/><path d="m229.16 388.94h7.59v29.99h-7.59z" fill="#263238"/><path d="m280.55 388.94h41.96v29.99h-41.96z" fill="#e0e0e0"/><path d="m280.55 388.94h7.59v29.99h-7.59z" fill="#263238"/><path d="m153.15 442.92c-.72 0-3.35-70.74-5.88-158s-4-158.09-3.28-158.11 3.35 70.72 5.88 158 4 158.09 3.28 158.11z" fill="#455a64"/><path d="m322.3 275.32v5.39l16.6 4.13-.09-8.31z" fill="#455a64"/><path d="m76.71 424.48v-.01z" fill="none"/><path d="m120.79 264.51a6.71 6.71 0 0 0 -2.86-.47 10.14 10.14 0 0 0 -2.86.7l-11.36 3.8-22.2 7.46-42 14a7 7 0 0 0 -4 3 6.76 6.76 0 0 0 -.95 4.81 18.63 18.63 0 0 0 .72 2.43l.81 2.42c.54 1.61 1.07 3.2 1.61 4.79q3.16 9.49 6.16 18.43c4 11.9 7.68 23 11.07 33.09 6.74 20.23 12.21 36.61 16 47.93 1.88 5.66 3.33 10.05 4.33 13 .48 1.49.86 2.62 1.11 3.39s.36 1.16.36 1.16.12.4.51 1.1a7 7 0 0 0 2.42 2.55 7 7 0 0 0 5.54.8c2.18-.7 4.68-1.58 7.51-2.52l41.76-14.08-44.54-139.1 22.28-7.47 40.23 123.27-1.76-42.88c-8.1-24.13-16.85-50.22-26-77.45a6.82 6.82 0 0 0 -3.89-4.16zm-51.34 63.37-9.94-31.46 3.37-1.07 9.94 31.46zm6.9-17.33-5.8-18.34 3.37-1.06 5.8 18.33zm7.78 23.26-5.79-18.34 3.37-1.06 5.79 18.33zm2 4.92 3.37-1.07 16.05 50.78-3.37 1.06zm21 66.44-3.43-10.85 3.37-1.07 3.43 10.86zm13.87-5.76-3.37 1.06-21.17-67 3.37-1.06zm-22.9-73.41-3.37 1.06-12.28-38.83 3.37-1.07z" fill="#f4511e"/><path d="m120.79 264.51a6.71 6.71 0 0 0 -2.86-.47 10.14 10.14 0 0 0 -2.86.7l-11.36 3.8-22.2 7.46-42 14a7 7 0 0 0 -4 3 6.76 6.76 0 0 0 -.95 4.81 18.63 18.63 0 0 0 .72 2.43l.81 2.42c.54 1.61 1.07 3.2 1.61 4.79q3.16 9.49 6.16 18.43c4 11.9 7.68 23 11.07 33.09 6.74 20.23 12.21 36.61 16 47.93 1.88 5.66 3.33 10.05 4.33 13 .48 1.49.86 2.62 1.11 3.39s.36 1.16.36 1.16.12.4.51 1.1a7 7 0 0 0 2.42 2.55 7 7 0 0 0 5.54.8c2.18-.7 4.68-1.58 7.51-2.52l41.76-14.08-44.54-139.1 22.28-7.47 40.23 123.27-1.76-42.88c-8.1-24.13-16.85-50.22-26-77.45a6.82 6.82 0 0 0 -3.89-4.16zm-51.34 63.37-9.94-31.46 3.37-1.07 9.94 31.46zm6.9-17.33-5.8-18.34 3.37-1.06 5.8 18.33zm7.78 23.26-5.79-18.34 3.37-1.06 5.79 18.33zm2 4.92 3.37-1.07 16.05 50.78-3.37 1.06zm21 66.44-3.43-10.85 3.37-1.07 3.43 10.86zm13.87-5.76-3.37 1.06-21.17-67 3.37-1.06zm-22.9-73.41-3.37 1.06-12.28-38.83 3.37-1.07z" opacity=".3"/><path d="m134.5 412.49-.05-.16-41.76 14.08c-2.83.94-5.33 1.82-7.51 2.52a7 7 0 0 1 -5.54-.8 7 7 0 0 1 -2.42-2.55c-.39-.7-.48-1.11-.51-1.1l.1.29a6.63 6.63 0 0 0 .37.83 6.9 6.9 0 0 0 2.41 2.61 7 7 0 0 0 5.62.86c2.2-.69 4.7-1.55 7.54-2.49l47.93-16 11.37-3.8 1.1-.56z" fill="#263238"/><path d="m76.35 423.31c-.25-.77-.63-1.9-1.11-3.39-1-3-2.45-7.38-4.33-13-3.77-11.32-9.24-27.7-16-47.93-3.39-10.11-7.09-21.19-11.07-33.09q-3-8.92-6.16-18.43c-.54-1.59-1.07-3.18-1.61-4.79l-.81-2.42a18.63 18.63 0 0 1 -.72-2.43 6.76 6.76 0 0 1 .95-4.81 7 7 0 0 1 4-3l42-14 22.2-7.44 11.36-3.8a10.14 10.14 0 0 1 2.86-.7 6.71 6.71 0 0 1 2.86.47 6.82 6.82 0 0 1 3.91 4.14c9.13 27.23 17.88 53.32 26 77.45l-.07-1.62c-7.94-23.72-16.52-49.3-25.45-76a7.33 7.33 0 0 0 -4.19-4.44 7.17 7.17 0 0 0 -3.07-.5 10.64 10.64 0 0 0 -3 .72l-11.35 3.81-22.2 7.44-42 14.08a7.41 7.41 0 0 0 -4.26 3.13 7.21 7.21 0 0 0 -1 5.13 19.44 19.44 0 0 0 .74 2.49c.27.81.55 1.61.82 2.42.53 1.6 1.07 3.2 1.6 4.78q3.2 9.49 6.19 18.43l11.16 33.05 16.13 47.88c1.92 5.64 3.4 10 4.41 13 .51 1.48.9 2.61 1.16 3.38l.41 1.15s-.11-.39-.36-1.16z" fill="#263238"/><path d="m106.94 331.32h3.53v70.26h-3.53z" fill="#fafafa" transform="matrix(.95350679 -.30137155 .30137155 .95350679 -105.39 49.8)"/><path d="m88.51 286.75h3.53v40.75h-3.53z" fill="#fafafa" transform="matrix(.95350679 -.30137155 .30137155 .95350679 -88.36 41.48)"/><path d="m73.37 291.23h3.53v19.23h-3.53z" fill="#fafafa" transform="matrix(.95350679 -.30137155 .30137155 .95350679 -87.17 36.63)"/><path d="m64.4 295.12h3.53v33h-3.53z" fill="#fafafa" transform="matrix(.95 -.3 .3 .95 -90.83 34.43)"/><path d="m105.37 393.52h3.53v11.38h-3.53z" fill="#fafafa" transform="matrix(.95350679 -.30137155 .30137155 .95350679 -115.32 50.84)"/><path d="m81.15 314.49h3.53v19.23h-3.53z" fill="#fafafa" transform="matrix(.95350679 -.30137155 .30137155 .95350679 -93.82 40.06)"/><path d="m94.06 336.96h3.53v53.25h-3.53z" fill="#fafafa" transform="matrix(.95350679 -.30137155 .30137155 .95350679 -105.14 45.8)"/><path d="m89.93 273.2 44.52 139.13.05.16 18.65-6.25-.71-17.26-40.23-123.25z" fill="#fafafa"/><g fill="#263238"><path d="m134.25 420.8 18.08-6.36-.39-7.93-17.44 5.98z"/><path d="m362.21 190.61c0 .14-.56.23-1.26.2s-1.24-.17-1.23-.32.57-.23 1.26-.2 1.24.17 1.23.32z"/><path d="m372 190.19a5.77 5.77 0 0 1 -2.43.45 5.94 5.94 0 0 1 -2.47-.07 11.71 11.71 0 0 1 4.9-.38z"/><path d="m381.7 188.46a5.94 5.94 0 0 1 -2.35.77 6.14 6.14 0 0 1 -2.46.26 11.73 11.73 0 0 1 4.81-1z"/><path d="m391.05 185.47a6 6 0 0 1 -2.22 1.07 5.9 5.9 0 0 1 -2.4.58 5.85 5.85 0 0 1 2.22-1.07 6.26 6.26 0 0 1 2.4-.58z"/><path d="m399.92 181.24a6 6 0 0 1 -2.06 1.36 6.06 6.06 0 0 1 -2.3.91 6.15 6.15 0 0 1 2.06-1.37 6 6 0 0 1 2.3-.9z"/><path d="m408.09 175.79c.09.11-.73.85-1.84 1.65a5.93 5.93 0 0 1 -2.14 1.23c-.08-.12.74-.86 1.84-1.66s2.05-1.34 2.14-1.22z"/><path d="m415.31 169.13c.11.1-.59 1-1.55 1.92s-1.83 1.66-1.92 1.55.59-1 1.55-1.92 1.81-1.68 1.92-1.55z"/><path d="m421.28 161.34c.13.07-.41 1-1.19 2.16s-1.51 2-1.62 1.87a6.18 6.18 0 0 1 1.19-2.17c.78-1.1 1.5-1.94 1.62-1.86z"/><path d="m425.68 152.56a11.76 11.76 0 0 1 -2 4.5 6 6 0 0 1 .74-2.35 6 6 0 0 1 1.26-2.15z"/><path d="m428.28 143.1a6 6 0 0 1 -.29 2.45 5.89 5.89 0 0 1 -.8 2.34 11.69 11.69 0 0 1 1.09-4.79z"/><path d="m429.28 133.33a11.47 11.47 0 0 1 -.31 4.9 6 6 0 0 1 -.1-2.46 6.13 6.13 0 0 1 .41-2.44z"/><path d="m428.79 123.53a11.45 11.45 0 0 1 .43 4.89 6.2 6.2 0 0 1 -.47-2.42 6.11 6.11 0 0 1 .04-2.47z"/><path d="m426.8 113.91a5.94 5.94 0 0 1 .85 2.32 6 6 0 0 1 .34 2.45 6.11 6.11 0 0 1 -.85-2.32 6.16 6.16 0 0 1 -.34-2.45z"/><path d="m423.24 104.76a5.94 5.94 0 0 1 1.23 2.14 5.86 5.86 0 0 1 .75 2.36 6.28 6.28 0 0 1 -1.23-2.15 6.05 6.05 0 0 1 -.75-2.35z"/><path d="m418 96.45c.11-.09.83.74 1.62 1.86a6.05 6.05 0 0 1 1.19 2.16c-.12.08-.85-.76-1.62-1.86a6.07 6.07 0 0 1 -1.19-2.16z"/><path d="m411.19 89.41c.09-.11 1 .49 2 1.42s1.68 1.81 1.58 1.91-.94-.61-1.93-1.53-1.74-1.69-1.65-1.8z"/><path d="m405.08 85.19c.07-.12.61.07 1.2.43s1 .75.93.87-.62-.07-1.2-.42-1.01-.75-.93-.88z"/></g><circle cx="377.96" cy="75.25" fill="#f4511e" r="34.64"/><path d="m357.47 77.78 5.36-5.36 10.34 9.19 20.3-19.53 4.98 5.36-26.04 24.51z" fill="#fafafa"/><path d="m407.48 163.6c-2.07 3.45-1.86 7.78-1.28 11.77s1.48 8.06.59 12c-.59 2.59-2 5.18-1.32 7.75.45 1.83 1.82 3.27 2.5 5 1 2.5.43 5.28.1 7.94s-.31 5.63 1.45 7.64c2.19 2.5 6.22 2.39 9.22 1s5.38-3.86 8.16-5.67 6.4-3 9.39-1.56c1.38.66 2.57 1.84 4.09 2 2.13.16 3.81-1.79 5.87-2.36 1.77-.48 3.66.11 5.48-.1 3.71-.41 6.45-4.41 5.93-8.1a9.09 9.09 0 0 0 -7.52-7.29c-1.57-.26-3.46-.3-4.32-1.64-1.28-2 1-4.51.57-6.82-.28-1.66-1.86-2.77-3.41-3.45s-3.26-1.13-4.46-2.31c-2.15-2.1-1.91-5.54-2.57-8.48-1.09-4.84-5.62-14.75-15.48-15.72" fill="#263238"/><path d="m402.91 439 .19-7.06 13.23.27-.17 10.33h-.82c-3.65.13-18.59.4-21-.39-2.72-.85 8.57-3.15 8.57-3.15z" fill="#f4511e"/><path d="m411.37 442.33a4.56 4.56 0 0 1 1.74-2.78 4.43 4.43 0 0 1 3.11-.9l-.07 3.69z" fill="#f4511e"/><path d="m397.39 440.31s-4 1.06-3.48 1.72 15.58 1 22.25.5v-.29l-17.61-.2s-.39-1.68-1.16-1.73z" fill="#f4511e"/><path d="m416.35 442.23h-.23-.65l-2.4.06c-2 0-4.84 0-7.94 0s-5.91-.17-7.94-.28l-2.4-.15-.65-.05h-.23.23.65l2.41.09c2 .08 4.83.18 7.93.24s5.9.07 7.93.06h3.29z" fill="#263238"/><path d="m398.53 442.25a5.65 5.65 0 0 0 -.43-1.16 5.73 5.73 0 0 0 -.8-.94 1.78 1.78 0 0 1 .94.86 1.82 1.82 0 0 1 .29 1.24z" fill="#263238"/><path d="m402.47 440.34s-.22-.21-.41-.51-.31-.58-.27-.6.22.21.41.51.31.58.27.6z" fill="#263238"/><path d="m403.55 439.8s-.23-.11-.46-.32-.38-.41-.35-.44.24.11.46.32.38.41.35.44z" fill="#263238"/><path d="m404.25 438.56c0 .05-.31.08-.69.08s-.69 0-.69-.09a1.55 1.55 0 0 1 .69-.07 1.64 1.64 0 0 1 .69.08z" fill="#263238"/><path d="m404.5 437.69a1.34 1.34 0 0 1 -.77.21 1.27 1.27 0 0 1 -.79-.13 4.63 4.63 0 0 1 .78 0 3.22 3.22 0 0 1 .78-.08z" fill="#263238"/><path d="m402 439.18a2.45 2.45 0 0 1 -.85 0 5.55 5.55 0 0 1 -.9-.22 2.71 2.71 0 0 1 -.51-.22.49.49 0 0 1 -.21-.27.34.34 0 0 1 .14-.34 1.57 1.57 0 0 1 1.92.5 1.4 1.4 0 0 1 .26.57v.23a2.32 2.32 0 0 0 -.37-.73 1.49 1.49 0 0 0 -.72-.49 1.31 1.31 0 0 0 -1 .05c-.14.1-.09.26.06.35a2.81 2.81 0 0 0 .47.21 5.68 5.68 0 0 0 .87.25c.56.08.84.08.84.11z" fill="#263238"/><path d="m401.82 439.22a.85.85 0 0 1 -.08-.59 1.31 1.31 0 0 1 .26-.63.84.84 0 0 1 .72-.42.35.35 0 0 1 .25.4 1 1 0 0 1 -.15.37 2.84 2.84 0 0 1 -.41.51 1.28 1.28 0 0 1 -.5.34s.18-.15.42-.42a2.58 2.58 0 0 0 .36-.5c.12-.18.21-.5 0-.54s-.44.18-.57.35a1.28 1.28 0 0 0 -.25.55 3.9 3.9 0 0 0 -.05.58z" fill="#263238"/><path d="m416.15 438.61s-.37-.05-1 0a4.15 4.15 0 0 0 -3.52 2.7c-.21.56-.24.94-.27.94a1 1 0 0 1 0-.27 4 4 0 0 1 3.78-3.48 4.67 4.67 0 0 1 .72 0c.2.07.3.1.29.11z" fill="#263238"/><path d="m414.89 433.08a22 22 0 0 1 .06 2.72 21.34 21.34 0 0 1 -.1 2.71 24.4 24.4 0 0 1 -.06-2.71 23.93 23.93 0 0 1 .1-2.72z" fill="#263238"/><path d="m409.73 441a7.35 7.35 0 0 1 -1.94.15 7.77 7.77 0 0 1 -1.93-.19c0-.05.87 0 1.94 0s1.92.04 1.93.04z" fill="#263238"/><path d="m412.32 441.06s-.07.18-.17.37-.14.38-.19.37-.06-.21.05-.43.28-.37.31-.31z" fill="#263238"/><path d="m413.32 439.86s-.06.17-.2.3-.27.22-.3.19.05-.17.19-.3.28-.22.31-.19z" fill="#263238"/><path d="m414.73 439.33c0 .05-.19 0-.38.11s-.34.16-.37.13.08-.21.32-.29.44.01.43.05z" fill="#263238"/><path d="m415.73 439.09s-.06.11-.17.15-.22 0-.23 0 .06-.11.17-.15.21-.04.23 0z" fill="#263238"/><path d="m440.44 439 .19-7.06 13.22.27-.17 10.33h-.82c-3.65.13-18.58.4-21-.39-2.71-.85 8.58-3.15 8.58-3.15z" fill="#f4511e"/><path d="m448.89 442.33a4.58 4.58 0 0 1 1.75-2.78 4.41 4.41 0 0 1 3.11-.9l-.08 3.69z" fill="#f4511e"/><path d="m434.92 440.31s-4 1.06-3.49 1.72 15.58 1 22.25.5v-.29l-17.62-.2s-.37-1.68-1.14-1.73z" fill="#f4511e"/><path d="m453.88 442.23h-.23-.65l-2.41.06c-2 0-4.84 0-7.94 0s-5.91-.17-7.93-.28l-2.41-.15-.65-.05h-.23.23.66l2.4.09c2 .08 4.83.18 7.93.24s5.91.07 7.94.06h3.29z" fill="#263238"/><path d="m436.05 442.25a5.27 5.27 0 0 0 -.42-1.16 5.73 5.73 0 0 0 -.8-.94 2.13 2.13 0 0 1 1.22 2.1z" fill="#263238"/><path d="m440 440.34s-.22-.21-.4-.51-.31-.58-.27-.6.22.21.4.51.27.58.27.6z" fill="#263238"/><path d="m441.08 439.8s-.24-.11-.46-.32-.38-.41-.35-.44.23.11.46.32.38.41.35.44z" fill="#263238"/><path d="m441.78 438.56c0 .05-.31.08-.69.08s-.69 0-.69-.09a1.55 1.55 0 0 1 .69-.07 1.64 1.64 0 0 1 .69.08z" fill="#263238"/><path d="m442 437.69a1.43 1.43 0 0 1 -.78.21 1.27 1.27 0 0 1 -.79-.13 4.81 4.81 0 0 1 .78 0 3.29 3.29 0 0 1 .79-.08z" fill="#263238"/><path d="m439.57 439.18a2.46 2.46 0 0 1 -.85 0 5.55 5.55 0 0 1 -.9-.22 2.53 2.53 0 0 1 -.52-.22.47.47 0 0 1 -.2-.27.36.36 0 0 1 .13-.34 1.56 1.56 0 0 1 1.92.5 1.44 1.44 0 0 1 .27.57.51.51 0 0 1 0 .23 2.24 2.24 0 0 0 -.38-.73 1.51 1.51 0 0 0 -.71-.49 1.34 1.34 0 0 0 -1 .05c-.13.1-.08.26.06.35a2.58 2.58 0 0 0 .48.21 5.37 5.37 0 0 0 .87.25c.5.08.83.08.83.11z" fill="#263238"/><path d="m439.35 439.22a.81.81 0 0 1 -.09-.59 1.45 1.45 0 0 1 .25-.62.84.84 0 0 1 .71-.42.35.35 0 0 1 .26.4.83.83 0 0 1 -.16.37 2.47 2.47 0 0 1 -.41.51 1.29 1.29 0 0 1 -.49.34s.17-.15.41-.42a3.09 3.09 0 0 0 .37-.5c.12-.18.2-.5 0-.54s-.43.18-.57.35a1.57 1.57 0 0 0 -.25.55 3.1 3.1 0 0 0 -.03.57z" fill="#263238"/><path d="m453.68 438.61s-.38-.05-1 0a4.32 4.32 0 0 0 -2.15.84 4.37 4.37 0 0 0 -1.37 1.86c-.21.56-.24.94-.27.94a.8.8 0 0 1 0-.27 3.36 3.36 0 0 1 .16-.71 4 4 0 0 1 3.61-2.77 4.89 4.89 0 0 1 .73 0 .76.76 0 0 1 .29.11z" fill="#263238"/><path d="m452.42 433.08a24.66 24.66 0 0 1 .06 2.72 23.83 23.83 0 0 1 -.1 2.71 21.79 21.79 0 0 1 -.06-2.71 21.43 21.43 0 0 1 .1-2.72z" fill="#263238"/><path d="m447.25 441a7.24 7.24 0 0 1 -1.93.15 7.61 7.61 0 0 1 -1.93-.19c0-.05.87 0 1.93 0s1.93.04 1.93.04z" fill="#263238"/><path d="m449.84 441.06s-.07.18-.16.37-.15.38-.19.37-.06-.21 0-.43.33-.37.35-.31z" fill="#263238"/><path d="m450.85 439.86s-.06.17-.2.3-.28.22-.31.19.06-.17.2-.3.27-.22.31-.19z" fill="#263238"/><path d="m452.25 439.33c0 .05-.18 0-.38.11s-.33.16-.37.13.08-.21.32-.29.45.01.43.05z" fill="#263238"/><path d="m453.25 439.09s-.06.11-.17.15-.21 0-.23 0 .07-.11.18-.15.21-.04.22 0z" fill="#263238"/><path d="m400.24 257.55-6.34 94.51v85.23h25.34s1.07-73.5.4-78.31c0 0 4.14-73.62 4.61-72.57 1 2.15.94 64.73 2.36 72.48s8 78.4 8 78.4h24.39l-8.2-81c-.17-9.76-2.68-95.47-2.68-95.47z" fill="#263238"/><path d="m458.45 432.45a1.8 1.8 0 0 1 -.94.33 5.51 5.51 0 0 1 -2.68-.44 17.47 17.47 0 0 0 -3.67-1.32c-1.43-.21-2.92.54-4.34 1.49a10.5 10.5 0 0 1 -4.47 2.06 9.34 9.34 0 0 1 -4-.49 21.81 21.81 0 0 1 -2.5-1 3.16 3.16 0 0 1 -.85-.49c0-.09 1.31.52 3.45 1.16a9.55 9.55 0 0 0 3.84.36 10.26 10.26 0 0 0 4.25-2 12.66 12.66 0 0 1 2.26-1.22 4.85 4.85 0 0 1 2.42-.3 15.79 15.79 0 0 1 3.78 1.41 5.84 5.84 0 0 0 2.52.57c.59-.02.91-.17.93-.12z" fill="#455a64"/><path d="m419.45 431.86a7 7 0 0 0 -.8-.65 3.83 3.83 0 0 0 -2.67-.4 11 11 0 0 0 -3.72 1.87 13.32 13.32 0 0 1 -2.26 1.22 5.25 5.25 0 0 1 -2.79.33c-1.92-.33-3.44-1.33-5-1.67a8.07 8.07 0 0 0 -4.1.18c-2.3.69-3.65 1.4-3.69 1.3a4.08 4.08 0 0 1 .92-.54 18.19 18.19 0 0 1 2.67-1.12 8.28 8.28 0 0 1 4.31-.29c1.63.35 3.17 1.34 4.93 1.63s3.37-.62 4.7-1.45a10.71 10.71 0 0 1 3.91-1.82 3.91 3.91 0 0 1 2.86.59 1.72 1.72 0 0 1 .73.82z" fill="#455a64"/><path d="m446.41 277.15a3.18 3.18 0 0 1 -1.48.5 9 9 0 0 1 -7.11-2c-.74-.63-1.07-1.14-1-1.18a11.41 11.41 0 0 0 9.61 2.65z" fill="#455a64"/><path d="m404.34 273.46c.06 0 .06.51-.2 1.25a6.23 6.23 0 0 1 -1.71 2.52 6.38 6.38 0 0 1 -2.7 1.42c-.77.17-1.26.11-1.26.05a8.12 8.12 0 0 0 5.87-5.24z" fill="#455a64"/><path d="m398.17 226.28-5.1-18.69s-24 6.25-25.53 4.31c-8.71-10.77-13.11-25.57-14.48-30.88.19-.76.45-1.65.8-2.69a8.29 8.29 0 0 1 1.34-2.46 12.6 12.6 0 0 1 2.42-2.5 1.08 1.08 0 0 0 -.32-2c-1-.07-3.52 1.45-5.41 4.34s-2.46-2.51-2.7-4.47-1.29-8-1.95-8.43c-1-.59-1.79.34-1.5 2.3s.74 7.9-.3 8-2.14-10-2.14-10 .11-2.18-1.1-2.13c-2.19.09-.22 10.67 0 11.68.15.69-1 .82-1.1.06s-.88-10-3.1-10c-1.71.06 1.53 8.72.62 10.73s-1.79-6.82-3.42-6.7c-.6 0-1.05.16.19 5.16a104 104 0 0 0 3.7 10.5h-.09s8.9 52.22 32 49.3c24.59-3.04 27.17-5.43 27.17-5.43z" fill="#ffbe9d"/><path d="m363.32 278.09-146.57-10.67a7.54 7.54 0 0 1 -7-8.07l6.56-90.05a7.54 7.54 0 0 1 8.07-7l146.62 10.7a7.55 7.55 0 0 1 7 8.07l-6.56 90.05a7.53 7.53 0 0 1 -8.12 6.97z" fill="#f4511e"/><path d="m363.32 278.09a12.22 12.22 0 0 0 1.34 0 7.4 7.4 0 0 0 3.62-1.42 7.48 7.48 0 0 0 3-5.39c.18-2.54.39-5.47.62-8.76l4-55.77q.63-8.83 1.33-18.49c.12-1.6.23-3.23.35-4.86s.4-3.31-.12-4.87a7.17 7.17 0 0 0 -2.8-3.93 7.49 7.49 0 0 0 -2.24-1.08 13 13 0 0 0 -2.52-.33l-44.21-3.19-101.29-7.41a7.3 7.3 0 0 0 -5.85 2.29 7.19 7.19 0 0 0 -1.62 2.77 13.19 13.19 0 0 0 -.44 3.24q-.5 6.66-1 13.22-1 13.13-1.88 25.84c-1.24 16.94-2.44 33.29-3.58 48.85a7.45 7.45 0 0 0 1.32 5.36 7.28 7.28 0 0 0 4.58 2.92c3.73.37 7.51.57 11.19.87l21.45 1.57 38.52 2.84 55.76 4.14 15.15 1.16 4 .34 1.34.12s-.45 0-1.34-.07l-4-.26-15.16-1.05-55.78-4-38.49-2.74-21.46-1.55c-3.69-.29-7.4-.48-11.24-.86a7.74 7.74 0 0 1 -4.88-3.1 8 8 0 0 1 -1.41-5.67c1.13-15.57 2.32-31.91 3.55-48.86q.92-12.71 1.87-25.84.48-6.57 1-13.22a14 14 0 0 1 .46-3.36 7.8 7.8 0 0 1 8-5.42l101.29 7.4 44.2 3.24a13.65 13.65 0 0 1 2.6.35 7.87 7.87 0 0 1 2.37 1.14 7.72 7.72 0 0 1 3 4.16 7.56 7.56 0 0 1 .29 2.54c0 .84-.11 1.65-.17 2.48-.12 1.63-.24 3.26-.36 4.86q-.7 9.64-1.36 18.48c-1.75 23.54-3.17 42.59-4.15 55.77q-.37 4.93-.66 8.75a7.56 7.56 0 0 1 -3.12 5.46 7.34 7.34 0 0 1 -3.67 1.39 6.21 6.21 0 0 1 -1 0z" fill="#263238"/><g fill="#fafafa"><path d="m352.91 196.26a11.18 11.18 0 1 1 -10.34-12 11.2 11.2 0 0 1 10.34 12z"/><path d="m355.2 208.12c-.28 0-.57 0-.85 0a11.55 11.55 0 1 1 .85 0zm0-22.37a10.58 10.58 0 1 0 .78 0z"/><path d="m226.33 230-.65 9-.92-.07.59-8.15-2.11-.15.06-.82z"/><path d="m235 238.85-.07.82-6.29-.46v-.65l4-3.38c1.08-.93 1.32-1.51 1.36-2.13.08-1-.61-1.73-2-1.83a3 3 0 0 0 -2.52.82l-.61-.61a4 4 0 0 1 3.27-1.05c1.82.13 2.91 1.14 2.8 2.64a3.74 3.74 0 0 1 -1.68 2.7l-3.26 2.77z"/><path d="m244.52 238-1.79-.13-.18 2.36-.92-.07.17-2.36-5.06-.36v-.67l5.19-5.6 1 .07-5 5.46 3.9.29.15-2.08.9.06-.15 2.08 1.79.13z"/><path d="m258.27 239-1.79-.13-.18 2.36-.92-.07.17-2.35-5.06-.37v-.67l5.19-5.6 1 .08-5 5.45 3.9.29.15-2.08.9.07-.16 2.07 1.8.13z"/><path d="m266.13 239.29c-.11 1.53-1.26 2.64-3.45 2.48a4.59 4.59 0 0 1 -3.13-1.39l.5-.69a3.92 3.92 0 0 0 2.68 1.24c1.52.11 2.38-.58 2.46-1.67s-.58-1.92-2.86-2.09l-1.91-.14.79-4.46 4.91.36-.06.82-4.1-.3-.52 2.83 1.16.09c2.7.19 3.65 1.33 3.53 2.92z"/><path d="m275 239.9a2.8 2.8 0 0 1 -3.26 2.53c-2.39-.17-3.56-1.92-3.35-4.75.22-3.05 2-4.52 4.44-4.34a4.13 4.13 0 0 1 2.09.64l-.43.72a3.16 3.16 0 0 0 -1.71-.55c-1.94-.14-3.27 1-3.45 3.44v.74a2.86 2.86 0 0 1 2.85-1.34 2.72 2.72 0 0 1 2.82 2.91zm-.91 0c.09-1.18-.73-2-2.11-2.1a2.08 2.08 0 0 0 -2.45 1.79c-.08 1 .68 2 2.23 2.1a2 2 0 0 0 2.33-1.83z"/><path d="m287.27 240.9c-.11 1.5-1.28 2.57-3.45 2.41a4.63 4.63 0 0 1 -3.14-1.39l.5-.69a4 4 0 0 0 2.7 1.24c1.49.1 2.36-.53 2.44-1.64s-.63-1.84-2.29-2l-.64-.05.05-.68 2.71-2.93-4.59-.33.06-.82 5.77.42-.05.65-2.77 3c1.92.29 2.8 1.37 2.7 2.81z"/><path d="m296.27 241.45a2.8 2.8 0 0 1 -3.27 2.55c-2.38-.17-3.56-1.92-3.35-4.75.22-3 2-4.52 4.44-4.34a4.13 4.13 0 0 1 2.09.64l-.43.72a3.08 3.08 0 0 0 -1.71-.55c-1.94-.14-3.27 1-3.45 3.44v.74a2.86 2.86 0 0 1 2.85-1.34 2.72 2.72 0 0 1 2.83 2.89zm-.91 0c.09-1.18-.73-2-2.11-2.1a2.08 2.08 0 0 0 -2.45 1.79c-.08 1 .68 2 2.23 2.1a2 2 0 0 0 2.33-1.83z"/><path d="m305 235.76-.05.65-4.36 8-1-.07 4.29-7.88-4.61-.34-.13 1.68-.91-.06.19-2.5z"/><path d="m317.81 236.69-.05.66-4.36 8-1-.07 4.28-7.88-4.61-.34-.12 1.68-.91-.07.18-2.5z"/><path d="m326.16 243.81c-.11 1.59-1.53 2.47-3.67 2.32s-3.39-1.24-3.27-2.83a2.25 2.25 0 0 1 1.89-2.08 2 2 0 0 1 -1.27-2.07c.11-1.46 1.42-2.28 3.32-2.15s3.1 1.15 3 2.61a2 2 0 0 1 -1.58 1.86 2.27 2.27 0 0 1 1.58 2.34zm-.94-.08c.08-1.11-.82-1.87-2.41-2s-2.57.5-2.65 1.61.8 1.87 2.39 2 2.59-.5 2.67-1.61zm-2.36-2.73c1.4.1 2.28-.47 2.35-1.44s-.77-1.7-2.11-1.79-2.26.45-2.33 1.45.7 1.69 2.09 1.78z"/><path d="m335 242.38c-.22 3.05-2 4.52-4.44 4.34a4.2 4.2 0 0 1 -2.09-.64l.42-.72a3.2 3.2 0 0 0 1.72.55c1.93.14 3.26-1 3.44-3.45 0-.2 0-.46 0-.73a2.88 2.88 0 0 1 -2.86 1.34 2.72 2.72 0 0 1 -2.83-2.91 2.81 2.81 0 0 1 3.27-2.53c2.43.17 3.6 1.92 3.37 4.75zm-1.14-1.88c.07-1-.68-2-2.23-2.09a2 2 0 0 0 -2.33 1.79c-.09 1.18.73 2 2.11 2.1a2.08 2.08 0 0 0 2.48-1.8z"/><path d="m344.45 238.63-.66 9-.92-.06.59-8.15-2.11-.16.06-.82z"/><path d="m353.08 247.45-.06.82-6.29-.45v-.66l4-3.38c1.08-.92 1.32-1.51 1.37-2.13.07-1-.61-1.73-2-1.83a3.08 3.08 0 0 0 -2.52.82l-.58-.64a4 4 0 0 1 3.27-1.05c1.82.13 2.91 1.14 2.8 2.64-.06.86-.39 1.61-1.68 2.7l-3.26 2.78z"/><path d="m361.25 246.29c-.11 1.49-1.28 2.57-3.44 2.41a4.64 4.64 0 0 1 -3.15-1.39l.5-.7a3.89 3.89 0 0 0 2.71 1.24c1.48.11 2.35-.52 2.44-1.63s-.63-1.84-2.3-2h-.64l.05-.68 2.72-2.93-4.59-.33.06-.82 5.76.42v.65l-2.77 3c1.87.24 2.76 1.32 2.65 2.76z"/><path d="m325.49 219.05h3.91v72.05h-3.91z" transform="matrix(.07254192 -.99736536 .99736536 .07254192 49.27 563.14)"/><path d="m342.43 245.66h3.91v36.95h-3.91z" transform="matrix(.07254192 -.99736536 .99736536 .07254192 55.95 588.44)"/></g><rect fill="#455a64" height="22.58" rx="4.96" transform="matrix(.99735269 .07271599 -.07271599 .99735269 16.01 -16.68)" width="30.23" x="222.18" y="200.47"/><path d="m221.85 215.69.11-1.44 15.52 1.13a3.26 3.26 0 1 0 .47-6.5l-15.52-1.13.1-1.45 15.53 1.13a4.71 4.71 0 0 1 -.68 9.39z" fill="#f4511e"/><path d="m246.29 207.46h1.45v10.68h-1.45z" fill="#f4511e" transform="matrix(.07358632 -.99728885 .99728885 .07358632 16.61 443.49)"/><path d="m227.6 183.94h77.75v6.67h-77.75z" fill="#fafafa" transform="matrix(.99735269 .07271599 -.07271599 .99735269 14.32 -18.88)"/><path d="m408.5 158.32a8.92 8.92 0 0 0 -2.53 6.94 15.94 15.94 0 0 0 2.41 7.15" fill="#263238"/><path d="m430.33 197.41 1.36-31.33-12.57-9.52-11.42 5.58s-.38 14.34 0 20.56 6.65 6.88 6.65 6.88-.18 3.43-.38 7a8.2 8.2 0 0 0 7.61 8.61 8.19 8.19 0 0 0 8.75-7.78z" fill="#ffbe9d"/><path d="m409.74 172.6a.8.8 0 1 0 .8-.8.8.8 0 0 0 -.8.8z" fill="#263238"/><path d="m408.18 171.73c.1.1.69-.4 1.54-.45s1.5.37 1.59.26-.06-.24-.34-.44a2.06 2.06 0 0 0 -1.28-.33 2 2 0 0 0 -1.22.49c-.26.22-.34.42-.29.47z" fill="#263238"/><path d="m419 172.6a.79.79 0 0 0 .79.79.8.8 0 1 0 -.79-.79z" fill="#263238"/><path d="m417.68 171.73c.1.1.69-.4 1.54-.45s1.5.37 1.59.26-.06-.24-.34-.44a2.07 2.07 0 0 0 -1.28-.33 2.05 2.05 0 0 0 -1.23.49c-.25.22-.33.42-.28.47z" fill="#263238"/><path d="m417.41 179.78a16 16 0 0 1 -4.14 1.42 2.42 2.42 0 0 0 2.84.81 1.76 1.76 0 0 0 1.3-2.23z" fill="#fafafa"/><path d="m414.35 189.58a15.5 15.5 0 0 0 8.24-2.78s-1.87 4.57-8.1 4.31z" fill="#eb996e"/><path d="m414.58 179a6 6 0 0 0 -1.4-.17c-.22 0-.43 0-.48-.2a1.22 1.22 0 0 1 .13-.7c.18-.56.38-1.15.58-1.77.41-1.27.76-2.41 1-3.25a5.13 5.13 0 0 0 .31-1.38 6 6 0 0 0 -.54 1.3c-.3.82-.69 2-1.1 3.22-.19.63-.38 1.22-.56 1.79a1.4 1.4 0 0 0 -.08.89.5.5 0 0 0 .36.31 1.25 1.25 0 0 0 .37 0 5.11 5.11 0 0 0 1.41-.04z" fill="#263238"/><path d="m430.77 177.22a7.54 7.54 0 0 1 .34-3.07 2.86 2.86 0 0 1 2.23-1.93 2.45 2.45 0 0 1 2.53 2 3 3 0 0 1 -1.54 3 4 4 0 0 1 -3.46.09" fill="#ffbe9d"/><path d="m432.59 176.31c0-.07.33.09.77-.05a1.38 1.38 0 0 0 .93-1.32 1 1 0 0 0 -.22-.83 1 1 0 0 0 -.68-.2c-.46 0-.79.16-.82.09s.21-.29.77-.45a1.22 1.22 0 0 1 1 .2 1.42 1.42 0 0 1 .43 1.23 2 2 0 0 1 -.46 1.16 1.48 1.48 0 0 1 -.92.48c-.57.06-.86-.27-.8-.31z" fill="#eb996e"/><path d="m407.79 158.93c-2.76 3.43.92 5.59 2.75 7 1.41 1.1 5.57 4 9.22 2.63-1.29-1.73-2.76-2.49-3.33-4.14 1.49 2.1 3.06 3.69 5.62 3.95-.51-1.49-1.23-4.52-.68-4.64.68 5.92 6.23 10.9 10.05 9a12.67 12.67 0 0 0 -1.18-11.42 14.4 14.4 0 0 0 -9.77-6.23 15.47 15.47 0 0 0 -12.68 3.8" fill="#263238"/><path d="m434 177.79c0-.06.47.39.28 1.24a1.67 1.67 0 0 1 -.92 1.13 2 2 0 0 1 -1.8-.07 2.1 2.1 0 0 1 -1-1.51 2 2 0 0 1 .36-1.41c.5-.68 1.06-.75 1.06-.7s-.41.28-.75.9a1.71 1.71 0 0 0 -.19 1.14 1.64 1.64 0 0 0 .75 1.13 1.59 1.59 0 0 0 1.34.09 1.38 1.38 0 0 0 .77-.81 2.94 2.94 0 0 0 .1-1.13z" fill="#f4511e"/><path d="m390.77 229.31 9.38-1.95 2.85 15.78a251.3 251.3 0 0 0 -6 24.58l22 13.73 3.39-6.44 5.43 5.16 23.41-12.45c-2.89-15-10.19-18.92-10.19-21.36 0-7-1-.2 4.87-23.39s-15.55-25.56-15.55-25.56.48 3.24-16.56.15c-6.24-1.13-31.15 11.95-31.15 11.95z" fill="#f4511e"/><path d="m413.77 197.56s-.2 17.16 3.89 16 12.33-8.49 12.67-16.19z" fill="#ffbe9d"/><g fill="#263238"><path d="m414.81 227.63a37 37 0 0 1 .35-6.08 34.87 34.87 0 0 1 .88-6 36.51 36.51 0 0 1 -.36 6.09 35 35 0 0 1 -.87 5.99z"/><path d="m417.42 226.24a23.12 23.12 0 0 1 -.39-4.87 23.56 23.56 0 0 1 .13-4.89 23.37 23.37 0 0 1 .39 4.88 22 22 0 0 1 -.13 4.88z"/><path d="m413.75 229.31c-.14 0-.24-.44 0-.93s.63-.71.72-.6-.07.43-.24.81-.33.73-.48.72z"/><path d="m414.31 229.31c-.14 0-.19-.36-.12-.75s.26-.67.4-.64.19.36.12.75-.26.67-.4.64z"/><path d="m414.84 229.32c-.14 0-.29-.29-.33-.68s.05-.71.2-.72.29.29.32.67-.03.71-.19.73z"/><path d="m415.71 229.59c-.15 0-.26-.5-.52-1s-.56-.94-.46-1.06.63.18.94.84.18 1.23.04 1.22z"/><path d="m417.52 227.78c-.13.05-.4-.38-.4-1s.27-1 .4-1 .12.47.12 1 .02.95-.12 1z"/><path d="m418.06 227.5c-.14 0-.29-.32-.33-.74s0-.78.19-.79.29.32.33.74-.05.78-.19.79z"/><path d="m418.91 227.36c-.11.09-.42-.12-.69-.47s-.4-.7-.28-.78.42.12.69.46.37.7.28.79z"/><path d="m419.19 227.08c-.13.06-.38-.2-.7-.48s-.6-.49-.55-.63.5-.12.9.24.48.79.35.87z"/><path d="m412.52 199.45c0-.06.3-.21.65.11a.84.84 0 1 1 -1.39.92.88.88 0 0 1 .11-.8c.29-.38.64-.29.62-.23s-.2.15-.3.42 0 .63.41.58.44-.4.28-.65-.37-.27-.38-.35z"/><path d="m412.92 202.68c-.09.11-.37 0-.64-.14s-.42-.44-.34-.56.37-.06.64.14.42.44.34.56z"/><path d="m413.18 203.36c.12.09 0 .44-.4.59s-.73 0-.7-.15.26-.23.51-.33.48-.2.59-.11z"/><path d="m413.2 205.05c.11.09 0 .35-.15.58s-.44.35-.55.25-.05-.35.15-.58.43-.3.55-.25z"/><path d="m412.77 206.88c0-.06.4-.2.87.23a1 1 0 0 1 .27 1 1.14 1.14 0 0 1 -1.06.82 1.11 1.11 0 0 1 -1-.86.91.91 0 0 1 .45-1c.58-.32 1 0 .9.05s-.36 0-.69.25a.53.53 0 0 0 -.19.58.66.66 0 0 0 .58.45.69.69 0 0 0 .5-1.11c-.3-.29-.64-.29-.63-.41z"/><path d="m413.89 209.79c.07.13-.15.37-.39.64s-.44.52-.58.47-.12-.45.19-.81.72-.43.78-.3z"/><path d="m414.45 211.6c.13.05.11.45-.2.81s-.71.43-.78.31.15-.38.39-.65.45-.52.59-.47z"/><path d="m414.75 214.53c-.14 0-.29-.32-.32-.75s0-.77.19-.79.29.32.32.75-.04.78-.19.79z"/><path d="m419.61 215c-.07.12-.35.1-.62 0s-.43-.38-.36-.51.35-.1.62.05.43.28.36.46z"/><path d="m421.3 213c.1.1-.07.43-.37.74s-.64.48-.74.38.06-.43.37-.74.63-.47.74-.38z"/><path d="m422.68 211.88c0-.08.26-.12.64-.11h.05l.07.06a.75.75 0 0 1 .21.69.73.73 0 0 1 -.65.6.79.79 0 0 1 -.81-.49.66.66 0 0 1 .16-.74c.33-.3.64-.15.6-.09s-.2.1-.31.32a.33.33 0 0 0 0 .32.37.37 0 0 0 .33.16c.21 0 .31-.37.2-.5l.12.06c-.39-.1-.62-.16-.61-.28z"/><path d="m424.11 211.61c-.14 0-.2-.37-.12-.75s.26-.67.4-.65.19.37.11.75-.25.68-.39.65z"/><path d="m426.3 210.07c-.05.13-.38.11-.73 0s-.58-.39-.52-.52.39-.11.73 0 .58.39.52.52z"/><path d="m426.55 208.17c.06 0 .05.18.17.31s.27.16.38 0 0-.28-.16-.34-.3 0-.36 0 0-.28.34-.35a.62.62 0 0 1 .58.2.65.65 0 0 1 .05.78.66.66 0 0 1 -.72.32.62.62 0 0 1 -.44-.42c-.1-.38.11-.55.16-.5z"/><path d="m428.08 206.59c-.14 0-.31-.1-.39-.33s0-.45.1-.5.31.1.39.33.03.46-.1.5z"/><path d="m429.51 205.19c-.07.12-.35.1-.62-.06s-.43-.38-.35-.5.34-.1.61.05.43.38.36.51z"/><path d="m430.49 203.09c.06.14-.18.37-.52.52s-.68.17-.74 0 .18-.36.52-.51.68-.1.74-.01z"/><path d="m430.94 200.58c0-.05.19-.24.53-.06a.68.68 0 0 1 .34.55.7.7 0 0 1 -.47.68.69.69 0 0 1 -.8-.19.66.66 0 0 1 -.11-.64c.13-.35.41-.37.42-.3s-.08.18-.06.37.14.36.36.28.22-.28.09-.45-.24-.17-.3-.24z"/><path d="m432.31 198.39c0 .14-.22.32-.57.4s-.65 0-.68-.11.22-.32.57-.4.65-.03.68.11z"/><path d="m430.91 197.66.55-.42"/><path d="m385.49 211.92c-.13 0-.18-.29-.09-.55s.26-.43.39-.39.18.29.1.55-.26.47-.4.39z"/><path d="m386.69 213.37c0-.06.18-.25.54-.09a.7.7 0 0 1 0 1.28.72.72 0 0 1 -.84-.1.7.7 0 0 1 -.2-.63c.07-.39.36-.45.38-.39s-.06.2 0 .4.2.38.45.26.2-.34 0-.51-.3-.15-.33-.22z"/><path d="m388.18 216.64c-.06.13-.37.13-.7 0s-.54-.35-.49-.48.37-.13.7 0 .54.35.49.48z"/><path d="m388.55 218.64c-.05.14-.29.18-.55.1s-.43-.26-.39-.4.29-.18.55-.09.43.26.39.39z"/><path d="m389.16 220c.12.07.09.36-.08.64s-.4.46-.52.38-.09-.36.07-.64.37-.38.53-.38z"/><path d="m389.52 221.39c-.07 0 .17-.37.68-.23a.93.93 0 0 1 .63.6.82.82 0 0 1 -.52 1 1 1 0 0 1 -1.07-.21.71.71 0 0 1 0-.93.44.44 0 0 1 .63 0c.11.13.06.23 0 .23s-.08 0-.15-.06-.21 0-.22.08a.33.33 0 0 0 .09.36.55.55 0 0 0 .53.06c.41-.15.24-.61-.06-.76s-.49-.08-.54-.14z"/><path d="m391 224c.1.1 0 .33-.18.51s-.43.22-.53.12 0-.34.18-.51.4-.25.53-.12z"/><path d="m391.54 225.72c.11.1 0 .35-.17.56s-.45.31-.56.21 0-.35.18-.56.45-.31.55-.21z"/><path d="m401.75 270.25c-.12.07-.39-.16-.58-.52s-.26-.7-.14-.77.39.16.59.52.26.7.13.77z"/><path d="m402.62 270.25c-.13.06-.37-.18-.53-.54s-.18-.69 0-.75.37.18.53.54.13.69 0 .75z"/><path d="m403.85 270.9v.32s.15.21.29.13.13-.19 0-.32-.23-.11-.27-.18.12-.25.44-.15a.59.59 0 0 1 .09 1.09.63.63 0 0 1 -.74 0 .6.6 0 0 1 -.19-.54c.11-.37.36-.42.38-.35z"/><path d="m406.93 271.55c.09.11-.1.4-.42.64s-.64.34-.73.22.1-.4.42-.64.65-.34.73-.22z"/><path d="m407.94 272.55c.06.13-.08.33-.31.45s-.49.11-.55 0 .07-.33.31-.45.49-.12.55 0z"/><path d="m409.36 274.14c-.15 0-.29-.19-.34-.47s.05-.52.19-.54.29.19.33.47-.04.52-.18.54z"/><path d="m411.65 274.11c0 .06-.06.19 0 .39s.19.34.41.21.16-.32 0-.46-.32-.1-.36-.16.12-.28.5-.18a.67.67 0 0 1 .47.46.73.73 0 0 1 -1.17.73.66.66 0 0 1 -.21-.62c.05-.39.34-.48.36-.37z"/><path d="m414.37 275.16c.1.11-.05.39-.33.63s-.58.35-.67.24.05-.39.33-.63.58-.35.67-.24z"/><path d="m416.17 276.23c.1.1-.06.41-.43.58s-.72.08-.73-.07.23-.28.51-.41.54-.21.65-.1z"/><path d="m417.53 278.18c-.14.05-.32-.11-.4-.35s0-.47.1-.51.32.11.4.35.03.47-.1.51z"/><path d="m419.07 277.26c-.06 0 .06-.3.44-.28a.63.63 0 0 1 .53.38.64.64 0 0 1 -.28.79.65.65 0 0 1 -.84-.11.62.62 0 0 1 -.05-.66c.19-.34.51-.27.48-.2s-.12.15-.13.33.08.3.27.19.12-.25-.06-.36-.3-.03-.36-.08z"/><path d="m420.51 275.86c-.12.08-.33 0-.47-.21s-.15-.43 0-.51.33 0 .47.21.12.43 0 .51z"/><path d="m421.22 274.71c-.1.1-.31.06-.47-.1s-.21-.37-.11-.47.32-.06.48.1.2.37.1.47z"/><path d="m422 272.51c-.07 0 .08-.27.39-.16a.49.49 0 0 1 .33.44.59.59 0 0 1 -1.08.28.54.54 0 0 1 0-.51c.12-.26.34-.27.36-.21s0 .17 0 .3a.23.23 0 0 0 .07.15s.05 0 .11 0a.41.41 0 0 0 .09 0s0-.07 0-.11-.19-.13-.27-.18z"/><path d="m423.6 274.14a.32.32 0 0 1 -.18-.39.29.29 0 0 1 .33-.26.3.3 0 0 1 .18.38.31.31 0 0 1 -.33.27z"/><path d="m424.33 275a.45.45 0 0 1 -.12-.43c0-.16.12-.33.26-.36s.31.17.26.45-.29.43-.4.34z"/><path d="m425.34 276.16a.43.43 0 0 1 -.44.12c-.17 0-.33-.13-.36-.27s.18-.3.46-.25.41.24.34.4z"/><path d="m426.16 277.14c-.05-.05.08-.25.39-.2a.59.59 0 0 1 .43.36.6.6 0 0 1 -1 .59.5.5 0 0 1 0-.57c.16-.3.44-.22.41-.15s-.08.14-.07.27 0 .13.06.13 0 0 .1 0 .07-.06.08-.09a.24.24 0 0 0 -.09-.15c-.15-.13-.27-.13-.31-.19z"/><path d="m427.44 279.12a.31.31 0 0 1 -.22-.36c0-.18.15-.31.29-.29a.29.29 0 0 1 .23.35.31.31 0 0 1 -.3.3z"/><path d="m429.38 278.09c0 .14-.28.21-.56.14s-.48-.23-.45-.37.29-.2.57-.14.47.28.44.37z"/><path d="m430.11 277.74c-.14 0-.27-.13-.29-.33s.08-.38.23-.39.27.14.29.34-.08.37-.23.38z"/><path d="m431.47 276.66c-.14 0-.26-.16-.26-.36s.12-.36.26-.36.26.16.26.36-.11.36-.26.36z"/><path d="m432.52 275.19c0-.05.18-.25.51-.05a.58.58 0 0 1 .27.58.61.61 0 0 1 -.66.5.58.58 0 0 1 -.28-1.11c.34-.17.55.06.49.11s-.18 0-.28.19a.25.25 0 0 0 -.07.21s.06.07.16.08.15 0 .17-.07 0-.14 0-.21-.28-.17-.31-.23z"/><path d="m435.23 274.35c-.11.11-.3.08-.49.06s-.39-.08-.45-.21.16-.37.53-.31.51.37.41.46z"/><path d="m436.6 273.63c-.07.13-.35.12-.65.07s-.56-.14-.58-.29.29-.3.67-.23.63.33.56.45z"/><path d="m437.38 273c-.14 0-.24-.19-.23-.39s.15-.35.3-.33.24.18.22.38-.15.34-.29.34z"/><path d="m438.56 271.15c-.05 0 .1-.27.46-.2a.57.57 0 0 1 .43.48.65.65 0 0 1 -.41.7.64.64 0 0 1 -.76-.32.52.52 0 0 1 .14-.65c.32-.23.55 0 .5 0s-.17.09-.24.23 0 .12 0 .15a.21.21 0 0 0 .16.07.22.22 0 0 0 .11-.17.19.19 0 0 0 -.08-.17c-.11-.08-.27-.06-.31-.12z"/><path d="m440.27 271.1a.33.33 0 0 1 -.19-.41c0-.2.19-.34.33-.31s.22.21.18.41-.18.34-.32.31z"/><path d="m441.72 269.88a.31.31 0 0 1 -.22-.36.27.27 0 1 1 .52.06.31.31 0 0 1 -.3.3z"/><path d="m443.76 268.7c-.08.12-.33.1-.59 0s-.49-.15-.51-.3.27-.29.63-.21.55.39.47.51z"/><path d="m444.74 268c-.13.06-.33-.13-.25-.39s.34-.31.42-.19a.46.46 0 0 1 .07.34.43.43 0 0 1 -.24.24z"/><path d="m445.92 266.85a.31.31 0 0 1 -.22-.36c0-.18.16-.31.3-.29s.24.17.22.35a.31.31 0 0 1 -.3.3z"/></g><path d="m431.5 213.73-6.63 6.67 16.06 15.79s3.27-9.52 5.55-17.9c1.61-5.92-14.98-4.56-14.98-4.56z" fill="#f4511e"/><path d="m428.91 221c-.14 0-.29-.29-.33-.67s.05-.71.19-.72.29.28.33.67-.05.72-.19.72z" fill="#263238"/><path d="m430.44 221.31c0 .14-.25.26-.56.26s-.55-.12-.55-.26.25-.26.55-.26.56.11.56.26z" fill="#263238"/><path d="m430.86 223.53c-.13-.08-.12-.31-.12-.56s0-.47.12-.55.4.14.4.55-.26.65-.4.56z" fill="#263238"/><path d="m432.18 223.75c-.06 0 .17-.32.6-.18a.77.77 0 0 1 .52.58.78.78 0 0 1 -1.47.44.72.72 0 0 1 .2-.77.57.57 0 0 1 .48-.16c.13 0 .17.1.15.12s-.22.06-.35.28-.06.51.29.42.26-.41 0-.57-.38-.1-.42-.16z" fill="#263238"/><path d="m433.91 226.45c-.13 0-.18-.27-.11-.5s.25-.38.39-.34.19.27.11.5-.25.38-.39.34z" fill="#263238"/><path d="m435.41 226.16c.14 0 .19.42.11.88s-.26.82-.4.79-.19-.42-.11-.88.26-.81.4-.79z" fill="#263238"/><path d="m437 228c0 .14-.25.29-.6.33s-.63-.05-.65-.19.25-.29.6-.33.65.02.65.19z" fill="#263238"/><path d="m437.65 228.76c0-.06.21-.22.59-.06a.83.83 0 0 1 .47.55.78.78 0 0 1 -.41.85.71.71 0 0 1 -.95-.21.64.64 0 0 1 .14-.77.48.48 0 0 1 .51-.12c.12.05.14.12.12.14s-.21 0-.32.24 0 .4.29.28.19-.44 0-.62-.43-.2-.44-.28z" fill="#263238"/><path d="m439.33 232.29c-.14 0-.26-.38-.26-.84s.12-.83.26-.83.26.37.26.83-.11.84-.26.84z" fill="#263238"/><path d="m436.91 206.89a9.54 9.54 0 0 1 -1.44 2.15c-1 1.26-2.38 3-4 4.77s-3.1 3.44-4.19 4.6a13.7 13.7 0 0 1 -1.85 1.8 12.75 12.75 0 0 1 1.57-2.05c1-1.21 2.48-2.87 4.08-4.69l4.1-4.67a18.37 18.37 0 0 1 1.73-1.91z" fill="#263238"/><path d="m448.14 266.73c0 .14-.3.19-.6.12s-.51-.25-.48-.39.31-.19.6-.12.51.25.48.39z" fill="#263238"/><path d="m448.9 265.51c0-.05.06-.21.35-.23a.48.48 0 0 1 .44.3.47.47 0 0 1 -.31.67c-.5.13-.93-.36-.71-.74a.32.32 0 0 1 .33-.16c.09 0 .11.09.09.12a.22.22 0 0 0 -.09.2s.15.11.24.08 0 0 0 0a.09.09 0 0 0 -.06-.1c-.11-.07-.25-.07-.28-.14z" fill="#263238"/><path d="m363.79 230.06c-.57-1.89-7.74-5.77-6.66-6.82 1.4-1.38 7.3 4.38 7.83 4.83s1.18-.32.68-.7c-.72-.55-8.18-6.47-6.81-7.83.76-.76 2 .77 2 .77s6.58 6.07 7.21 5.4-3.12-4.37-4.47-5.52-1.34-2.26-.36-2.44c.66-.13 4.88 3.31 6.18 4.49s4.85 4.46 4.38 1.39a.71.71 0 0 1 0-.14c-.54-3 0-5.51.7-6.11a1 1 0 0 1 1.7.83 1 1 0 0 1 0 .45v.22a16.2 16.2 0 0 0 .21 3.13 8.32 8.32 0 0 0 .87 2.66c.51 1 1 1.76 1.4 2.43 4.79 2.64 18.58 9.61 32.39 10.67 2.5.19 15.15-16.17 15.15-16.17l12.41 12.19c-1.68 2.87-2.27 3.53-10.7 15.06-13.75 18.81-57-12.34-57-12.34l-.4-.2a97.09 97.09 0 0 1 -9.56-5.36c-3.72-2.61-3.5-2.95-3.13-3.35.84-1.05 6.56 4.4 5.98 2.46z" fill="#ffbe9d"/></svg>