<svg viewBox="0 0 500 500" xmlns="http://www.w3.org/2000/svg"><path d="m283.89 92.08a40.57 40.57 0 0 1 7.64-16.82c20.21-25.87 57.28-10.47 76.92 7.78 31.82 29.56 48.45 74 46.37 117.41s-22.16 85.19-52.94 115.84-71.74 50.33-114.52 57.85c-47.7 8.4-111.35 7.47-142.17-36.57-22.8-32.57-21.52-80.29 3.7-111.18a80.93 80.93 0 0 1 18.11-16.39c26.71-17.61 59.2-15.89 89.54-21.14 20.71-3.59 43.63-12.06 56.05-30 13.7-19.69 6.51-44.74 11.3-66.78z" fill="#f4511e"/><path d="m283.89 92.08a40.57 40.57 0 0 1 7.64-16.82c20.21-25.87 57.28-10.47 76.92 7.78 31.82 29.56 48.45 74 46.37 117.41s-22.16 85.19-52.94 115.84-71.74 50.33-114.52 57.85c-47.7 8.4-111.35 7.47-142.17-36.57-22.8-32.57-21.52-80.29 3.7-111.18a80.93 80.93 0 0 1 18.11-16.39c26.71-17.61 59.2-15.89 89.54-21.14 20.71-3.59 43.63-12.06 56.05-30 13.7-19.69 6.51-44.74 11.3-66.78z" fill="#fff" opacity=".9"/><ellipse cx="250" cy="416.24" fill="#f5f5f5" rx="193.89" ry="11.32"/><path d="m115 391.82s5-10.85-.7-21.55-7.34-13.22-3.71-15.42 5.28 8.56 5.28 8.56a24.11 24.11 0 0 0 .54-15.13c-2.53-7.74-4.11-20.35-.66-21.71s.65 15.73 3.64 21.56a50.17 50.17 0 0 0 2.92-12.7c.42-6.22-.23-16.15 2.49-18.7s4.46-.78 1.79 12.94a143.7 143.7 0 0 0 -2.59 24.88s5.9-18 9.86-18.53 4 5.31.57 10.36-9.93 14.11-11 18.77c0 0 6.48-13.54 12.3-9.39s-5.07 12.33-9.93 15.29-8.23 21.49-8.23 21.49z" fill="#f4511e"/><path d="m115 391.82s5-10.85-.7-21.55-7.34-13.22-3.71-15.42 5.28 8.56 5.28 8.56a24.11 24.11 0 0 0 .54-15.13c-2.53-7.74-4.11-20.35-.66-21.71s.65 15.73 3.64 21.56a50.17 50.17 0 0 0 2.92-12.7c.42-6.22-.23-16.15 2.49-18.7s4.46-.78 1.79 12.94a143.7 143.7 0 0 0 -2.59 24.88s5.9-18 9.86-18.53 4 5.31.57 10.36-9.93 14.11-11 18.77c0 0 6.48-13.54 12.3-9.39s-5.07 12.33-9.93 15.29-8.23 21.49-8.23 21.49z" fill="#fff" opacity=".6"/><path d="m119 396.27s-4.84-10.92 1-21.54 7.49-13.11 3.89-15.35-5.39 8.48-5.39 8.48a24.23 24.23 0 0 1 -.35-15.15c2.62-7.7 4.35-20.29.92-21.69s-.84 15.72-3.9 21.5a50.35 50.35 0 0 1 -2.77-12.75c-.34-6.22.42-16.14-2.26-18.72s-4.46-.86-2 12.9a143.85 143.85 0 0 1 2.36 24.92s-5.69-18.09-9.65-18.67-4 5.24-.69 10.35 9.77 14.26 10.78 18.93c0 0-6.31-13.64-12.19-9.57s4.92 12.4 9.75 15.43 8 21.61 8 21.61z" fill="#f4511e"/><path d="m119 396.27s-4.84-10.92 1-21.54 7.49-13.11 3.89-15.35-5.39 8.48-5.39 8.48a24.23 24.23 0 0 1 -.35-15.15c2.62-7.7 4.35-20.29.92-21.69s-.84 15.72-3.9 21.5a50.35 50.35 0 0 1 -2.77-12.75c-.34-6.22.42-16.14-2.26-18.72s-4.46-.86-2 12.9a143.85 143.85 0 0 1 2.36 24.92s-5.69-18.09-9.65-18.67-4 5.24-.69 10.35 9.77 14.26 10.78 18.93c0 0-6.31-13.64-12.19-9.57s4.92 12.4 9.75 15.43 8 21.61 8 21.61z" fill="#fff" opacity=".7"/><path d="m96.63 388.48h40.02l-3.24 28.64h-33.54z" fill="#f4511e"/><path d="m355.46 387.49a16.22 16.22 0 0 1 -3.84-.44 2.5 2.5 0 0 1 1.27-4.84c.07 0 5.3 1.3 7.85-1.75a7.62 7.62 0 0 0 1.83-6.37c-.69-3.35-4-6.59-9.46-9.38-10.49-5.32-8.63-11.3-7.81-13 1.72-3.57 6.28-5.62 9.38-4.2a2.5 2.5 0 1 1 -2.07 4.55 3.42 3.42 0 0 0 -2.87 2c-.68 1.73 1.48 4.11 5.63 6.22 7 3.55 11.08 7.87 12.09 12.84a12.53 12.53 0 0 1 -2.88 10.57 11.55 11.55 0 0 1 -9.12 3.8z" fill="#263238"/><path d="m355.46 387.49a16.22 16.22 0 0 1 -3.84-.44 2.5 2.5 0 0 1 1.27-4.84c.07 0 5.3 1.3 7.85-1.75a7.62 7.62 0 0 0 1.83-6.37c-.69-3.35-4-6.59-9.46-9.38-10.49-5.32-8.63-11.3-7.81-13 1.72-3.57 6.28-5.62 9.38-4.2a2.5 2.5 0 1 1 -2.07 4.55 3.42 3.42 0 0 0 -2.87 2c-.68 1.73 1.48 4.11 5.63 6.22 7 3.55 11.08 7.87 12.09 12.84a12.53 12.53 0 0 1 -2.88 10.57 11.55 11.55 0 0 1 -9.12 3.8z" fill="#fff" opacity=".2"/><path d="m324.52 391.15-.67-1.46c-2.28-.33-4.57-.73-6.85-1.1a182.27 182.27 0 0 0 6.52 26.25s-3.75-.14-2.48 2.28h5.88c.68-.82-5.92-15.12-2.4-25.97z" fill="#263238"/><path d="m336.54 391.36s2.73 8.27 8.09 13.68l-4.05 9.55s-3.25.74-2.59 2.53h4.54s6.27-10.49 6.54-11.62 1.45-12.73 1.45-12.73z" fill="#263238"/><path d="m324.52 391.15-.67-1.46c-2.28-.33-4.57-.73-6.85-1.1a182.27 182.27 0 0 0 6.52 26.25s-3.75-.14-2.48 2.28h5.88c.68-.82-5.92-15.12-2.4-25.97z" fill="#fff" opacity=".2"/><path d="m336.54 391.36s2.73 8.27 8.09 13.68l-4.05 9.55s-3.25.74-2.59 2.53h4.54s6.27-10.49 6.54-11.62 1.45-12.73 1.45-12.73z" fill="#fff" opacity=".2"/><path d="m356 384.12c-3.34-4.69-9.05-2.56-25.51-8.19s-9.89-23.21-9.89-23.21l-5.5 4.41-5.84-3.36a9.22 9.22 0 0 0 -2 8.31c1.19 5.15 5 13.19 5.41 19.14l-3.1 10.66s-10.48 2.2-11.41 4.42.66 5.79.66 5.79l2.91-.23-1.52-4c4.81-1.61 13-1.77 14.7-2.57a18.43 18.43 0 0 0 6.1-4.95c1.09.91 7.66 5.74 24.63 5.63 0 0 5.69 7.63 11.6 9.55l.94 9.22s-3.58.16-3.44 2.36h6.32l.62-13.06c-3.78-9.78-2.46-15.35-5.68-19.92z" fill="#263238"/><path d="m356 384.12c-3.34-4.69-9.05-2.56-25.51-8.19s-9.89-23.21-9.89-23.21l-5.5 4.41-5.84-3.36a9.22 9.22 0 0 0 -2 8.31c1.19 5.15 5 13.19 5.41 19.14l-3.1 10.66s-10.48 2.2-11.41 4.42.66 5.79.66 5.79l2.91-.23-1.52-4c4.81-1.61 13-1.77 14.7-2.57a18.43 18.43 0 0 0 6.1-4.95c1.09.91 7.66 5.74 24.63 5.63 0 0 5.69 7.63 11.6 9.55l.94 9.22s-3.58.16-3.44 2.36h6.32l.62-13.06c-3.78-9.78-2.46-15.35-5.68-19.92z" fill="#fff" opacity=".4"/><path d="m313.28 359.26c-.23.45-.6.73-.83.61s-.22-.58 0-1 .6-.73.83-.61.23.55 0 1z" fill="#263238"/><path d="m309.87 354s-.56-.5-.76-.5-.45 1-.45 1z" fill="#a24e3f"/><path d="m315.08 357.13a12.56 12.56 0 0 1 1.88 1.92l2.17-4.55z" opacity=".2"/><path d="m319 193.7s.28-3.27-.58-4.39-11-7.62-11.51-6.91-2.61 6-2.49 7.55 7.86 8.39 9 7.55 5.58-3.8 5.58-3.8z" fill="#b97964"/><path d="m366.83 179.11c-7.7.79-20.95 24.33-24.71 24.13s-25.32-12.06-25.32-12.06l-3.8 5.73s24 17.09 30.51 16.7 25.12-23.22 25.12-23.22z" fill="#b97964"/><path d="m376.57 367.89c6.38 8 12.11 15.3 17.11 20.6 5 5.37 7.58 8.7 7.58 8.7l4.94-2.84s-4.57-7.23-10.77-17.2c-5.27-8.46-11.72-18.9-17.58-28.57-7.58-12.5-14.17-23.71-15.91-27.72-1.24-2.85 2.12-13.8 5.83-24.12 3.77-10.51 7.91-20.38 7.91-20.38l-13.49-22.85s-5.49 15.21-10.37 31.26c-3.21 10.5-6.13 21.37-7.12 28.59-1.38 10.09 16.03 34.64 31.87 54.53z" fill="#b97964"/><path d="m376.52 367.89c6.38 8 12.51 15.3 17.07 20.6.65-3.26 1.31-7.12 1.83-11.33-5.27-8.46-11.72-18.9-17.58-28.57a110.64 110.64 0 0 1 -1.32 19.3z" opacity=".2"/><path d="m351.82 284.78 15.95 12c3.77-10.51 7.91-20.38 7.91-20.38l-13.49-22.85s-5.49 15.18-10.37 31.23z" opacity=".2"/><path d="m379.68 408.87 5.75.75s8.25-40.61 8-74.12a285.79 285.79 0 0 0 7.16-33.73c2-13.72 3-29 .34-40.4l-20 9-.41 30-.34 25z" fill="#b97964"/><path d="m380.52 300.37 20.07 1.4c2-13.72 3-29 .34-40.4l-20 9z" opacity=".2"/><path d="m405.87 391.21c-.59-.43-5.57 7-5.57 7s1.11 7.77-1.13 12.79 2.12 4.59 5.74-.17l9-11.75c2.56-3.34-1.91-3.43-8.04-7.87z" fill="#263238"/><path d="m398.46 403.89a1.05 1.05 0 0 1 -.92-1.18 3.66 3.66 0 0 1 1-1.73c-.75.35-1.51.57-1.9.3s-.34-.48-.24-.92a1.33 1.33 0 0 1 .67-.94c1.14-.66 3.24 0 3.35 0l.08.05v.06.07.09c-.14.65-.87 3.87-2 4.14zm1.54-3.6c-.79.67-1.9 1.75-2 2.48a.5.5 0 0 0 .1.4c.22.28.36.25.41.24.49-.13 1.13-1.73 1.49-3.12zm-1.57-.69a2.18 2.18 0 0 0 -1.08.23.92.92 0 0 0 -.45.63c0 .13-.06.36 0 .43.34.23 1.67-.36 2.87-1.11a6.08 6.08 0 0 0 -1.34-.18z" fill="#f4511e"/><path d="m387.47 406c0-.73-9-.16-9-.16s-5.5 5.6-10.85 6.86-2.36 4.47 3.62 4.47h14.79c4.27-.05 1.62-3.67 1.44-11.17z" fill="#263238"/><path d="m373.79 408.08a1.23 1.23 0 0 1 -.78-.21.83.83 0 0 1 -.22-.95.91.91 0 0 1 .48-.61 3.7 3.7 0 0 1 2-.22c-.72-.39-1.36-.86-1.39-1.33 0-.31.18-.56.59-.75a1.38 1.38 0 0 1 1.16 0c1.21.51 2 2.58 2 2.69a.15.15 0 0 1 0 .09.24.24 0 0 1 0 .08.21.21 0 0 1 0 .06.16.16 0 0 1 -.08.06 11.26 11.26 0 0 1 -3.76 1.09zm.77-1.56a2.28 2.28 0 0 0 -1.06.2.47.47 0 0 0 -.25.31c-.09.35 0 .44.06.47.42.35 2.06-.14 3.38-.7a10.42 10.42 0 0 0 -2.13-.28zm.52-2.19a1.07 1.07 0 0 0 -.41.1c-.12.06-.32.18-.32.3 0 .4 1.31 1.1 2.63 1.6a3.9 3.9 0 0 0 -1.53-1.92 1 1 0 0 0 -.37-.08z" fill="#f4511e"/><path d="m371.64 291.12-21.64-11.33c6.81-20.68 12.94-32.4 12.94-32.4 21.26 3.64 19.32 20.44 19.32 20.44s-5.41 11.22-10.62 23.29z" fill="#263238"/><path d="m373 287.93c-.46 1.05-.93 2.12-1.39 3.19l-21.61-11.33c6.8-20.68 12.93-32.4 12.93-32.4 13.12 2.25 17.4 9.51 18.76 14.74a17.25 17.25 0 0 1 .56 5.7s-4.47 9.32-9.25 20.1z" fill="#fff" opacity=".1"/><path d="m373 287.93c4.75-10.78 9.24-20.1 9.24-20.1a17.25 17.25 0 0 0 -.56-5.7 6.83 6.83 0 0 0 -2.21-.93s-5.75 9.07-6.47 26.73z" opacity=".2"/><path d="m378.34 295.79.74-34.59-17.14-5s1.35-15.87 3.35-23.69c0 0 27.85-6.93 32.09 2.51 0 0 0 .15.06.2l.07.08s8 14.08 5.61 60.5z" fill="#263238"/><path d="m378.34 295.79.74-34.59-17.14-5s1.35-15.87 3.35-23.69c0 0 27.85-6.93 32.09 2.51 0 0 0 .15.06.2l.07.08s8 14.08 5.61 60.5z" fill="#fff" opacity=".1"/><path d="m397.68 230.22v4.72l-32-2.47v-5.59z" fill="#263238"/><path d="m386.63 228.27h1.6v8.16h-1.6z" fill="#263238" transform="matrix(-.99869273 -.05111586 .05111586 -.99869273 762.51 484.16)"/><path d="m372.63 228.34h7.08v5.37h-7.08z" fill="#fff" transform="matrix(-.99600997 -.08924198 .08924198 -.99600997 730.22 494.68)"/><path d="m366.94 226.11h1.6v8.16h-1.6z" fill="#263238" transform="matrix(-1 -.05 .05 -1 723.27 478.81)"/><path d="m383.36 231.55h8.16v1.6h-8.16z" fill="#fff" opacity=".1" transform="matrix(.05111586 -.99869273 .99869273 .05111586 135.62 607.42)"/><path d="m363.66 229.38h8.16v1.6h-8.16z" fill="#fff" opacity=".1" transform="matrix(.05094156 -.99870164 .99870164 .05094156 119.11 585.71)"/><path d="m365.29 227.45 32.24 2.79c.77-12 1.53-19.72 8.63-41.08q.93-2.81 2-5.95a96.06 96.06 0 0 0 -13.36-3.21 103.67 103.67 0 0 0 -14.48-1.53c-6.28 0-13.48.66-13.48.66s-1 .25-1.67 6.89c-.6 6.23-1.17 18.72.12 41.43z" fill="#f4511e"/><path d="m408.17 183.21c-.73 2.09-1.4 4.08-2 5.95s-1.28 3.89-1.84 5.67c-1.32 4.2-2.36 7.82-3.19 11a115.88 115.88 0 0 0 -3.6 24.37l-32.24-2.79c-1.3-22.71-.72-35.2-.13-41.45.65-6.64 1.67-6.89 1.67-6.89s1.91-.19 4.63-.36c2.55-.17 5.81-.32 8.85-.3a103.35 103.35 0 0 1 14.47 1.59c2.77.46 5.52 1 8.23 1.74q2.6.66 5.15 1.47z" fill="#fff" opacity=".6"/><path d="m405.18 294.37-28.25-.25.5 4.25 26.5-.25z" fill="#f4511e"/><path d="m373.43 290.87-23.5-12.75-1.25 3.75 22.75 11.25z" fill="#f4511e"/><path d="m383 185.58c7.95-1 10.34-4.42 10.34-4.42-3.25-3.06-2.66-7.58-1.83-10.4a16.16 16.16 0 0 1 1-2.6l-9.62 1.84a27.54 27.54 0 0 1 .37 4 12.07 12.07 0 0 1 -.27 3c-.65 2.86-2.28 2.9-2.28 2.9-1.71 3.1 2.29 5.68 2.29 5.68z" fill="#b97964"/><path d="m383.26 174a12.07 12.07 0 0 1 -.27 3c3.8-.5 6.68-3.54 8.49-6.18a16.16 16.16 0 0 1 1-2.6l-9.59 1.78a27.54 27.54 0 0 1 .37 4z" opacity=".2"/><path d="m397.18 145.16s5.52-4.88 11-2.38 6 6.47 3.9 10.82-3.81 8.17-1.51 9.75 1.64 5.15-.6 6.2-3.7 2.39-1.19 3.51c0 0-.4.22-2.51-1.12s-.39-2.8.27-3.78-.53.24-2.51-2.62-.66-6 .4-9.29-6.25-2.85-6.25-2.85z" fill="#263238"/><path d="m393.16 141s-5.91-3.88-12-3.13-11.82 7.87-10.07 12.89 3.59 7.38 1.88 9.23-2.44 5.22-.13 6.68a2.49 2.49 0 0 1 0-3.32c1.45-1.78 6.88-.86 8.32-4.88s8.42-5.07 8.42-5.07l4.16 13.31s6.52-1.81 7.18-11.25-2.34-15.38-7.76-14.46z" fill="#263238"/><path d="m384.84 143.45c-8.32.31-10.83 4.87-11.12 13.47-.37 10.74 2.29 18.27 12.61 15.59 14.02-3.63 12.33-29.57-1.49-29.06z" fill="#b97964"/><path d="m379.08 156.25a17.68 17.68 0 0 1 -2.3 3.54 2.29 2.29 0 0 0 2.23.86z" fill="#a24e3f"/><g fill="#263238"><path d="m384.15 155.38c0 .69.38 1.24.84 1.23s.82-.57.81-1.25-.39-1.23-.85-1.23-.81.57-.8 1.25z"/><path d="m385.15 154.16-1.5-.56s.76 1.24 1.5.56z"/><path d="m375.64 155.36c0 .68.38 1.23.84 1.22s.82-.56.81-1.25-.39-1.23-.84-1.22-.82.56-.81 1.25z"/><path d="m376.64 154.14-1.5-.57s.76 1.24 1.5.57z"/></g><path d="m384 149.63a4.32 4.32 0 0 1 3.65 1.13" fill="none" stroke="#263238" stroke-linecap="round" stroke-linejoin="round" stroke-width=".707962"/><path d="m378 149.5a3.88 3.88 0 0 0 -3.29.81" fill="none" stroke="#263238" stroke-linecap="round" stroke-linejoin="round" stroke-width=".707962"/><path d="m380.35 163.88a21.13 21.13 0 0 1 1.08 2.86l.53-.07c2.41-.34 3.42-1.29 3.81-2.25a3.13 3.13 0 0 0 .23-1.42 3 3 0 0 0 -.18-.83 11.54 11.54 0 0 1 -4.6 1.63c-.55.05-.87.08-.87.08z" fill="#263238"/><path d="m381.17 163.75.34.84c2.27-.32 3.83-.85 4.44-1.64a3 3 0 0 0 -.18-.83 11.54 11.54 0 0 1 -4.6 1.63z" fill="#fff"/><path d="m382 166.67c2.41-.34 3.42-1.29 3.81-2.25a8 8 0 0 0 -2.61.91 3 3 0 0 0 -1.2 1.34z" fill="#de5753"/><path d="m394.46 157.14s-4.15-6.69-3.75-12c0 0-16.74-6.13-16.94 10.64 0 0-2.16-14.8 12.13-15.66s15 20.07 7.85 26.58c0 .01 3.25-5.37.71-9.56z" fill="#263238"/><path d="m393.16 159a3.66 3.66 0 0 1 3.81-3.48c2.59.18 4 5.43-2.35 6.94-.92.17-1.47-.71-1.46-3.46z" fill="#b97964"/><path d="m390.71 145.15a10.21 10.21 0 0 0 -1.25 4.71c0 2.61 3.64 7.62 3.7 9.09s-1 4 .15 5.47a3.51 3.51 0 0 1 1.29-3.73c2-1.36 3.78-5.52 1.56-8.45s-.1-6.73-.1-6.73-3.06-3.51-5.35-.36z" fill="#263238"/><path d="m408.17 183.21c9.94 8.46-13.64 32.41-25 38s-50.73 12.35-50.73 12.35l-.79-6.68s41-9.51 46.29-14.74 28.27-30.6 30.23-28.93z" fill="#b97964"/><path d="m331.64 226.88s-2.77-1.77-4.16-1.53-11.86 6.23-11.47 7 4.15 5.11 5.54 5.71 11.08-3.08 10.88-4.5-.79-6.68-.79-6.68z" fill="#b97964"/><path d="m403 181.72c-3.31 3.42-10.56 8.24-21.34 7.41-9.55-.73-10.35-7.65-10.22-10.38 2.55-.17 5.81-.32 8.85-.3a103.35 103.35 0 0 1 14.5 1.55c2.77.44 5.52 1 8.21 1.72z" fill="#b97964"/><path d="m195.57 409.44 8.37.88 1.57-18.05-8.37-.88z" fill="#ebb376"/><path d="m153.82 408.83h8.11l.67-18.78h-8.12z" fill="#ebb376"/><path d="m163.05 407.89h-9.85a.71.71 0 0 0 -.69.56l-1.6 7.22a1.19 1.19 0 0 0 .92 1.41 1.24 1.24 0 0 0 .27 0c3.18-.05 5.5-.25 9.51-.25 2.46 0 9.9.26 13.3.26s3.85-3.36 2.46-3.67c-6.25-1.36-11-3.25-13-5.05a2 2 0 0 0 -1.32-.48z" fill="#263238"/><path d="m163.61 409a.19.19 0 0 1 -.15-.16.2.2 0 0 1 .09-.19c.29-.18 2.91-1.79 3.81-1.33a.57.57 0 0 1 .33.54 1.15 1.15 0 0 1 -.4 1 2.41 2.41 0 0 1 -1.56.41 9.43 9.43 0 0 1 -2.12-.27zm.55-.26a4 4 0 0 0 2.89-.15.78.78 0 0 0 .26-.69c0-.16-.07-.23-.12-.23a.45.45 0 0 0 -.25-.05 7.82 7.82 0 0 0 -2.78 1.13z" fill="#f4511e"/><path d="m163.55 409.05a.21.21 0 0 1 -.09-.17c0-.11.21-2.45 1.15-3.21a1.08 1.08 0 0 1 .81-.25.63.63 0 0 1 .62.51c.17.86-1.45 2.64-2.29 3.09h-.09a.14.14 0 0 1 -.11.03zm1.3-3.15a4.5 4.5 0 0 0 -.95 2.54c.83-.63 1.86-2 1.76-2.51 0-.05 0-.2-.28-.2h-.09a.66.66 0 0 0 -.44.17z" fill="#f4511e"/><path d="m204.82 407.63h-9.82a.71.71 0 0 0 -.69.56l-1.6 7.22a1.21 1.21 0 0 0 .93 1.42h.26c3.19-.05 5.51-.25 9.51-.25 2.46 0 9.9.26 13.3.26s3.85-3.36 2.46-3.67c-6.25-1.36-11-3.25-13-5a2 2 0 0 0 -1.35-.54z" fill="#263238"/><path d="m205.38 408.76a.2.2 0 0 1 -.15-.17.2.2 0 0 1 .1-.19c.29-.18 2.91-1.79 3.8-1.33a.57.57 0 0 1 .33.54 1.1 1.1 0 0 1 -.4 1 2.39 2.39 0 0 1 -1.56.41 10.11 10.11 0 0 1 -2.12-.26zm.56-.27a3.88 3.88 0 0 0 2.88-.15.78.78 0 0 0 .26-.69c0-.15-.07-.23-.12-.23a.53.53 0 0 0 -.25-.05 7.7 7.7 0 0 0 -2.77 1.12z" fill="#f4511e"/><path d="m205.33 408.8a.22.22 0 0 1 -.1-.18c0-.11.21-2.44 1.15-3.21a1 1 0 0 1 .81-.24.62.62 0 0 1 .62.5c.17.86-1.45 2.64-2.29 3.1h-.09a.19.19 0 0 1 -.1.03zm1.3-3.16a4.52 4.52 0 0 0 -1 2.54c.83-.63 1.86-2 1.76-2.51 0-.05 0-.19-.28-.19h-.09a.67.67 0 0 0 -.39.16z" fill="#f4511e"/><path d="m197.14 391.39 8.37.88-.82 9.31-8.37-.88z" opacity=".2"/><path d="m154.48 390.06h8.12l-.35 9.68h-8.12z" opacity=".2"/><path d="m157.83 225.3h43c4.09 22.34 16.9 101.41 7.71 171.86l-14.54-1.8s1.35-93.53-11.51-128.11c-1.48 18.51-3.24 38.2-4.76 48.67-3.73 25.79-11.73 82.14-11.73 82.14h-14.86s3-53.94 4.43-79.28c1.53-27.51 2.2-87.78 2.26-93.48z" fill="#263238"/><path d="m157.83 225.3h43c4.09 22.34 16.9 101.41 7.71 171.86l-14.54-1.8s1.35-93.53-11.51-128.11c-1.48 18.51-3.24 38.2-4.76 48.67-3.73 25.79-11.73 82.14-11.73 82.14h-14.86s3-53.94 4.43-79.28c1.53-27.51 2.2-87.78 2.26-93.48z" fill="#fff" opacity=".2"/><path d="m202.7 156.64s26 24.53 38 28.63 42.85 19.29 42.85 19.29l4.73-3.73c0-.21 3.45 2.46 3.49 4.31 0 1.34-3.39 12.57-4.1 12.56-3.3 0-6.95-7.56-6.95-7.56s-39.5-10.29-46.59-13.39-36.25-25.86-36.25-25.86z" fill="#ebb376"/><path d="m196.93 150.75c5.94-.18 37.27 27.32 39.7 30.09s26.77 11.07 29.53 15.23-1.38 9.07-8.11 9.67-53.13-20.23-60.19-30.38-.93-24.61-.93-24.61z" fill="#f4511e"/><path d="m196.93 150.75c5.94-.18 37.27 27.32 39.7 30.09s26.77 11.07 29.53 15.23-1.38 9.07-8.11 9.67-53.13-20.23-60.19-30.38-.93-24.61-.93-24.61z" opacity=".2"/><path d="m212.2 173.21 3.43 69.68h46.58l35.6-8.52v-65.5l-49.81-.28z" fill="#f4511e"/><path d="m212.2 173.21 3.43 69.68h46.58l35.6-8.52v-65.5l-49.81-.28z" fill="#fff" opacity=".6"/><path d="m212.2 173.21 47.24 1.59 2.77 68.09h-46.58z" fill="#fff" opacity=".2"/><path d="m259.44 174.8 38.37-5.93-49.81-.28-35.8 4.62z" fill="#fff" opacity=".4"/><path d="m229.85 173.8 6.05-.94 7.52.35-6.79.82v3.83l-6.47-.45z" opacity=".2"/><path d="m265.51 168.69-1.98.41h6.72l2.44-.37z" opacity=".2"/><path d="m262.21 180.44.53 6.73 12.79-2.18v-6.62z" opacity=".2"/><path d="m282.25 227.85v8.17l13.98-3.29v-7.43z" opacity=".2"/><path d="m246.52 225.3s1.32 4.09 3.82 5.36v7.08l-1.91 2h6.57l-3.48-2.24-.13-6.81a7 7 0 0 0 3.61-5.39h-3.6l-.64 2.15 1.16.13-1.16 2.42v-1.24h-.95l.95-3.42z" opacity=".2"/><path d="m182.49 267.26a115 115 0 0 1 4.81 18.61c1.2-16.46-3.61-33.93-3.61-33.93z" opacity=".2"/><path d="m196.93 150.75s-27.37-1.33-47.77 3.82c0 0 6.22 55.68 6.61 83.74a4.5 4.5 0 0 0 4.66 4.42l41.09-1.43a4.5 4.5 0 0 0 4.34-4.68c-.6-15.01-2.96-63.53-8.93-85.87z" fill="#f4511e"/><path d="m156.91 241.22v4.69l48.25-2.34-.37-3.85z" fill="#263238"/><path d="m179.63 162s9.2 41.34 7.86 79.75" fill="none" stroke="#263238" stroke-miterlimit="10"/><path d="m148.41 177.15s8.55 23.59 11.08 28.54 52.33 9.83 52.33 9.83 11 7.12 13 6.79 6.58-9.67 4.58-10.67-8.08-7.88-11.37-7.77-6.17 3.77-6.17 3.77-41-11.75-43.21-12.62c-1.58-.63-8.06-23.47-8.06-23.47z" fill="#ebb376"/><path d="m149.17 154.57c-6.77.17-9.26 11.13-.76 35.49 5.46 15.68 18.56 24 39.08 27.64s20.9-8.18 16.62-12.27-27.81-10.15-31.6-13.58-9.13-37.63-23.34-37.28z" fill="#f4511e"/><path d="m204.11 205.43-1.28 11.12 3.45 1.15 1.2-12.27z" fill="#263238"/><path d="m149.17 154.57c-6.77.17-9.26 11.13-.76 35.49 5.46 15.68 18.56 24 39.08 27.64s20.9-8.18 16.62-12.27-27.81-10.15-31.6-13.58-9.13-37.63-23.34-37.28z" opacity=".2"/><path d="m164.72 150.75s13.62 12.64 15.92 11.29 3-10.48 3-10.48z" fill="#fff"/><path d="m164.73 151.81c4 3.59 13.63 2.26 13.63 2.26s6-1.65 4.77-3.54c-3.56-.59-5.28-2.25-6-4.37a10.29 10.29 0 0 1 -.36-4.07 19.89 19.89 0 0 1 .3-2.27l-12-8.86c1.61 5.85 3.53 16.61-.34 20.85z" fill="#ebb376"/><path d="m167.88 136.6c.47 7.17 6.37 9.15 9.26 9.56a10.29 10.29 0 0 1 -.36-4.07z" opacity=".2"/><path d="m188.6 114.45s1.8 8.21.35 14.1-3.18 6.5-5 6.89-1.76-20.28-1.76-20.28z" fill="#f4511e"/><path d="m186.91 115.61s2.77 8.1 1.32 14-3.18 6.5-5.06 6.89-1.75-20.28-1.75-20.28z" opacity=".5"/><path d="m185.93 111.75s3.51 10.75-1.64 16-8.55-15.31-8.55-15.31z" fill="#263238"/><path d="m168.77 139.3a10.15 10.15 0 0 0 12.13 2 11.28 11.28 0 0 0 5.5-6.24c.13-.36.25-.75.35-1.14 1.76-7.22.71-19.15-7.14-22.38a11 11 0 0 0 -15.21 10.92c.44 7.98.31 12.72 4.37 16.84z" fill="#ebb376"/><path d="m176.58 124.72c-.05.65.34 1.19.77 1.19s.78-.54.78-1.19-.34-1.18-.77-1.18-.77.52-.78 1.18z" fill="#263238"/><path d="m184 124.75c0 .65.35 1.19.77 1.19s.78-.53.79-1.18-.35-1.19-.78-1.19-.78.56-.78 1.18z" fill="#263238"/><path d="m181.62 125.07a23.39 23.39 0 0 0 3.1 5.6 3.77 3.77 0 0 1 -3.14.58z" fill="#d58745"/><g fill="#263238"><path d="m174.3 122.32a.41.41 0 0 0 .37-.15 3.09 3.09 0 0 1 2.46-1.27.39.39 0 0 0 .41-.36.38.38 0 0 0 -.35-.41 3.84 3.84 0 0 0 -3.13 1.57.39.39 0 0 0 .06.54.53.53 0 0 0 .18.08z"/><path d="m187.16 122.22a.44.44 0 0 0 .23 0 .38.38 0 0 0 .18-.51 3.8 3.8 0 0 0 -2.75-2.17.38.38 0 0 0 -.43.33.39.39 0 0 0 .33.43 3.09 3.09 0 0 1 2.15 1.75.43.43 0 0 0 .29.17z"/><path d="m169.51 134.41a9.69 9.69 0 0 0 6.62 6.82c4.46 1.22 6.53-1.08 6.53-1.08a7.68 7.68 0 0 1 -9 1.49 15.53 15.53 0 0 1 -6.29-5.87z"/><path d="m170.34 112.43.58 3.52a2.65 2.65 0 0 0 -1.18 3.38c1.27 2.92-.22 7.61-2.42 9.55 0 0-.12-1.29-1.2-.94s-.48 7.06 1.78 10.16c0 0-3.34-2.75-5.45-9.72-2-6.44-2.4-11.86-1.18-14.44z"/></g><path d="m160.86 129a7.68 7.68 0 0 0 4.37 3.89c2.53.86 4-1.38 3.38-3.85-.53-2.2-2.48-5.36-5.09-5.13s-3.71 2.84-2.66 5.09z" fill="#ebb376"/><path d="m188.86 116.06s-16.54-.53-17.47 2.7-.06 9.87.17 14.48c.16 3.16-2.42 4.71-4.92 4.86a5.34 5.34 0 0 1 -.8 0 5.16 5.16 0 0 1 -2.32-.65c-3-1.8-6.58-4.59-8.61-12.78-2.65-10.69 2.43-22.22 17.72-22.36s16.23 13.75 16.23 13.75z" fill="#f4511e"/><path d="m187.91 116.25s-15.59-.72-16.52 2.51-.06 9.87.17 14.48c.16 3.16-2.42 4.71-4.92 4.86 1.05-.18 2.15-1 2.24-3 .11-2.51-1.57-13.55 0-15.67s6.89-3.79 12.36-4.21 6.67 1.03 6.67 1.03z" opacity=".5"/><path d="m167 115.67s-1.62 2.08-.83 3.35 25.61-.81 25.91-1.43-2.79-1.71-3.25-2-.59-3-1.49-3.26-13.34-1.12-20.34 3.34z" fill="#263238"/><path d="m169 117a.64.64 0 0 1 -.53.74.64.64 0 1 1 -.21-1.27.64.64 0 0 1 .74.53z" fill="#f4511e"/><path d="m182 132.77a21.33 21.33 0 0 0 -.84 3h-.55c-2.49-.12-3.61-1-4.09-1.93a3.31 3.31 0 0 1 -.33-1.49 3 3 0 0 1 .12-.86 11.68 11.68 0 0 0 4.84 1.23c.49.04.85.05.85.05z" fill="#263238"/><path d="m181.12 132.71-.27.89c-2.35-.12-4-.51-4.69-1.26a3 3 0 0 1 .12-.86 11.68 11.68 0 0 0 4.84 1.23z" fill="#fff"/><path d="m180.58 135.76c-2.49-.12-3.61-1-4.09-1.93a8 8 0 0 1 2.74.67 2.92 2.92 0 0 1 1.35 1.26z" fill="#de5753"/><path d="m162.19 152.17 1.32-4.57s13.85 5.15 16.12 14.44c0 0-1-11.27 2.43-14.44l2.36 3s.3 11.25-3.78 12.63-18.45-11.06-18.45-11.06z" fill="#f4511e"/><path d="m162.19 152.17 1.32-4.57s13.85 5.15 16.12 14.44c0 0-1-11.27 2.43-14.44l2.36 3s.3 11.25-3.78 12.63-18.45-11.06-18.45-11.06z" opacity=".2"/><path d="m210.24 400.56-18.03-2.68.55-5 18.75 2.46z" fill="#f4511e"/><path d="m210.24 400.56-18.03-2.68.55-5 18.75 2.46z" fill="#fff" opacity=".6"/><path d="m167.75 398.18h-17.49v-5.23l18.15-.34z" fill="#f4511e"/><path d="m167.75 398.18h-17.49v-5.23l18.15-.34z" fill="#fff" opacity=".6"/></svg>