<svg viewBox="0 0 500 500" xmlns="http://www.w3.org/2000/svg"><path d="m370.8 199.88c27.42 65.79-95.41 112.53-164.17 110.45-87-2.63-140.63-43.7-147.63-115.72-6.94-71.37 68.6-121.46 132.54-98.43 31.51 11.35 56.44 35.65 87.95 47.62 37.41 14.2 74.18 14.97 91.31 56.08z" fill="#f4511e"/><path d="m370.8 199.88c27.42 65.79-95.41 112.53-164.17 110.45-87-2.63-140.63-43.7-147.63-115.72-6.94-71.37 68.6-121.46 132.54-98.43 31.51 11.35 56.44 35.65 87.95 47.62 37.41 14.2 74.18 14.97 91.31 56.08z" fill="#fff" opacity=".9"/><ellipse cx="250" cy="416.24" fill="#f5f5f5" rx="193.89" ry="11.32"/><path d="m398.05 416.24h-116.8a11.72 11.72 0 0 1 -11.81-12.64l16.3-247.07a13.74 13.74 0 0 1 13.47-12.64h116.79a11.72 11.72 0 0 1 11.8 12.64l-16.28 247.07a13.74 13.74 0 0 1 -13.47 12.64z" fill="#263238"/><path d="m422.64 210.33h-14.14a2.83 2.83 0 0 1 -2.85-3.05l1.41-21.4a3.32 3.32 0 0 1 3.26-3h14.13a2.83 2.83 0 0 1 2.85 3l-1.41 21.4a3.31 3.31 0 0 1 -3.25 3.05z" fill="#263238"/><path d="m324.61 140.39h5.17v1h-5.17z" fill="#f4511e"/><path d="m299.44 140.39h18.8v1h-18.8z" fill="#f4511e"/><path d="m396.27 416.24h-116.8a11.73 11.73 0 0 1 -11.81-12.64l16.34-247.07a13.74 13.74 0 0 1 13.47-12.64h116.8a11.72 11.72 0 0 1 11.73 12.64l-16.26 247.07a13.74 13.74 0 0 1 -13.47 12.64z" fill="#f4511e"/><path d="m401.57 387.46h-123.57a6.66 6.66 0 0 1 -6.71-7.18l14.19-215.1a7.8 7.8 0 0 1 7.62-7.18h123.6a6.66 6.66 0 0 1 6.71 7.18l-14.19 215.1a7.8 7.8 0 0 1 -7.65 7.18z" fill="#fff"/><path d="m378.52 158h-24.54l-59.45 229.46h24.54z" fill="#fafafa"/><path d="m400.14 158h-12.27l-59.45 229.46h12.27z" fill="#fafafa"/><path d="m383.84 316.36-26.68-100.91a10.49 10.49 0 0 0 -12.8-7.45l-63.12 16.68-8.42 131.86 103.57-27.37a10.51 10.51 0 0 0 7.45-12.81z" fill="#f0f0f0"/><ellipse cx="339" cy="399.08" fill="#fff" opacity=".2" rx="8.08" ry="7.56" transform="matrix(.71873332 -.69528585 .69528585 .71873332 -182.13 347.98)"/><path d="m358.63 150.54a3.51 3.51 0 0 1 -3.45 3.23 3 3 0 0 1 -3-3.23 3.5 3.5 0 0 1 3.45-3.23 3 3 0 0 1 3 3.23z" fill="#fff" opacity=".2"/><path d="m357.17 150.54a1.92 1.92 0 0 1 -1.89 1.78 1.64 1.64 0 0 1 -1.66-1.78 1.92 1.92 0 0 1 1.89-1.78 1.64 1.64 0 0 1 1.66 1.78z" fill="#fff" opacity=".2"/><path d="m169.32 138.06c3.73-9.17 2.39-20.34-8.19-22.84a15.41 15.41 0 0 0 -19.24 15.59c.42 10 7 18.33-4.53 25.58s-10.3 29.1 12 24.88 10.25-15.69 10.25-15.69-5.47 4.46-7.23-.08c-2.23-5.88 12.62-16.71 16.94-27.44z" fill="#263238"/><path d="m130.08 168.14-.49-.11c1.49-6.67 3.83-8.39 6.3-10.21s4.81-3.55 6.7-10.11c.89-3.09.33-6.51-.22-9.81-.7-4.21-1.42-8.57.75-12.47l.43.25c-2.08 3.74-1.37 8-.69 12.14.56 3.36 1.14 6.83.21 10-1.93 6.72-4.45 8.57-6.88 10.37s-4.66 3.47-6.11 9.95z" fill="#263238"/><path d="m197.72 188.43c.07.34.19.85.3 1.31l.35 1.41c.24.95.51 1.9.79 2.85.57 1.89 1.18 3.8 1.84 5.68a120 120 0 0 0 4.52 11.13l1.26 2.63a4 4 0 0 0 .89 1.25 8.24 8.24 0 0 0 3.89 1.72 35.37 35.37 0 0 0 11.29 0l1.35 4.25a31.84 31.84 0 0 1 -3.17 1.2 32.7 32.7 0 0 1 -3.26.9 26.35 26.35 0 0 1 -7 .65 14.88 14.88 0 0 1 -7.77-2.45 11.32 11.32 0 0 1 -3.22-3.42l-.16-.25-.1-.17-.2-.36-.41-.7-.81-1.42a98.41 98.41 0 0 1 -5.5-11.82c-.76-2-1.51-4.09-2.12-6.2-.3-1-.6-2.11-.87-3.19s-.51-2.1-.73-3.38z" fill="#ffc3bd"/><path d="m190 174.45c10.09 4.5 10 19.62 10 19.62l-10.63 6.39s-8-11.84-7.4-17.22c.59-5.61 2.31-11.32 8.03-8.79z" fill="#f4511e"/><path d="m191.59 187.35c-2.76-2.79-5.19.43-7.41 4a77.84 77.84 0 0 0 5.19 9.13l4.36-2.62c.86-3.33.61-7.71-2.14-10.51z" opacity=".2"/><g fill="#ffc3bd"><path d="m221.8 216.79 7.1-3.54.08 9.29s-5.3.92-8.83-2.8z"/><path d="m236.53 214.9-1.22 6.9-6.33.74-.08-9.29z"/><path d="m156.81 408.86 8.78.84 4.09-20.43-8.78-.84z"/><path d="m99.24 384.91 7.14 5.2 11.91-16.9-7.15-5.2z"/></g><path d="m109 386.86-5.88-8.05a.7.7 0 0 0 -.91-.22l-7.05 3.74a1.43 1.43 0 0 0 -.43 2.09c2.1 2.77 3.25 4 5.84 7.55 1.6 2.18 4.8 7.23 7 10.24s5.29 1 4.65-.45c-2.9-6.51-3-10.32-2.78-13.37a2.28 2.28 0 0 0 -.44-1.53z" fill="#263238"/><path d="m166.75 407.05h-10.54a.86.86 0 0 0 -.83.64l-2.29 8.31a1.31 1.31 0 0 0 1.28 1.67h10.11 14.17c3.85 0 4.65-3.89 3.06-4.25-7.14-1.58-11.26-3.76-13.47-5.84a2.16 2.16 0 0 0 -1.49-.53z" fill="#263238"/><path d="m169.68 389.28-2.11 10.53h-8.95l2.28-11.37z" opacity=".2"/><path d="m111.14 368.01 7.15 5.21-6.14 8.71-7.15-5.21z" opacity=".2"/><path d="m194.16 182.42c-.62 6.75-2.86 20-9.41 45.89l-35.94-3.11c1.73-13.49 2.54-22.23-.84-47.77a6.21 6.21 0 0 1 5.78-7c2.59-.14 5.67-.23 8.76-.11a115.11 115.11 0 0 1 16.32 1.41c3.17.57 6.55 1.39 9.3 2.11a8.12 8.12 0 0 1 6.03 8.58z" fill="#f4511e"/><path d="m148.89 184.91c.46 4 .8 7.57 1 10.77 3.31-.29 5.75-3.92 6-11.51-1.24-3.67-4.19-2.34-7 .74z" opacity=".2"/><path d="m184.75 228.31s12.16 53.8 4 91.73c-5.43 25.4-17.52 76.71-17.52 76.71l-15.33-.39s7.32-53.85 10.39-75c5.25-36.22-7.9-95.29-7.9-95.29z" fill="#263238"/><path d="m170.73 239.18-7.67 12.09a370.91 370.91 0 0 1 4.39 43.3c10.78-19.3 5.67-45.18 3.28-55.39z" opacity=".2"/><path d="m173.43 397.55-18.94-.48 1.1-5.82 19.32.91z" fill="#f4511e"/><path d="m176.89 227.74s-7.13 57.05-22.6 88.2c-12.49 25.16-38.62 65.15-38.62 65.15l-9.55-7.65s16.34-44.23 25.62-60.94c22.77-41 4.16-72.25 17.07-87.3z" fill="#263238"/><rect fill="#f4511e" height="125.33" rx="10.48" transform="matrix(.92193077 -.38735469 .38735469 .92193077 -84.01 124.04)" width="205.33" x="163.06" y="207.79"/><rect height="125.33" opacity=".1" rx="10.48" transform="matrix(.92193077 -.38735469 .38735469 .92193077 -84.01 124.04)" width="205.33" x="163.06" y="207.79"/><g fill="#fff"><rect height="28.19" opacity=".2" rx="5.04" transform="matrix(.92193077 -.38735469 .38735469 .92193077 -87.29 95.05)" width="46.18" x="169.08" y="250"/><rect height="10.17" opacity=".4" rx="1.89" transform="matrix(.92193077 -.38735469 .38735469 .92193077 -108.01 107.37)" width="39.15" x="192.8" y="316.56"/><rect height="10.17" opacity=".4" rx="1.89" transform="matrix(.92193077 -.38735469 .38735469 .92193077 -97.79 122.41)" width="39.15" x="235.22" y="298.74"/><rect height="10.17" opacity=".4" rx="1.89" transform="matrix(.92193077 -.38735469 .38735469 .92193077 -87.58 137.45)" width="39.15" x="277.64" y="280.92"/><rect height="10.17" opacity=".4" rx="1.89" transform="matrix(.92193077 -.38735469 .38735469 .92193077 -77.36 152.49)" width="39.15" x="320.06" y="263.1"/></g><g opacity=".6"><circle cx="321.24" cy="209.87" fill="#263238" r="14.1" transform="matrix(.97329919 -.22954015 .22954015 .97329919 -39.6 79.36)"/><circle cx="304.15" cy="217.06" fill="#fff" r="14.1" transform="matrix(.59986179 -.80010364 .80010364 .59986179 -51.97 330.18)"/></g><path d="m116.67 382.15-12.25-9.27 3.01-5.38 13.02 10.1z" fill="#f4511e"/><path d="m148.45 223.05-1.9 3.08c-.15.23.13.52.54.55l37.7 3.26c.32 0 .6-.11.64-.31l.6-3.19c.05-.22-.22-.43-.57-.46l-36.4-3.15a.67.67 0 0 0 -.61.22z" fill="#f4511e"/><path d="m148.45 223.05-1.9 3.08c-.15.23.13.52.54.55l37.7 3.26c.32 0 .6-.11.64-.31l.6-3.19c.05-.22-.22-.43-.57-.46l-36.4-3.15a.67.67 0 0 0 -.61.22z" opacity=".5"/><g fill="#f4511e"><path d="m153 227.54-1-.08c-.19 0-.33-.13-.31-.25l.82-4.14c0-.13.2-.21.4-.19l1 .08c.2 0 .34.13.31.25l-.82 4.14c-.04.12-.22.21-.4.19z"/><path d="m182 230.05-1-.08c-.19 0-.33-.13-.31-.25l.82-4.14a.36.36 0 0 1 .4-.19l1 .08c.2 0 .34.13.31.25l-.82 4.14c-.01.14-.19.21-.4.19z"/><path d="m167.5 228.8-1-.09c-.2 0-.34-.13-.31-.25l.82-4.14c0-.12.2-.21.39-.19l1 .09c.19 0 .33.13.31.25l-.82 4.14c-.02.12-.19.2-.39.19z"/><path d="m111.24 391.31a1 1 0 0 1 -.34 0c-1.09-.22-2-2.07-2.48-3.15a.17.17 0 0 1 0-.19.15.15 0 0 1 .18 0c.34.12 3.32 1.27 3.55 2.36a.65.65 0 0 1 -.22.65 1.23 1.23 0 0 1 -.69.33zm-2.33-2.92c.68 1.49 1.44 2.44 2.06 2.56a.84.84 0 0 0 .76-.28.32.32 0 0 0 .12-.33c-.14-.67-1.91-1.53-2.94-1.95z"/><path d="m111.33 388.53a6.24 6.24 0 0 1 -2.82-.3.17.17 0 0 1 -.1-.14.17.17 0 0 1 .07-.16c.09-.06 2.15-1.56 3.39-1.28a1.06 1.06 0 0 1 .73.53.71.71 0 0 1 0 .88 2 2 0 0 1 -1.27.47zm-2.33-.53c1 .29 2.87.31 3.33-.2.08-.08.15-.21 0-.47a.7.7 0 0 0 -.49-.36c-.84-.17-2.28.66-2.84 1.03z"/><path d="m171.43 408.75a14.68 14.68 0 0 1 -2.88-.36.18.18 0 0 1 0-.33c.44-.21 4.26-2 5.22-1.32a.55.55 0 0 1 .25.54 1.25 1.25 0 0 1 -.52 1 3.4 3.4 0 0 1 -2.07.47zm-2.28-.6c1.14.21 3.24.49 4.1-.16a1 1 0 0 0 .38-.73c0-.14 0-.2-.09-.23-.54-.37-2.8.42-4.39 1.12z"/><path d="m168.59 408.39a.15.15 0 0 1 -.11 0 .16.16 0 0 1 -.06-.17c0-.17.9-3.94 3-3.7.52.07.66.32.69.53.13 1-2.28 2.9-3.44 3.37zm2.62-3.57c-1.33 0-2.1 2.2-2.36 3.08 1.25-.66 3-2.23 2.89-2.84 0-.05 0-.19-.39-.23z"/></g><path d="m152.79 185.09-.53.75-.58.85c-.39.58-.78 1.17-1.15 1.78-.76 1.2-1.45 2.45-2.15 3.7a65.66 65.66 0 0 0 -3.64 7.79 66.7 66.7 0 0 0 -2.63 8.15l-.47 2c0-.06-.06.15.05.53a11.25 11.25 0 0 0 1.49 3 49 49 0 0 0 5.42 6.51c2 2.12 4.22 4.17 6.43 6.21s4.53 4 6.85 5.93 4.69 3.88 7 5.76l-2.5 3.69a164.4 164.4 0 0 1 -15.49-10.42c-2.5-1.88-4.95-3.86-7.32-6a50.94 50.94 0 0 1 -6.77-7.21 17.7 17.7 0 0 1 -2.8-5.11 9.17 9.17 0 0 1 -.43-4v-.28-.15l.05-.3.1-.61.21-1.21a65.52 65.52 0 0 1 2.48-9.49 75 75 0 0 1 3.89-9c.75-1.46 1.57-2.87 2.45-4.26.43-.7.88-1.39 1.35-2.08l.74-1c.26-.35.48-.66.83-1.09z" fill="#ffc3bd"/><path d="m151.9 171c-6.86 1.8-13.48 18.43-13.48 18.43l8.88 8.12s13.95-12.72 13.48-18.46c-.39-4.88-3.37-9.55-8.88-8.09z" fill="#f4511e"/><path d="m162.51 170a17.46 17.46 0 0 1 -3.82.35c-.27 4.94 2.9 9.71 10.69 16.11 1.87-5.83 6-7.09 6-7.09z" opacity=".2"/><path d="m178.83 171.57s.91.13 3.08.63c1.45 2.23 3.33 9.1-.94 14-1.66-6-5.62-6.76-5.62-6.76z" opacity=".2"/><path d="m162.51 170s-2 0-4.44 0c-1.45 2.23 3.54 8.41 11.32 14.81 1.87-5.83 6-5.48 6-5.48z" fill="#fff"/><path d="m178.83 171.57s.91.13 3.08.63c1.45 2.23 4.58 8.27.31 13.13-1.66-6-6.87-5.92-6.87-5.92z" fill="#fff"/><path d="m165.72 152.05c.58 5.34.77 15-3.21 18.24 0 0 2.07 6 12.84 9.12 6.48-3.74 3.48-7.71 3.48-7.71-5.73-1.9-5.2-6.23-3.83-10.23z" fill="#ffc3bd"/><path d="m169.5 155.9 5.5 5.57a16.7 16.7 0 0 0 -.76 2.85c-2.21-.51-5.41-2.81-5.44-5.17a9.51 9.51 0 0 1 .7-3.25z" opacity=".2"/><path d="m177.88 130.71c1.75-1.93 5.22.53 6.5 5.26 1.92 7-3.2 7.5-5.88 4s-2.08-7.65-.62-9.26z" fill="#263238"/><path d="m183.3 143a19.51 19.51 0 0 1 4.93 2.54c-.87-2.12-1.65-3.41-4.93-2.54z" fill="#263238"/><path d="m184.31 143.33a15.39 15.39 0 0 1 4.32-.24c-1.42-1.09-2.45-1.63-4.32.24z" fill="#263238"/><path d="m161 143.71c2.23 8.53 3 12.19 8.22 15.76 7.87 5.38 17.86.78 18.23-8.25.33-8.12-3.37-20.7-12.5-22.48a12 12 0 0 0 -13.95 14.97z" fill="#ffc3bd"/><path d="m165.12 132.46-2.47 2.87a4.28 4.28 0 0 1 -6 .44 4.28 4.28 0 0 1 -.45-6l2.47-2.86a4.29 4.29 0 0 1 6-.45 4.29 4.29 0 0 1 .45 6z" fill="#fff"/><path d="m167.4 135.66-3 1.5a5.19 5.19 0 0 1 -6.93-2.35 5.2 5.2 0 0 1 2.35-6.94l3-1.5a5.2 5.2 0 0 1 6.94 2.36 5.19 5.19 0 0 1 -2.36 6.93z" fill="#f4511e"/><path d="m163.56 150.09s6.16-1.41 3.54-10.42a2.36 2.36 0 0 1 2.22-3c6.94-.19 13.43-1.64 12.51-5.66-1.15-5.08-18.44-9-21.58 1.17-6.13 1.43-6.36 13.51 3.31 17.91z" fill="#263238"/><path d="m163.59 148.31a19.51 19.51 0 0 1 4.93 2.54c-.87-2.1-1.65-3.39-4.93-2.54z" fill="#263238"/><path d="m164.6 148.66a15.39 15.39 0 0 1 4.32-.24c-1.41-1.07-2.44-1.62-4.32.24z" fill="#263238"/><path d="m159.6 150.41a6.45 6.45 0 0 0 3.79 3.14c2.17.65 3.29-1.27 2.73-3.34-.51-1.86-2.25-4.43-4.44-4.18a2.9 2.9 0 0 0 -2.08 4.38z" fill="#ffc3bd"/><path d="m175.46 143.42c.14.7.63 1.2 1.08 1.11s.72-.74.59-1.44-.63-1.2-1.09-1.11-.72.73-.58 1.44z" fill="#263238"/><path d="m183.41 141.85c.14.71.62 1.2 1.08 1.11s.72-.73.58-1.43-.62-1.2-1.08-1.11-.72.73-.58 1.43z" fill="#263238"/><path d="m183.8 140.5 1.59-.82s-.61 1.49-1.59.82z" fill="#263238"/><path d="m180.68 143.61a19.14 19.14 0 0 0 3.39 4 3.08 3.08 0 0 1 -2.42 1z" fill="#ed847e"/><path d="m178.4 151.92a5.8 5.8 0 0 1 -4-1.53.18.18 0 0 1 0-.25.18.18 0 0 1 .25 0 5.7 5.7 0 0 0 5 1.29.17.17 0 0 1 .06.34 6.16 6.16 0 0 1 -1.31.15z" fill="#263238"/><path d="m170.69 140.69a.41.41 0 0 1 -.18-.05.35.35 0 0 1 -.12-.48 4.09 4.09 0 0 1 3.17-2 .36.36 0 0 1 .36.34.35.35 0 0 1 -.34.36 3.4 3.4 0 0 0 -2.59 1.71.35.35 0 0 1 -.3.12z" fill="#263238"/><path d="m185.62 137.87a.33.33 0 0 1 -.17 0 3.45 3.45 0 0 0 -3.11-.2.35.35 0 0 1 -.34-.67 4.08 4.08 0 0 1 3.77.21.34.34 0 0 1 .13.47.33.33 0 0 1 -.28.19z" fill="#263238"/><path d="m165.61 236.56 8 .56-3.61 8.55s-6.68-2.11-6.95-7z" fill="#ffc3bd"/><path d="m176.68 241.96-3.87 5.84-2.8-2.13 3.63-8.55z" fill="#ffc3bd"/><path d="m175.85 142.06 1.59-.82s-.61 1.49-1.59.82z" fill="#263238"/></svg>