<svg viewBox="0 0 500 500" xmlns="http://www.w3.org/2000/svg"><path d="m104.56 101.62c27.91-59.44 127.05-51.06 165.31-9.25s50.7 68.6 85.21 53 78.52-11.44 81 38.17-37.87 108.24-102.08 125.59-64.16 78.76-149.1 66.37c-46.31-6.76-47.36-56.86-40.82-98.3s-71.9-106.63-39.52-175.58z" fill="#ffab00"/><path d="m104.56 101.62c27.91-59.44 127.05-51.06 165.31-9.25s50.7 68.6 85.21 53 78.52-11.44 81 38.17-37.87 108.24-102.08 125.59-64.16 78.76-149.1 66.37c-46.31-6.76-47.36-56.86-40.82-98.3s-71.9-106.63-39.52-175.58z" fill="#fff" opacity=".9"/><ellipse cx="250" cy="416.24" fill="#f5f5f5" rx="193.89" ry="11.32"/><path d="m435.81 190.72s9.59 5.34 10.22 9.53-4.32 8.58-4.32 8.58l-6.78 1.93s4-6.14 3.47-7.58-6.18-3.75-6.18-3.75z" fill="#ebb376"/><path d="m416.27 178c8.32.38 24.17 13.84 24.17 13.84l-5.35 10.64-16.57-5.33z" fill="#ffab00"/><path d="m432.13 213.05s-.78-4.91 0-5.33 8-1.82 8.92-.74 2.42 4 .77 4.84-9.41 3.61-9.69 1.23z" fill="#ebb376"/><path d="m416.27 178c8.32.38 24.17 13.84 24.17 13.84l-5.35 10.64-16.57-5.33z" fill="#fff" opacity=".6"/><path d="m376.36 165.33s-6.56-8.77-6.92-16.48c-.31-6.58 6.56-21.94 6.56-21.94l-3.93-3s-11.52 17.42-11.07 26.09 9.76 22.56 9.76 22.56z" fill="#ebb376"/><path d="m382.61 165.92-12.07-13.73-9 11.75s10.72 17.59 14 21.48 7.07-19.5 7.07-19.5z" fill="#ffab00"/><path d="m382.6 165.91s-3.91 23.4-7.14 19.51c-.44-.52-1-1.31-1.68-2.26-1.21-1.74-2.73-4-4.28-6.45-3.89-6-8-12.77-8-12.77l9-11.75z" fill="#fff" opacity=".6"/><path d="m369.41 126.24s-1.42-7.64-1.3-9.48 5.42-3 6.28-3.08 1.91 10.71 1.57 12.56-3.89 3.85-3.89 3.85z" fill="#ebb376"/><path d="m373.78 183.16c-1.21-1.74-2.73-4-4.28-6.45 1.88-1.53 5.3-3.78 8.08-2.62 2.47 1.04-.83 5.62-3.8 9.07z" opacity=".2"/><path d="m376.92 108.25 9.08-12.52-2.41-1.73-9.07 12.52a4.74 4.74 0 0 1 -4 1.94 4.74 4.74 0 0 0 -4 1.94l-8.37 11.6 9.12 6.61 8.43-11.61a4.73 4.73 0 0 0 .61-4.38 4.7 4.7 0 0 1 .61-4.37z" fill="#ffab00"/><path d="m361.77 114.69h11.26v8.35h-11.26z" fill="#fff" opacity=".4" transform="matrix(.80983691 .58665508 -.58665508 .80983691 139.61 -192.94)"/><path d="m370 120.82a3.28 3.28 0 1 1 -.73-4.58 3.27 3.27 0 0 1 .73 4.58z" fill="#fff" opacity=".6"/><path d="m361 207.68s43.36 9.84 53.05 8.19-5.35-36.1-5.35-36.1l1.24-8.16s-11.16 0-16.06-3.44c-.04 0-18.88-1.93-32.88 39.51z" fill="#ffab00"/><path d="m361 207.68s43.36 9.84 53.05 8.19-5.35-36.1-5.35-36.1l1.24-8.16s-11.16 0-16.06-3.44c-.04 0-18.88-1.93-32.88 39.51z" fill="#fff" opacity=".4"/><path d="m363.14 220.48a241.55 241.55 0 0 1 19.3-54.73s10.4 7.08 34.29 12.55c0 0-3.2 18.54-2.72 51.23z" fill="#ffab00"/><path d="m399.46 399.45-6.6 3.8-7.92-14.36 6.6-3.8z" fill="#ebb376"/><path d="m392.05 402.4 7.34-4.67a.62.62 0 0 1 .79.07l4.43 4.6a1.1 1.1 0 0 1 -.12 1.55.8.8 0 0 1 -.19.13c-2.56 1.57-3.95 2.28-7.14 4.31-2 1.24-10.27 5.71-13.34 5.92s-3.42-2.69-2.17-3.15c6.31-2.35 8.77-5.36 9.57-7.72a2.13 2.13 0 0 1 .83-1.04z" fill="#263238"/><path d="m391.54 385.09-6.6 3.8 4.09 7.41 6.6-3.8z" opacity=".2"/><path d="m374.2 322.59c.83 17.9 23 66.28 23 66.28l-11.83 7.47s-31.37-49.1-32.68-72.44c-7.8-46.34 10.45-103.42 10.45-103.42l50.86 9.05s-11.5 20-22.14 42.4c-6.09 12.8-11.9 26.38-15.11 37.44a59.59 59.59 0 0 0 -2.55 13.22z" fill="#263238"/><path d="m384.06 397.48 13.94-8.83-2.29-3.93-14.62 8.91z" fill="#ffab00"/><path d="m390.54 404.82a2.51 2.51 0 0 1 -1.43.48 1 1 0 0 1 -.76-.57.56.56 0 0 1 0-.56c.53-.81 3.31-.94 3.63-.94a.15.15 0 0 1 .15.1.2.2 0 0 1 -.05.19 10.09 10.09 0 0 1 -1.54 1.3zm-1.7-.65a.69.69 0 0 0 -.18.16.24.24 0 0 0 0 .23.6.6 0 0 0 .52.39 3.87 3.87 0 0 0 2.35-1.35 7.8 7.8 0 0 0 -2.69.57z" fill="#ffab00"/><path d="m392.07 403.56h-.07c-.87.08-2.94-.44-3.21-1.21a.6.6 0 0 1 .27-.68 1.06 1.06 0 0 1 .76-.23c1.09.1 2.27 1.76 2.32 1.87a.14.14 0 0 1 0 .17.16.16 0 0 1 -.07.08zm-2.74-1.64h-.07c-.19.15-.15.24-.14.29.15.45 1.57.93 2.5 1-.37-.47-1.17-1.36-1.86-1.43a.63.63 0 0 0 -.43.11z" fill="#ffab00"/><path d="m405.83 175.44a16.69 16.69 0 0 1 -13.19 4.21c-4.6-.42-4.61-3.66-3.46-5.37a6.83 6.83 0 0 0 4.66-2.46c1.39-1.9 1.29-4.55.84-7.13 0 0 0-.07 0-.1l6.4-4.73 4.42-3.28c-1.43 5.29-3.17 15.02.33 18.86z" fill="#ebb376"/><path d="m403.69 161.13c-1.36 6.22-7 9.82-9.85 10.69 1.39-1.9 1.29-4.55.84-7.13a.37.37 0 0 0 0-.11l6.4-4.73c.14.96 2.81.33 2.61 1.28z" opacity=".2"/><path d="m408.15 144.88a9.94 9.94 0 0 0 -12.59-6.26 9.32 9.32 0 0 0 -3.85 2.45c-2.6 1.36-4.2 5.67-3.95 8.56-.11.6-.2 1.21-.27 1.82-.62 1.65-3.1 3.33-1.76 8.38 1.66 6.28 8.38 7.9 12.65 6.91a9.19 9.19 0 0 0 5.09-2.32 10.74 10.74 0 0 0 1.21-1.23c2.78-3.24 3-7.32 3.86-13.7a10.2 10.2 0 0 0 -.39-4.61z" fill="#ebb376"/><path d="m397.41 150.75c0 .59-.38 1.05-.77 1s-.67-.53-.63-1.12.39-1.05.78-1 .66.52.62 1.12z" fill="#263238"/><path d="m390.74 150.29c0 .58-.4 1-.78 1s-.66-.53-.62-1.12.39-1 .77-1 .66.56.63 1.12z" fill="#263238"/><path d="m392.84 150.72a21.1 21.1 0 0 1 -3.18 4.86 3.46 3.46 0 0 0 2.8.73z" fill="#d58745"/><path d="m399.81 148.48a.35.35 0 0 1 -.35-.09 2.78 2.78 0 0 0 -2.34-.89.36.36 0 0 1 -.41-.28.34.34 0 0 1 .27-.4 3.45 3.45 0 0 1 3 1.08.34.34 0 0 1 0 .49.53.53 0 0 1 -.17.09z" fill="#263238"/><path d="m388.24 148.23a.34.34 0 0 1 -.19-.07.35.35 0 0 1 0-.49 3.43 3.43 0 0 1 3.05-.87.34.34 0 0 1 .25.42.34.34 0 0 1 -.42.24 2.8 2.8 0 0 0 -2.41.73.35.35 0 0 1 -.28.04z" fill="#263238"/><path d="m391.34 141.16c3.17-1.44 3.39 1 3.39 1s2-2.4 4.27-2 5.38 4.61 5.57 5.17-.87 1.63-.87 1.63.24 6.68.32 8.52l2.74 5a30.07 30.07 0 0 0 4.73-16c.1-9.51-18.65-9-18.65-9z" fill="#263238"/><path d="m411.28 157.72a7 7 0 0 1 -4.52 2.74c-2.4.36-3.3-1.87-2.38-4 .83-1.86 3.08-4.36 5.36-3.73a3.1 3.1 0 0 1 1.54 4.99z" fill="#ebb376"/><path d="m392.75 158.44a24.61 24.61 0 0 1 1.47 3.17l.6-.12c2.74-.58 3.81-1.76 4.18-2.88a3.75 3.75 0 0 0 .09-1.71 3.57 3.57 0 0 0 -.28-.93c-1.27 1.17-3.78 1.91-5.13 2.25-.57.15-.93.22-.93.22z" fill="#263238"/><path d="m393.68 158.22.46.93c2.57-.56 4.31-1.29 4.95-2.25a3.57 3.57 0 0 0 -.28-.93c-1.27 1.17-3.81 1.91-5.13 2.25z" fill="#fff"/><path d="m394.82 161.49c2.74-.58 3.81-1.76 4.18-2.88a8.88 8.88 0 0 0 -2.91 1.25 3.38 3.38 0 0 0 -1.27 1.63z" fill="#de5753"/><path d="m394.73 142.18a2.2 2.2 0 0 0 -2-1.06c-1.41 0-1.63 3.54-3.08 4.2s-3.21.79-3.27-2.1 2.53-6.72 6.44-7.78a8.42 8.42 0 0 1 6.31.4 10.92 10.92 0 0 1 4.55.13c2.16.61 3 2.14 5 8.25.61 1.92 2 2.23 2.6 3.73s1.74 5.47-4.17 3.82-7.76-5.17-7.51-8-2.95-3.14-4.87-1.59z" fill="#263238"/><path d="m403.06 408.53a2.2 2.2 0 0 1 -1.41-.38 1 1 0 0 1 -.36-.93.52.52 0 0 1 .29-.49c.82-.42 3.19 1 3.45 1.21a.16.16 0 0 1 .08.17.16.16 0 0 1 -.13.14 8.32 8.32 0 0 1 -1.92.28zm-1.06-1.53a.46.46 0 0 0 -.23.05s-.1.07-.11.21a.73.73 0 0 0 .23.62 3.6 3.6 0 0 0 2.62.13 7.4 7.4 0 0 0 -2.51-1.01z" fill="#ffab00"/><path d="m404.94 408.26h-.09c-.75-.41-2.22-2-2.07-2.8a.56.56 0 0 1 .56-.45.91.91 0 0 1 .74.22c.85.69 1 2.8 1 2.9a.18.18 0 0 1 -.08.16.14.14 0 0 1 -.06-.03zm-1.48-3h-.08c-.23 0-.25.13-.26.17-.09.48.84 1.7 1.6 2.27a4.13 4.13 0 0 0 -.87-2.3.6.6 0 0 0 -.39-.11z" fill="#ffab00"/><path d="m409.9 174.1v-2.49l-10.81 1.67 1.3 11.72s4.15 28.7 15.88 43l9.51-6.75s-8.69-27.33-9-42.94z" fill="#ffab00"/><path d="m425.78 221.24-9.51 6.76c-11.73-14.28-15.88-43-15.88-43l-1.3-11.72 10.8-1.67v2.48l6.84 4.21a76.07 76.07 0 0 0 1 10c.82 5.24 2 10.84 3.29 15.89 2.35 9.44 4.76 17.05 4.76 17.05z" fill="#fff" opacity=".6"/><path d="m399.09 173.28 4.61 7.49 6.2-3.43v-5.73z" opacity=".2"/><path d="m391.38 168.77s-15.28 14.94-31.71 45.15l-3.14-5s17.18-33.71 25.91-43.17l6.1 2.42 3.46-1.17 1.86 1.14z" fill="#ffab00"/><path d="m391.38 168.77s-15.28 14.94-31.71 45.15l-3.14-5s17.18-33.71 25.91-43.17l6.1 2.42 3.46-1.17 1.86 1.14z" fill="#fff" opacity=".6"/><path d="m388.54 168.17-2.7 1.39 4.1-.69-.61 2.06 2.05-2.16 2.46-.6-1.86-1.14z" opacity=".2"/><path d="m421 204.15c-6.28.07-3.76-16-3.76-16l.47.14c.84 5.21 2.07 10.81 3.29 15.86z" opacity=".2"/><path d="m391.87 271.93c-6.09 12.8-11.9 26.38-15.11 37.44-4-25.56 8.94-64.22 8.94-64.22z" opacity=".2"/><path d="m413.84 408.09h-7.34l-.6-17.01h7.35z" fill="#ebb376"/><path d="m405.49 407.24h8.91a.65.65 0 0 1 .63.5l1.45 6.54a1.08 1.08 0 0 1 -.84 1.28 1 1 0 0 1 -.24 0c-2.88 0-5-.22-8.61-.22-2.23 0-9 .23-12 .23s-3.48-3-2.22-3.32c5.66-1.23 9.91-2.94 11.72-4.57a1.82 1.82 0 0 1 1.2-.44z" fill="#263238"/><path d="m413.25 391.09h-7.35l.31 8.77h7.35z" opacity=".2"/><path d="m379 239.76s4.35 60.75 7.45 82c3.39 23.34 16.44 76.36 16.44 76.36h13.43s-2.74-48.73-4-71.67c4-60.75 1.75-97 1.75-97z" fill="#263238"/><path d="m401.23 398.45h15.83v-4.73l-16.43-.31z" fill="#ffab00"/><path d="m350.29 240.33 7.36 8.18s2.15.71 2.61 1.63 1.44 7 .85 7.64-5.4.7-6.06-.43-.74-6.55-.55-7.06l-9.7-9.29z" fill="#eec1bb"/><path d="m354.69 242.57-5.63 3.84s-11.79-9.84-14.84-14.83c-.56-.93-1.38-2.18-2.31-3.59-2.29-3.47-5.35-7.9-7.55-11.07-1.68-2.42-2.88-4.12-2.88-4.12l10.33-9.92c2.37 1.62 9.02 22.72 22.88 39.69z" fill="#ffab00"/><path d="m331.91 228c-2.29-3.47-5.35-7.9-7.55-11.07a7.7 7.7 0 0 1 2.58-3.94s6.4 7.01 4.97 15.01z" opacity=".2"/><path d="m280.77 172.78-4.8-9.9s.16-2.26-.52-3-6-4-6.76-3.67-2.69 4.73-1.88 5.77 5.77 3.17 6.32 3.18l5 12.51z" fill="#eec1bb"/><path d="m272 160.27-.68-7.41 6.49-7.79a.48.48 0 0 0 -.41-.79l-15.08 1.38a.48.48 0 0 0 -.26.85l7.79 6.48.68 7.42-2.53 2.08a.34.34 0 0 0 .24.6l6.49-.6a.34.34 0 0 0 .14-.63z" fill="#ffab00"/><path d="m272 160.27-.68-7.41 6.49-7.79a.48.48 0 0 0 -.41-.79l-15.08 1.38a.48.48 0 0 0 -.26.85l7.79 6.48.68 7.42-2.53 2.08a.34.34 0 0 0 .24.6l6.49-.6a.34.34 0 0 0 .14-.63z" fill="#fff" opacity=".6"/><path d="m274.24 147.82s-.3-.66-2.94-.63-2.7 1.32-4.51-.23-3-.23-3-.23l6.79 5.55z" fill="#ffab00"/><path d="m298.93 193.45v4.55l.07 14.92s-2.76-3.69-6.12-8.13c-4-5.3-8.87-11.71-10.85-14.2-3.65-4.57-8.86-19-8.86-19l5.54-4s7.38 15.6 20.22 25.86z" fill="#ffab00"/><path d="m299 198 .07 14.92s-2.76-3.69-6.12-8.13c1.22-3.89 5.12-6.29 6.05-6.79z" opacity=".2"/><path d="m331.81 202.88s-6.84 13.84-7.65 42.26l-29.16-2.52s-.38-34.94 3.25-49.28l3.2 1c6 1.93 19.06 6.05 28 8 .81.24 1.6.4 2.36.54z" fill="#ffab00"/><path d="m269.17 399.36 5.89 1.04 2.41-8.03 2.21-7.37-6.79-2.37-1.98 8.86z" fill="#e4897b"/><path d="m270.88 391.67 6.56.87 2.22-7.46-6.78-2.41z" opacity=".2"/><path d="m308.48 402.08h5.98l.98-8.43.89-7.68-7.09-1.18-.41 9.15z" fill="#e4897b"/><path d="m308.83 394.01 6.61-.29.89-7.72-7.09-1.19z" opacity=".2"/><path d="m300.38 413.92a10 10 0 0 1 3.19-1.73s3.47-3.45 5.15-13.82l4.54-1.19a3.88 3.88 0 0 1 4.14 1.62 2.38 2.38 0 0 1 .29.6 27.07 27.07 0 0 1 .48 3.37 93.45 93.45 0 0 1 .07 11.39h-.82l-.33-7.16c-.12-2.42-2 .42-2.51 3s-1.66 5.4-7 5.53c-6.19.16-8.77-.09-7.2-1.61z" fill="#263238"/><path d="m260.7 413.22a10 10 0 0 1 3.19-1.73s3.48-3.45 5.15-13.82l4.54-1.19a3.88 3.88 0 0 1 4.14 1.62 2.09 2.09 0 0 1 .29.6 27.07 27.07 0 0 1 .48 3.37 93.45 93.45 0 0 1 .07 11.39h-.82l-.33-7.16c-.12-2.42-2 .42-2.51 3s-1.66 5.39-7 5.53c-6.19.17-8.77-.09-7.2-1.61z" fill="#263238"/><path d="m270.33 387 9.68 1.7c9.77-24.33 16.72-44.65 21.62-61.51 2.65-9.1 4.85-17.19 6.43-24.37l-.29 26.5v59.68h9.54c23.91-113.91 7-139.86 7-139.86l-28.61-4.77a130.67 130.67 0 0 0 -2.4 16.08l-1.3 9.55-11.2 57.71z" fill="#ffab00"/><path d="m270.33 387 9.68 1.7c9.77-24.33 16.72-44.65 21.62-61.51 2.65-9.1 4.85-17.19 6.43-24.37l-.29 26.5v59.68h9.54c23.91-113.91 7-139.86 7-139.86l-28.61-4.77a130.67 130.67 0 0 0 -2.4 16.08l-1.3 9.55-11.2 57.71z" fill="#fff" opacity=".6"/><path d="m301.63 327.19c2.65-9.1 4.71-17.19 6.29-24.37a224.41 224.41 0 0 0 -1.85-25.41s-4.19 32.78-4.44 49.78z" opacity=".2"/><path d="m309.69 199a7.24 7.24 0 0 1 .94-.22c.76-.41 1.78-1.53 2.28-4.6a25.58 25.58 0 0 0 .29-3.65l8.8-.11s-3.9 5.23-2.22 9.92c.77.51 1.26 1.15 1 1.8-1.29 2.9-11 5-11 5s-5.72-6.25-.09-8.14z" fill="#eec1bb"/><path d="m313.2 190.49a25.58 25.58 0 0 1 -.29 3.65c5.76 1 9.09-3.76 9.09-3.76z" opacity=".2"/><path d="m321.48 162.71s-9.65-3.4-13.21 4.18a12.61 12.61 0 0 0 1.64 13.38z" fill="#263238"/><path d="m321.46 167.17c-7.27-2-10.68 1.24-13.27 8.59-3.24 9.17-3 16.39 6.64 16.89 13.09.68 18.7-22.17 6.63-25.48z" fill="#eec1bb"/><path d="m313 176.64a16 16 0 0 1 -2.94 2.43 2.07 2.07 0 0 0 1.69 1.35z" fill="#d4827d"/><g fill="#263238"><path d="m317.61 177.27c-.18.59 0 1.17.39 1.29s.86-.27 1-.86 0-1.17-.39-1.29-.82.27-1 .86z"/><path d="m318.81 176.49-1.14-.89s.33 1.28 1.14.89z"/><path d="m310.28 174.93c-.18.6 0 1.17.39 1.29s.86-.26 1-.86 0-1.17-.4-1.29-.82.27-.99.86z"/><path d="m311.47 174.15-1.14-.89s.32 1.28 1.14.89z"/><path d="m321.91 174.58a.35.35 0 0 1 -.31-.2 3.66 3.66 0 0 0 -2.58-1.77.35.35 0 0 1 -.3-.38.35.35 0 0 1 .39-.3 4.28 4.28 0 0 1 3.12 2.17.35.35 0 0 1 -.18.45.32.32 0 0 1 -.14.03z"/><path d="m313.87 170.86a.31.31 0 0 1 -.2-.07 3.22 3.22 0 0 0 -2.76-.15.34.34 0 0 1 -.21-.65 3.82 3.82 0 0 1 3.37.25.34.34 0 0 1 .08.47.35.35 0 0 1 -.28.15z"/><path d="m326 181.6s-1.75-6.91 0-11.38c0 0-12.78-9.84-17.51 4.58 0 0 2.16-13.36 14.73-10.22s7.49 21.41-.46 25.08c.06 0 4.35-3.75 3.24-8.06z"/><path d="m320.35 161.87s-4.1-1.24-6.16 0 6.08 13.61 12.22 16.13c0 0 .63 7.54-1.8 10.48 0 0 7.73-.95 10.45-11.83s-7.91-17.49-14.71-14.78z"/></g><path d="m324.42 182.8a3.32 3.32 0 0 1 4.24-2c2.18.87 2 5.79-3.92 5.36-.85-.03-1.09-.94-.32-3.36z" fill="#eec1bb"/><path d="m321.87 177.23a.37.37 0 0 1 -.18 0c-7.95-5-8.26-14.73-8.27-14.83a.36.36 0 0 1 .34-.35.37.37 0 0 1 .35.34c0 .09.31 9.48 7.94 14.26a.34.34 0 0 1 .11.47.36.36 0 0 1 -.29.11z" fill="#263238"/><path d="m310.89 183.14a23.39 23.39 0 0 1 1.27 3.26l.61-.08c2.77-.41 3.91-1.52 4.35-2.62a3.54 3.54 0 0 0 .19-1.69 3.36 3.36 0 0 0 -.22-.95c-1.34 1.09-3.88 1.67-5.26 1.92-.57.12-.94.16-.94.16z" fill="#263238"/><path d="m311.83 183 .4 1c2.6-.4 4.38-1 5.08-1.93a3.36 3.36 0 0 0 -.22-.95c-1.34 1.03-3.88 1.61-5.26 1.88z" fill="#fff"/><path d="m312.77 186.32c2.77-.41 3.91-1.52 4.35-2.62a9.08 9.08 0 0 0 -3 1.07 3.31 3.31 0 0 0 -1.35 1.55z" fill="#de5753"/><path d="m324.16 245.14-29.18-2.52v4.99l29.87 2.64z"/><path d="m303.12 244.82v2.33a1.79 1.79 0 0 0 1.65 1.8l3.64.32h.16a1.82 1.82 0 0 0 1.81-1.81v-2.33a1.81 1.81 0 0 0 -1.65-1.81l-3.65-.31a1.79 1.79 0 0 0 -1.38.47 1.82 1.82 0 0 0 -.58 1.34zm.93 2.33v-.77h.05l1 .08a.62.62 0 0 0 .09-1.23l-1-.08h-.14v-.36a.87.87 0 0 1 .87-.87h.08l3.65.31a.88.88 0 0 1 .8.88v2.33a.82.82 0 0 1 -.29.64.86.86 0 0 1 -.67.23l-3.64-.32a.87.87 0 0 1 -.8-.84z" fill="#fff"/><path d="m328 166s3-10.26 14.78-7.89l-2.39 2.31s6.6-.79 9.57 4.66l-2.69.2s5.1 4.36 2.15 10.15l-1.61-1.3s-.76 5.27-4 7.23l-.3-3s-1.95 5-7.19 4.12l1.07-3.32s-10.21-1.72-9.39-13.16z" fill="#263238"/><path d="m329.42 202.39a21.58 21.58 0 0 1 -7.78 6.13 15.74 15.74 0 0 1 -2.74.92 16.08 16.08 0 0 1 -9.45-.71 13.09 13.09 0 0 1 -5-3.17 11.08 11.08 0 0 1 -2.11-3.15 14.94 14.94 0 0 1 -.92-8l4.43 1.41 2.19.69c4.3 1.32 9.47 2.87 14.33 4.16.75.21 1.5.4 2.23.59 1.7.41 3.31.8 4.82 1.13z" fill="#eec1bb"/><path d="m324.61 201.24a15.21 15.21 0 0 0 -3 7.28 15.74 15.74 0 0 1 -2.74.92c.44-4.76 2.17-7.43 3.48-8.79.78.21 1.53.4 2.26.59z" fill="#263238"/><path d="m308.05 196.49a19.34 19.34 0 0 0 -3.59 9.07 11.08 11.08 0 0 1 -2.11-3.15 20.42 20.42 0 0 1 3.51-6.61z" fill="#263238"/><path d="m208.47 262.58h92.07a6.31 6.31 0 0 1 -6 6.3c-9.89.45-25.12 2-29.94 7.49-9 10.2-8.13 122.84 2.65 131.14 3.38 2.6 13.23 7.77 13.23 7.77h-51.91s9.2-5.27 12.4-7.77c10.72-8.37 11-121 2-131.14-4.64-5.21-18.91-6.9-28.48-7.43a6.36 6.36 0 0 1 -6.02-6.36z" fill="#ffab00"/><path d="m300.54 262.58a6.31 6.31 0 0 1 -6 6.3 117.08 117.08 0 0 0 -16.33 1.76c-5.87 1.12-11.12 2.9-13.61 5.73-2.09 2.37-3.64 10.23-4.67 21-3.39 35.78-1 103.74 7.32 110.12 3.38 2.6 13.23 7.77 13.23 7.77h-51.91s9.2-5.27 12.4-7.77c8.23-6.43 10.33-74.36 6.76-110.12-1.08-10.8-2.67-18.67-4.77-21-2.5-2.81-7.81-4.6-13.67-5.73a112.77 112.77 0 0 0 -14.81-1.7 6.36 6.36 0 0 1 -6-6.36z" fill="#fff" opacity=".7"/><path d="m278.17 270.64c-5.87 1.12-11.12 2.9-13.61 5.73-2.09 2.37-3.64 10.23-4.67 21h-12.16c-1.08-10.8-2.67-18.67-4.77-21-2.5-2.81-7.81-4.6-13.67-5.73z" opacity=".2"/><path d="m241.45 260.61v-7.44l7.2-7.14a.49.49 0 0 0 -.34-.83h-15.14a.48.48 0 0 0 -.34.82l7.15 7.2v7.44l-2.71 1.83a.34.34 0 0 0 .19.62h6.51a.34.34 0 0 0 .19-.62z" fill="#ffab00"/><path d="m241.45 260.61v-7.44l7.2-7.14a.49.49 0 0 0 -.34-.83h-15.14a.48.48 0 0 0 -.34.82l7.15 7.2v7.44l-2.71 1.83a.34.34 0 0 0 .19.62h6.51a.34.34 0 0 0 .19-.62z" fill="#fff" opacity=".6"/><path d="m236.49 248.32 4.25 4.2 4.1-4.1a.59.59 0 0 0 -.07-.1z" fill="#ffab00"/><path d="m271.45 260.61v-7.44l7.2-7.14a.49.49 0 0 0 -.34-.83h-15.14a.48.48 0 0 0 -.34.82l7.15 7.2v7.44l-2.71 1.83a.34.34 0 0 0 .19.62h6.51a.34.34 0 0 0 .19-.62z" fill="#ffab00"/><path d="m271.45 260.61v-7.44l7.2-7.14a.49.49 0 0 0 -.34-.83h-15.14a.48.48 0 0 0 -.34.82l7.15 7.2v7.44l-2.71 1.83a.34.34 0 0 0 .19.62h6.51a.34.34 0 0 0 .19-.62z" fill="#fff" opacity=".6"/><path d="m266.49 248.32 4.25 4.2 4.1-4.1a.59.59 0 0 0 -.07-.1z" fill="#ffab00"/><path d="m256.14 240.59.06-15.46h-3l-.05 15.46a4.72 4.72 0 0 1 -2.09 3.89 4.71 4.71 0 0 0 -2.09 3.9l.03 14.35h11.27v-14.36a4.71 4.71 0 0 0 -2.06-3.91 4.72 4.72 0 0 1 -2.07-3.87z" fill="#ffab00"/><path d="m248.98 250.59h11.27v8.35h-11.27z" fill="#fff" opacity=".4" transform="matrix(.99999391 .00349065 -.00349065 .99999391 .91 -.91)"/><path d="m257.89 254.81a3.28 3.28 0 1 1 -3.26-3.29 3.28 3.28 0 0 1 3.26 3.29z" fill="#fff" opacity=".6"/><path d="m172.5 185.83s-18.44 12.65-21.21 16.48-6.5 35.07-6.5 35.07-5.45 6.07-3.81 8.33 4.35 6.53 5.9 4.77 4.22-8.73 4.22-8.73l-1-2.23s7.67-30.83 8.13-31.8 19.18-12.28 19.18-12.28z" fill="#9f5b53"/><path d="m179.86 196.65s-4.12 2.12-8.6 4.64c-5 2.77-10.37 6-11.08 7.38-1.05 2-7.88 24.63-7.88 24.63l-8.05-3s4.35-24.17 6-27.4 22.75-22.07 22.75-22.07l3.29 7.59z" fill="#ffab00"/><path d="m179.86 196.65s-4.12 2.12-8.6 4.64c-.11-4.86 3.22-10.28 5-12.87z" opacity=".2"/><path d="m250.28 160.76 1.41-7.31-5.68-8.4a.48.48 0 0 1 .49-.74l14.86 2.88a.48.48 0 0 1 .18.87l-8.4 5.67-1.41 7.27 2.31 2.32a.35.35 0 0 1 -.31.58l-6.39-1.24a.34.34 0 0 1 -.07-.65z" fill="#ffab00"/><path d="m250.28 160.76 1.41-7.31-5.68-8.4a.48.48 0 0 1 .49-.74l14.86 2.88a.48.48 0 0 1 .18.87l-8.4 5.67-1.41 7.27 2.31 2.32a.35.35 0 0 1 -.31.58l-6.39-1.24a.34.34 0 0 1 -.07-.65z" fill="#fff" opacity=".6"/><path d="m249.3 148.14s.36-.62 3-.33 2.57 1.58 4.52.23 3 .07 3 .07l-7.3 4.84z" fill="#ffab00"/><path d="m202.05 165.75a10.52 10.52 0 0 1 -.31 1 10.26 10.26 0 0 1 -3.63 4.84 12.19 12.19 0 0 1 -1.33.82 9.21 9.21 0 0 1 -11-1.75c-3.68-3.71-3.58-8-4-15.26a9.8 9.8 0 0 1 .74-4.57 9.93 9.93 0 0 1 13-5.36c7.13 2.95 8.11 13.75 6.53 20.28z" fill="#9f5b53"/><path d="m198.11 171.63a12.19 12.19 0 0 1 -1.33.82 9.26 9.26 0 0 1 -7.95.35 11 11 0 0 1 1.29-2.46 14.34 14.34 0 0 1 7.99 1.29z" opacity=".2"/><path d="m183.5 181c3.57 3.25 12.33 2.05 12.33 2.05s5.47-1.5 4.32-3.21c-3.22-.53-4.78-2-5.42-3.95a9.48 9.48 0 0 1 -.33-3.68 20.74 20.74 0 0 1 .27-2.06l-10.83-8c1.42 5.32 3.16 15.05-.34 18.85z" fill="#9f5b53"/><path d="m193.47 142.38s1.92-1.17 5.19 1.92c2.76 2.6 0 4.69 1.65 8s-.58 6.63-.58 6.63-1.59 3.43-4.36 3.21c0 0-2.26 2.74-1.9 5.57s-3.71 5.07-9.25 5-3.32-3.53-3.32-3.53a22.86 22.86 0 0 1 -3.84-6.21 21.49 21.49 0 0 1 -1.58-8.68 11.63 11.63 0 0 1 3.2-8.39c3.7-4.13 12.51-6.23 14.79-3.52z" fill="#263238"/><path d="m194 160.59a4.7 4.7 0 0 0 2.42 3.23c1.48.63 2.45-1.46 2.23-3.64-.2-1.93-1.2-4.66-2.78-4.3s-2.4 2.76-1.87 4.71z" fill="#9f5b53"/><path d="m176.33 156.82s-.23-3.6.55-4.06 4.51-1.22 5.13-.66 1.41 3.91 1.41 3.91-4.14 1.41-7.09.81z" fill="#263238"/><path d="m200.93 153.89c.84 1.45 3.48-3.56 3.48-6s-2.78-1-3.54-4.5-1.57-6.46-4.74-5.85-6.13 3.2-9.2.74-6.38-1.35-7.07 1.6-3 4.8-5.37 4.31-4.18 4.56-2.09 8.37-1 4.26-1.63 7.36 2.58 5.78 4.69 5.86-1.21 5.86 4.4 7.79 11.37.12 12.47-3.11-4.68-8.55-3.5-14.58 9.61-6.3 12.1-1.99z" fill="#263238"/><path d="m182.62 180.36 1.6-4.13s10.79-2.08 14.44 3.3-16.04.83-16.04.83z" fill="#ffab00"/><path d="m182.62 180.36 1.6-4.13s10.79-2.08 14.44 3.3-16.04.83-16.04.83z" fill="#fff" opacity=".6"/><path d="m211.41 408.64 7.58.79.38-4.38 1.03-11.94-7.57-.81-1.15 13.19z" fill="#9f5b53"/><path d="m173.62 407.68h7.34l.06-1.66.01-.21.38-10.64.01-.22.14-4.08h-7.34z" fill="#9f5b53"/><path d="m212.83 392.3-1.15 13.19 7.69-.44 1.03-11.94z" opacity=".2"/><path d="m173.67 406.75h.01l7.34-.94h.01l.39-10.27h-.01l-7.36.59-.37 10.29z" opacity=".2"/><path d="m182 407.24h-8.92a.65.65 0 0 0 -.63.5l-1.45 6.54a1.08 1.08 0 0 0 .83 1.28 1 1 0 0 0 .24 0c2.89 0 5-.22 8.61-.22 2.23 0 9 .23 12 .23s3.48-3 2.22-3.32c-5.65-1.23-9.91-2.94-11.72-4.57a1.81 1.81 0 0 0 -1.18-.44z" fill="#263238"/><path d="m219.79 407h-8.92a.63.63 0 0 0 -.62.51l-1.45 6.49a1.09 1.09 0 0 0 .83 1.29h.24c2.89-.05 5-.22 8.61-.22 2.23 0 9 .23 12 .23s3.49-3 2.23-3.32c-5.66-1.24-9.92-3-11.73-4.57a1.82 1.82 0 0 0 -1.19-.41z" fill="#263238"/><path d="m221.1 403.94h-10.77s.88-92.66-10.76-124c-.82 10.35-1.75 21.08-2.65 30-.57 5.53-1.13 10.29-1.66 13.91-3.39 23.34-11.94 81-11.94 81h-10.64s1.26-55.21 2.52-78.15c1.39-24.9 2-79.63 2.05-84.3h38.95c3.7 19.6 13.21 98.06 4.9 161.54z" fill="#263238"/><path d="m199.57 279.94c-.82 10.35-1.75 21.1-2.65 30-1.33-12.91-2.95-22.11-2.95-22.11s-1.52-1.25-5.71-7.93 0-19.14 0-19.14c-.13 11.62 11.31 19.18 11.31 19.18z" opacity=".2"/><path d="m222.31 400.91-.53 3.03h-12.72v-2.8z" fill="#ffab00"/><path d="m184.54 402.08-1.22 2.8h-10.67l-.7-2.8z" fill="#ffab00"/><path d="m176.28 245s1.51-16.94-.72-42.7c-.58-6.63-1.4-13.84-2.56-21.5 0 0 21.18-4.68 35.95 0 0 0 .61 3.14 1.44 8.47.51 3.21 1.1 7.22 1.69 11.83 0 .16 0 .34.06.52 1.47 11.22 4.27 27.63 4.55 42.7z" fill="#ffab00"/><path d="m212.15 201.66c-3-2.72-4.57-12.85-4.71-13.24l2.95.88c.51 3.21 1.1 7.22 1.69 11.83.03.17.05.35.07.53z" opacity=".2"/><path d="m211 191.36s16.14.06 21.31-1.49 15.69-25.71 15.69-25.71l7.81-3.81s-1.76-6-4.1-6.22-7.17 5.77-7.68 7.08-14.03 18.79-14.72 19.72-20.11.06-20.11.06z" fill="#9f5b53"/><path d="m206.29 180.1c5.15 1 20.91.83 22.37.29s11.08-14.64 11.08-14.64l6 6.65s-8.92 17.65-11.26 19-23.27 3.16-23.27 3.16c-5.82-5.96-4.92-14.46-4.92-14.46z" fill="#ffab00"/><path d="m254.57 143.18s6-6.32 12.6-.5c0 0-2-3.2.61-4.8 0 0-3 1.85-4 .86s-1.85-6.27-1.85-6.27-.27 4.18-2.06 5.35-4-4-4-4 .34 3.82 0 4.8-2 .37-2 .37a8.88 8.88 0 0 1 .7 4.19z" fill="#ffab00"/><path d="m254.57 143.18s6-6.32 12.6-.5c0 0-2-3.2.61-4.8 0 0-3 1.85-4 .86s-1.85-6.27-1.85-6.27-.27 4.18-2.06 5.35-4-4-4-4 .34 3.82 0 4.8-2 .37-2 .37a8.88 8.88 0 0 1 .7 4.19z" fill="#fff" opacity=".6"/><path d="m96.65 302-1 7.47-1.48 11-.29 2.15-1 7.47-.75 5.54a254.72 254.72 0 0 0 -31.85-27.91l-3.38 3.68c11.96 16.25 21.1 32.6 33.1 39.6 4.13 2.43 8.55 4.36 11.75-2.53a100.54 100.54 0 0 0 5.74-16.83c.92-3.41 1.78-6.59 2.54-9.48 0-.15.07-.29.11-.42 1.52-5.74 2.68-10.3 3.41-13.2.55-2.27.86-3.51.86-3.51z" fill="#ebb376"/><path d="m89.18 221.81c-1.54 1.71-7.61 11.19-7.61 11.19l-8.17-15.4s1.32-3.8-1.06-6.32-4.22-4.8-5.27-4.46-3 4.83-3 6.41 5 6.46 6.07 6.39c0 0 4.89 18.16 9.46 20.92s16.1-8.75 16.1-8.75z" fill="#ebb376"/><path d="m100 205.62a1.35 1.35 0 0 0 .29 0 10.88 10.88 0 0 0 4.24-.14c4-1.08 6.17-2.86 6.9-5.31.93-3.59-.79-8.17-3.85-13.16a21.72 21.72 0 0 0 -4.34-5.43l-.06-.09c-.07 0-.14-.12-.21-.17a8 8 0 0 0 -7.46-1.54 15.84 15.84 0 0 0 -3.24 1.28c-10.14 5.28-3.08 22.94 7.73 24.56z" fill="#ebb376"/><path d="m99.2 204.21a10.73 10.73 0 0 0 4.15.49c4.12-.32 6.55-1.8 7.71-4.1a11.34 11.34 0 0 1 -7.08 1.59 6 6 0 0 0 -4.78 2.02z" opacity=".2"/><path d="m101.17 214.38c.3 3.31 4.71 3.32 4.71 3.32 5.69-4.86 5.81-8.74 5.81-8.74-6.37-1.14-7.31-9.71-7.31-9.71l-.95.9-7.34 4s3.48 3.48 4.06 4.34c3.04 4.51 1.02 5.89 1.02 5.89z" fill="#ebb376"/><path d="m103.19 181.54s4.31 6.76-.76 13.35c0 0 1 8.86-3.15 11.22-5.68 3.21-15.13-2.29-17.58-11.71-3.18-12.21 12.77-21.83 21.49-12.86z" fill="#ffab00"/><path d="m86.91 180.58s5.82-5.29 11-4.56c6 .85 9.42 3.24 7 11.06 0 0-13.26 2.35-16.6 5.13a45.12 45.12 0 0 0 -5.45 5.3c-4.81-7.05-.53-16.46 4.05-16.93z" fill="#ffab00"/><path d="m105.62 183.63s3.28-11.06-9.08-10c-12.54 1.1-21.54 9.82-21.36 17.67s6.82 11.36 7.22 14.5 1.68 11.35 1.68 11.35 20.31-12.12 27.18-12.42c0 0-9.68-9.83-9.68-14.18s4.04-6.92 4.04-6.92z" fill="#ffab00"/><path d="m106.3 190.69c-.38-1.19-2-2.89-3.73-2s-1.41 5.93 3.63 5.51c.72-.1.88-1.03.1-3.51z" fill="#ebb376"/><path d="m133.31 252.73s1.09-36.53-11.24-49.73c0 0-19.31 7.91-32.89 18.84 0 0 11.73 24.89 13.46 36.08z" fill="#263238"/><path d="m117.92 410 5 .08c5.07-23.79 8.65-53.24 10.88-75.45.35-3.48.66-6.77.94-9.85.13-1.46.26-2.86.38-4.22.6-6.68 1-12 1.25-15.24.18-2.39.27-3.71.27-3.71h-18l.17 4.59.56 15.15.06 1.73.38 10 .62 17c-6.2 23.97-2.51 59.92-2.51 59.92z" fill="#ebb376"/><path d="m94.16 320.43 15.84 1.77c0-.15.07-.29.11-.42 1.52-5.74 2.68-10.3 3.41-13.2l-17.9.89z" opacity=".2"/><path d="m118.79 306.17.56 15.15.06 1.73 15.32 1.7c.13-1.46.26-2.86.38-4.22.6-6.68 1-12 1.25-15.24z" opacity=".2"/><path d="m133.9 257.49-.59-5.8-31.19 3.13.65 4.55c-11.75 20.8-8.9 44.51-8.9 44.51l-1.43 11.67s3 1.82 22.71 3.11c17.39 1.13 21.85-.66 21.85-.66 6.1-36.1.82-53.28-3.1-60.51z" fill="#ffab00"/><path d="m133.9 257.49-.59-5.8-31.19 3.13.65 4.55c-11.75 20.8-8.9 44.51-8.9 44.51l-1.43 11.67s3 1.82 22.71 3.11c17.39 1.13 21.85-.66 21.85-.66 6.1-36.1.82-53.28-3.1-60.51z" fill="#fff" opacity=".2"/><g fill="#263238"><path d="m120.41 257.89 14.03-1.11-.19-4.25-14.16 1.48z"/><path d="m106.36 259 13.03-1.03-.31-3.85-13.01 1.36z"/><path d="m105.06 255.59-3.31.35.42 3.39 3.17-.25z"/><path d="m124.3 407.16h-7.11a.65.65 0 0 0 -.64.51l-1.46 6.59a1.11 1.11 0 0 0 .85 1.3 1 1 0 0 0 .24 0c2.91 0 3.14-.22 6.8-.22 2.25 0 9 .23 12.16.23s3.51-3.07 2.24-3.35c-5.71-1.25-10-3-11.84-4.61a1.78 1.78 0 0 0 -1.24-.45z"/></g><path d="m124.81 408.19a.18.18 0 0 1 -.13-.16.16.16 0 0 1 .08-.17c.27-.16 2.66-1.63 3.48-1.21a.52.52 0 0 1 .3.49 1 1 0 0 1 -.37.94 2.17 2.17 0 0 1 -1.42.38 9 9 0 0 1 -1.94-.27zm.51-.25a3.6 3.6 0 0 0 2.64-.13.75.75 0 0 0 .23-.63c0-.14-.06-.21-.11-.21a.46.46 0 0 0 -.23-.05 7.25 7.25 0 0 0 -2.53 1.02z" fill="#ffab00"/><path d="m124.76 408.22a.18.18 0 0 1 -.08-.16c0-.1.19-2.23 1-2.93a.94.94 0 0 1 .75-.22.56.56 0 0 1 .56.46c.15.78-1.33 2.41-2.09 2.82h-.08a.17.17 0 0 1 -.06.03zm1.19-2.88a4.14 4.14 0 0 0 -.88 2.32c.77-.58 1.71-1.81 1.61-2.29 0-.05 0-.18-.25-.18h-.09a.58.58 0 0 0 -.34.15z" fill="#ffab00"/><path d="m146.35 164.77-1.27-7.33-8.28-5.84a.48.48 0 0 1 .19-.87l14.92-2.58a.48.48 0 0 1 .47.75l-5.84 8.29 1.27 7.33 3 1.35a.34.34 0 0 1 -.08.65l-6.42 1.11a.34.34 0 0 1 -.3-.58z" fill="#ffab00"/><path d="m146.35 164.77-1.27-7.33-8.28-5.84a.48.48 0 0 1 .19-.87l14.92-2.58a.48.48 0 0 1 .47.75l-5.84 8.29 1.27 7.33 3 1.35a.34.34 0 0 1 -.08.65l-6.42 1.11a.34.34 0 0 1 -.3-.58z" fill="#fff" opacity=".6"/><path d="m141 153.32s.11-.71 2.67-1.37 3 .57 4.3-1.39 2.87-1 2.87-1l-5.11 7.11z" fill="#ffab00"/><path d="m141.3 168.11a22 22 0 0 0 -.2-2.59c-.17-1.14 5.14-7.88 6.11-7.62s3.31 4.13 2.79 5.53-4.76 5.82-5.83 6.22-2.87-1.54-2.87-1.54z" fill="#ebb376"/><path d="m141.3 168.11s-10.64 18.24-12.07 21.52-10.79 15-13 16.64 3.87 12.86 8.61 12.8 1.85-9.08 1.85-9.08 5.62-14.38 7.82-16.4 9.62-23.94 9.62-23.94z" fill="#ebb376"/><path d="m58.22 313.88 3.76-6a.65.65 0 0 0 -.1-.81l-4.83-4.72a1.08 1.08 0 0 0 -1.54 0 .9.9 0 0 0 -.15.19c-1.5 2.5-1.47 2.79-3.4 5.9-1.19 1.91-5 7.55-6.62 10.19s.75 4.61 1.66 3.68c4.07-4.19 7.81-6.93 10.17-7.61a1.82 1.82 0 0 0 1.05-.82z" fill="#263238"/><path d="m57.08 313.77a.19.19 0 0 1 .2 0 .16.16 0 0 1 .1.17c0 .31 0 3.12-.8 3.59a.55.55 0 0 1 -.58 0 1 1 0 0 1 -.61-.81 2.23 2.23 0 0 1 .44-1.41 9 9 0 0 1 1.25-1.54zm-.06.56a3.61 3.61 0 0 0 -1.28 2.31.74.74 0 0 0 .41.53c.13.07.21.06.24 0a.44.44 0 0 0 .16-.17 7.07 7.07 0 0 0 .45-2.67z" fill="#ffab00"/><path d="m57.08 313.71a.19.19 0 0 1 .18 0c.08.06 1.79 1.34 1.93 2.44a.93.93 0 0 1 -.2.75.57.57 0 0 1 -.69.23c-.74-.28-1.35-2.4-1.29-3.27v-.07a.16.16 0 0 1 .07-.08zm1.82 2.53a4.15 4.15 0 0 0 -1.51-2c.09 1 .64 2.4 1.1 2.58 0 0 .16.07.28-.12v-.08a.65.65 0 0 0 .13-.38z" fill="#ffab00"/></svg>