<svg viewBox="0 0 500 500" xmlns="http://www.w3.org/2000/svg"><path d="m99.67 433.12c82.5 44.74 216.26 44.75 298.76 0s82.5-117.31 0-162.06-216.26-44.75-298.76 0-82.51 117.31 0 162.06z" fill="#f0f0f0" opacity=".7"/><ellipse cx="150.39" cy="305.55" fill="#e0e0e0" rx="57.03" ry="27.18"/><path d="m78.72 303.78 6.41-3.66s3.08-16.94.78-31.5c-3.24-20.48-17.18-27.54-22.24-25.51s-6.25 8.1 2.89 19.93c5.44 6.96 12.34 21.74 12.16 40.74z" fill="#f4511e"/><path d="m78.72 303.78 6.41-3.66s3.08-16.94.78-31.5c-3.24-20.48-17.18-27.54-22.24-25.51s-6.25 8.1 2.89 19.93c5.44 6.96 12.34 21.74 12.16 40.74z" opacity=".1"/><path d="m81.05 295.65h-.05a.47.47 0 0 1 -.39-.52c2.63-19.13-5.08-40.13-13.74-48.63a.46.46 0 0 1 .64-.66c8.82 8.62 16.68 30 14 49.42a.46.46 0 0 1 -.46.39z" fill="#fff"/><path d="m60.94 314.06c-1 .58-3.1-.69-3.9-1.23a9.72 9.72 0 0 1 -3.22-3.69 9.1 9.1 0 0 1 -.8-5.44 20.59 20.59 0 0 1 .69-2.89l.81-2.81a7.24 7.24 0 0 0 .41-2.83c-.25-1.92-2-3.27-3.5-4.43-1.72-1.28-3.5-3-3.49-5.29a8.14 8.14 0 0 1 2-4.84c1.1-1.4 2.41-2.63 3.41-4.11a5.74 5.74 0 0 0 1.17-3.59 6.05 6.05 0 0 0 -.79-2.25 31.65 31.65 0 0 1 -2.45-4.5c-.57-1.62-.49-3.63.78-4.79a5.28 5.28 0 0 1 4-1 9 9 0 0 1 3.7 1.3c3.67 2 5.77 6.38 9.66 8a41.13 41.13 0 0 0 4.72 1.15 5.78 5.78 0 0 1 3.86 2.64c1.43 2.86-1.22 6.37-.21 9.41.89 2.68 3.49 3.7 5 6.12a5.76 5.76 0 0 1 .68 3.51 16.76 16.76 0 0 1 -1.47 5.94 42.77 42.77 0 0 1 -3.26 5.34c-.08.06-17.65 10.22-17.8 10.28z" fill="#f4511e"/><path d="m71.34 308.51a.45.45 0 0 1 -.44-.47c.75-18.15-7.8-38.18-14-44a.45.45 0 0 1 .62-.66c6.34 5.93 15.07 26.3 14.3 44.69a.45.45 0 0 1 -.48.44z" fill="#fff"/><path d="m68.63 287.08h-.14a61.51 61.51 0 0 0 -13.17-2.13.46.46 0 0 1 0-.91 62.62 62.62 0 0 1 13.4 2.16.46.46 0 0 1 -.13.9z" fill="#fff"/><path d="m391.77 396.11c3.45-7.5 16-20.54 28.25-26.7s27.74-7.66 35.07-.7c6.82 6.48 1.07 16.69-12 19.22s-31.86 4.59-41.76 14.77l-15.91 10.76z" fill="#f4511e"/><path d="m391.77 396.11c3.45-7.5 16-20.54 28.25-26.7s27.74-7.66 35.07-.7c6.82 6.48 1.07 16.69-12 19.22s-31.86 4.59-41.76 14.77l-15.91 10.76z" opacity=".1"/><path d="m386.51 406.11a.61.61 0 0 0 .7-.21c16.77-23.29 47-34.58 61.52-33.49a.61.61 0 0 0 .65-.56.6.6 0 0 0 -.56-.64c-14.78-1.12-45.57 10.34-62.59 34a.6.6 0 0 0 .14.84.39.39 0 0 0 .14.06z" fill="#fff"/><path d="m382.81 424.24c3.14-3.66 11.48-8.25 22.44-10.17 12.13-2.13 25.12.3 30.08-3.41 5.95-4.46 3.52-12.37-6.47-15.54s-32.56 2.1-44.14 20.31z" fill="#f4511e"/><path d="m383 419a.6.6 0 0 0 .64-.15c17.91-18.32 38.17-18.33 46.38-15.78a.6.6 0 0 0 .75-.4.59.59 0 0 0 -.39-.75c-9.08-2.82-29.32-2.61-47.61 16.09a.6.6 0 0 0 0 .85.59.59 0 0 0 .23.14z" fill="#fff"/><g fill="#f4511e"><path d="m201.24 330.23 11.74 6.77-3.91 2.26h15.64v-9.03l-3.91 2.26-11.73-6.78z"/><path d="m231.54 344.17a.94.94 0 0 1 -.48-.13l-2.92-1.69a1 1 0 0 1 -.35-1.31 1 1 0 0 1 1.32-.36l2.92 1.69a1 1 0 0 1 -.49 1.8z"/><path d="m354.57 415.2a.94.94 0 0 1 -.48-.13l-5.63-3.25a1 1 0 0 1 1-1.67l5.62 3.25a1 1 0 0 1 -.48 1.8zm-13.67-7.9a1 1 0 0 1 -.48-.12l-5.63-3.25a1 1 0 1 1 1-1.67l5.63 3.25a1 1 0 0 1 -.49 1.79zm-13.67-7.89a.94.94 0 0 1 -.48-.13l-5.63-3.28a1 1 0 0 1 -.35-1.31 1 1 0 0 1 1.32-.35l5.63 3.25a1 1 0 0 1 -.49 1.79zm-13.67-7.89a.94.94 0 0 1 -.48-.13l-5.63-3.25a1 1 0 0 1 -.35-1.31 1 1 0 0 1 1.32-.36l5.62 3.25a1 1 0 0 1 -.48 1.8zm-13.67-7.89a.94.94 0 0 1 -.48-.13l-5.63-3.25a1 1 0 0 1 1-1.67l5.63 3.25a1 1 0 0 1 .35 1.32 1 1 0 0 1 -.87.48zm-13.67-7.89a1 1 0 0 1 -.48-.13l-5.63-3.25a1 1 0 1 1 1-1.67l5.63 3.25a1 1 0 0 1 .35 1.31 1 1 0 0 1 -.87.49zm-13.67-7.9a1 1 0 0 1 -.48-.12l-5.63-3.25a1 1 0 0 1 1-1.67l5.63 3.25a1 1 0 0 1 -.49 1.79zm-13.67-7.84a.94.94 0 0 1 -.48-.13l-5.63-3.25a1 1 0 0 1 -.35-1.31 1 1 0 0 1 1.32-.36l5.63 3.25a1 1 0 0 1 -.49 1.8zm-13.67-7.89a.94.94 0 0 1 -.48-.13l-5.63-3.25a1 1 0 0 1 1-1.67l5.63 3.25a1 1 0 0 1 .35 1.32 1 1 0 0 1 -.87.43z"/><path d="m365.53 421.52a1 1 0 0 1 -.48-.12l-2.92-1.69a1 1 0 0 1 -.35-1.31 1 1 0 0 1 1.32-.36l2.91 1.69a1 1 0 0 1 -.48 1.79z"/></g><path d="m429.3 169.32-.9-.52-27.94-16a38.52 38.52 0 0 0 -21.82-6.39c-9.77 0-19.63 3.54-31.24 10-40.57 22.48-75.23 87.3-75.23 129.86v11.73c0 51.58 67.84 114.54 67.84 114.54l28.13 16.25a.12.12 0 0 0 .12.05c-.94-1.11 29.89-46.09 59-133.83 32.14-97.16 2.64-125.13 2.04-125.69zm-47.48 154.22c-23 13.27-42.23 6.32-47.68-15.09-10.53-1.45-18.14-9.55-20.49-22.85-2.95-43 19.87-77.19 52.55-91.07 14-5.09 25.68-1.46 31.94 9.06 19.2-3.3 32.94 9.86 32.94 34.64 0 31.4-22.08 69.62-49.26 85.31z" fill="#455a64"/><path d="m431.08 238.23c0 31.4-22.05 69.62-49.26 85.31-23 13.27-42.23 6.32-47.68-15.09 6.91 1 15.07-.85 23.84-5.92 24.92-14.37 45.1-49.35 45.1-78.09 0-8.54-1.78-15.57-4.94-20.85 19.2-3.3 32.94 9.86 32.94 34.64z" fill="#263238"/><path d="m343.44 305.45 15.63 9.03v-30.28l-15.63-9.03z" fill="#f4511e"/><path d="m343.44 305.45 15.63 9.03v-30.28l-15.63-9.03z" opacity=".2"/><path d="m418.03 250.16-36.23-16.98-36.23 58.82 13.5-7.8v30.28l17.12-9.88v-19.81l11.21-6.47v19.8l17.14-9.9v-30.28z" fill="#f4511e"/><path d="m366.16 224.15 15.64 9.03-36.23 58.82-15.64-9.03z" fill="#f4511e"/><path d="m366.16 224.15 15.64 9.03-36.23 58.82-15.64-9.03z" opacity=".1"/><path d="m366.16 224.15 15.64 9.03 36.23 16.98-15.64-9.03z" fill="#f4511e"/><path d="m366.16 224.15 15.64 9.03 36.23 16.98-15.64-9.03z" fill="#fff" opacity=".4"/><path d="m376.19 304.6 11.21-6.48v-19.8l-11.21 6.47z" fill="#f4511e"/><path d="m376.19 304.6 11.21-6.48v-19.8l-11.21 6.47z" opacity=".2"/><path d="m429.3 169.32-.9-.52c-13.56-7.62-31.68-6.6-51.59 4.88-30 17.35-56 53.79-68.29 92-4.88 15.15-6.94 23.17-6.94 37.82v11.77c0 39.75 44.32 93.22 65.05 112.31a9.35 9.35 0 0 0 1.51 1.14.12.12 0 0 0 .12.05 10.18 10.18 0 0 0 14.5-4.2c17.86-36.57 69.94-146.82 69.94-189.57v-11.73c0-26.5-8.96-45.27-23.4-53.95zm-95.16 139.13c-.28-1.09-.54-2.23-.74-3.4a53.85 53.85 0 0 1 -.84-9.94c0-31.4 22-69.61 49.26-85.3a58.84 58.84 0 0 1 9-4.24 42.45 42.45 0 0 1 7.33-2c19.2-3.3 32.94 9.86 32.94 34.64 0 31.4-22.05 69.62-49.26 85.31-22.98 13.29-42.24 6.34-47.69-15.07z" fill="#37474f"/><g fill="#263238"><path d="m180.6 127.58h-21a17.18 17.18 0 0 1 -17.18-17.18v-4.85a19.08 19.08 0 0 1 19.08-19.08 19.08 19.08 0 0 1 19.08 19.08z"/><path d="m145.47 96.05-4.47-2.37a2.44 2.44 0 0 1 3.35-1.11 2.65 2.65 0 0 1 1.12 3.48z"/><path d="m145.84 96.55-4.7 1.76a2.44 2.44 0 0 1 1.37-3.25 2.66 2.66 0 0 1 3.33 1.49z"/></g><path d="m187.56 151.93 5.78 10.59-8.03 6.89-8.03-12.45z" fill="#9a4a4d"/><path d="m171.4 129.21c3 .26 6.16 1.55 8.33 6l9 18.48s-1.52 6.08-9.44 6.89l-3.14-4.82z" fill="#f4511e"/><path d="m171.4 129.21c3 .26 6.16 1.55 8.33 6l9 18.48s-1.52 6.08-9.44 6.89l-3.14-4.82z" opacity=".1"/><path d="m118 274.6c-1.51-.78-2.46 1.13-3.83 2.67-1 1.07-2.45 2.78-2.67 4-.33 1.82 1.31 4.67 3.12 6.25s3.91 2.7 4.57 6.15 2 5.5 5.58 7.05c3.92 1.69 9.17 1.15 10.95 0 2.11-1.37.18-2.86-2.77-7.09-3.86-5.52-6.87-9.47-6.87-14.62z" fill="#263238"/><path d="m121.09 270.07-3.17 4.65a4.46 4.46 0 0 0 1.08 6.18l.1.07a4.8 4.8 0 0 0 6.07-.94l4.94-5.4z" fill="#b16668"/><path d="m178.06 181.92c.2 5.92 1.24 27.5-3.08 38.83a106.26 106.26 0 0 1 -9 18.47c-1.29 2.21-38.36 38.3-38.36 38.3s-6.3-.46-7.3-6.56c0 0 15.19-25.83 18.48-31.12s14.94-13.42 14.94-13.42l-1.06-49.65z" fill="#37474f"/><path d="m169.72 293.1h8.04v11.71h-8.04z" fill="#b16668" transform="matrix(-.97511067 .22171869 -.22171869 -.97511067 409.44 551.95)"/><path d="m165 200a49.94 49.94 0 0 0 7.17-8.25c6-8.28 5.07-15.63 5.07-15.63h-2.46l-32.41.66c-3.22 5.27-3.92 13.26-2.83 21 2.25 16.15 15.63 44.1 15.63 44.1-.19 2.21-1.12 11.49 1 19.72 3.33 13 12.39 35 12.39 35s5.67.81 8.49-2.47c0 0-5-44.61-6.37-56-1.49-12.42-5.68-38.13-5.68-38.13z" fill="#37474f"/><path d="m178.08 299.9-.26-1.12c.83.16 4.35 6 7.84 8.54 3.82 2.78 7.14 4.42 8.85 5.68 2.28 1.67-1 5.11-6.65 5.41-2.79.15-7.87-.7-9.44-2.18s-2.7-4-3.94-5-3.76-2-4.61-3.37c-.46-.75-.54-2.62-.48-4.22s.09-3.08.6-3.06c0 .17.19.86.19.86a9.82 9.82 0 0 0 4.77 1.05c1.32-.08 3.78-.39 3.13-2.59z" fill="#263238"/><path d="m169.66 230.51s-3.78-26.85-4.66-30.51c0 0 6.66-2.54 8.71-4.86 0 0-1.46 3.25-6.23 6.14z" fill="#263238"/><path d="m149.64 229.47s3.9 10.23 5.52 12.44c0 0-.41 7.61-.35 9.15l-2.11 1.83s-.1-6.39 1-10.26a52.44 52.44 0 0 1 -4.06-13.16z" fill="#263238"/><path d="m176.24 157.89c.51 4.7 1.82 24 1.82 24-15.51 8.28-34.75 2.79-37.69-.62a32.81 32.81 0 0 1 8.71-14.82l-5-14s-.6-1.44-.59-1.45c.31-.52 7.81-7.28 4.12-18a2.7 2.7 0 0 1 2.35-3.55l4.45-.36 12.08-.36c2.88.17 4.94.44 4.94.44 1.85 1.74 4.77 6.49 6.66 11.33 1.19 3.16 2.51 8.15-1.85 17.39z" fill="#f4511e"/><path d="m147.29 157.52 1.77-6.85 2.19 15.82-4.43 2.46 2.26-2.47-2.29-6.39z" opacity=".1"/><path d="m173.78 94.78c2 1.19 4.51 6.26 4.26 16.88-.21 9-3.13 11.24-4.59 11.88s-4.29.25-7-.21v5.41s4.09 7.57 3.17 10.59c-2 .34-4.51-1-8.06-3.41a41.58 41.58 0 0 1 -7.14-6.79l.06-12.43s-1.62 1.57-4.36-.83c-2.26-2-3-5.31-1.26-7.11a3.94 3.94 0 0 1 6.27 1.25s4.39.17 10.22-3a16.41 16.41 0 0 0 8.43-12.23z" fill="#b16668"/><path d="m168 109.4a1.14 1.14 0 1 1 -1.19-1.12 1.16 1.16 0 0 1 1.19 1.12z" fill="#263238"/><path d="m168.29 117 2.63.84a1.36 1.36 0 0 1 -1.71.94 1.44 1.44 0 0 1 -.92-1.78z" fill="#9a4a4d" opacity=".5"/><path d="m177.27 105.92-2.27-1.58a1.33 1.33 0 0 1 1.9-.39 1.44 1.44 0 0 1 .37 1.97z" fill="#263238"/><path d="m176.74 108.58a1.14 1.14 0 0 1 -1.07 1.23 1.18 1.18 0 1 1 1.07-1.23z" fill="#263238"/><path d="m171.4 107.94.18 6.81 3.59-1.11z" fill="#9a4a4d" opacity=".5"/><path d="m166.41 123.33c-2.9-.38-8.86-2.09-9.79-4.45a6.12 6.12 0 0 0 2.09 3c1.78 1.52 7.7 3.24 7.7 3.24z" fill="#9a4a4d" opacity=".5"/><path d="m130.78 174.92c.07-1 1.9-11.37 3.15-17.18l12.22 3.74-2 8.15-10.15 9.83a4 4 0 0 1 -3.22-4.54z" fill="#b16668"/><path d="m149.93 129.49c-4.69.41-10.87 1.11-13.81 14.46-2.76 12.51-3.44 16.88-3.44 16.88s3.61 4.57 12.95 4.07l3.43-14.23c6.25-8.23 4.24-14.12.87-21.18z" fill="#f4511e"/><path d="m189.44 165.24c1.68-3.12 2.1-3.26 3.09-4s7.13-1.6 9.67-1.81c3-.25 4.05.3 3.22 2.87-1.78 5.5-7.18 17.18-8.39 18.8-.79 1-.95 2-4.31 2.36-3.14.31-7.08.48-8.24.55s-2.76.36-1.72-3.05a112.32 112.32 0 0 1 4.59-11.33c1.29-2.76 2.09-4.39 2.09-4.39z" fill="#263238"/><path d="m144.19 169.63s27.16 2.87 30.67 1.78 8.25-4.61 10.79-6.06 4.36-1.58 4.36-1-2.17 3.93-2.66 5.3 2.34 1.37 6.06.52 5.21-3 6.18-1.76-2.06 7.45-8.24 9.76-10.77.78-15.87 1-34.36 2.5-41.45.27a6.25 6.25 0 0 1 2.45-6 21.87 21.87 0 0 1 7.71-3.81z" fill="#b16668"/><path d="m317.79 72.83 7.45-4.3a6.62 6.62 0 0 1 -.06-.91v-2.16a13.31 13.31 0 0 1 6-10.42 4.66 4.66 0 0 1 3.59-.69c.55-5.46 4.33-11.63 8.93-14.28 5-2.87 9-.55 9 5.2v3.22a15.56 15.56 0 0 1 -.76 4.62l6.19-3.57c1.84-1.06 3.33-.2 3.33 1.93a7.38 7.38 0 0 1 -3.33 5.78l-40.34 23.29c-1.84 1.06-3.33.2-3.33-1.93a7.38 7.38 0 0 1 3.33-5.78z" fill="#f0f0f0"/><path d="m282.12 122.84 5.62-3.25a5 5 0 0 1 -.05-.69v-1.62a10.06 10.06 0 0 1 4.54-7.87 3.5 3.5 0 0 1 2.71-.52 15.19 15.19 0 0 1 6.74-10.78c3.75-2.17 6.8-.41 6.8 3.92v2.44a11.69 11.69 0 0 1 -.58 3.48l4.67-2.69c1.39-.8 2.52-.15 2.52 1.45a5.59 5.59 0 0 1 -2.52 4.37l-30.45 17.57c-1.39.81-2.52.16-2.52-1.45a5.56 5.56 0 0 1 2.52-4.36z" fill="#f0f0f0"/></svg>