<svg xmlns="http://www.w3.org/2000/svg" viewBox="0 0 500 500"><g id="freepik--background-simple--inject-19"><path d="M405.73,303.19c-8.85-16.83-13-33.12-8.13-51.76,5.16-19.64,15.09-40.52,12-61.29-4.66-30.9-26.88-62.06-55.53-80.77-27.61-18-61.2-24.51-90.83-8.09-24.41,13.54-39.77,42-69.37,46C159.3,152,145.3,127.7,107,143.57c-15.06,6.24-28,17.58-34,33-6.72,17.46-.92,30.51,6.25,46.78a127.88,127.88,0,0,1,10.62,56.08c-.63,17.06-7.56,33-7.59,50-.06,30,18.23,59.82,48,68,37.33,10.26,73.74-45.74,114.81-49.47,21.42-1.95,32.71,15.3,46.68,28.07,16.74,15.31,38.9,25.8,61.93,24.78C402.91,398.66,427.62,344.79,405.73,303.19Z" style="fill:#F4511E"></path><path d="M405.73,303.19c-8.85-16.83-13-33.12-8.13-51.76,5.16-19.64,15.09-40.52,12-61.29-4.66-30.9-26.88-62.06-55.53-80.77-27.61-18-61.2-24.51-90.83-8.09-24.41,13.54-39.77,42-69.37,46C159.3,152,145.3,127.7,107,143.57c-15.06,6.24-28,17.58-34,33-6.72,17.46-.92,30.51,6.25,46.78a127.88,127.88,0,0,1,10.62,56.08c-.63,17.06-7.56,33-7.59,50-.06,30,18.23,59.82,48,68,37.33,10.26,73.74-45.74,114.81-49.47,21.42-1.95,32.71,15.3,46.68,28.07,16.74,15.31,38.9,25.8,61.93,24.78C402.91,398.66,427.62,344.79,405.73,303.19Z" style="fill:#fff;opacity:0.7000000000000001"></path></g><g id="freepik--Bills--inject-19"><rect x="83.08" y="276.92" width="169.86" height="89.63" transform="translate(243.35 -33.32) rotate(39.55)" style="fill:#fff;stroke:#263238;stroke-linecap:round;stroke-linejoin:round"></rect><path d="M126.44,250.57,90.63,293.94a9.4,9.4,0,0,1,0,11.92l-.37.41L196.47,394c.11-.14.21-.3.33-.44A9.41,9.41,0,0,1,210,392.33l35.59-43.09A9.4,9.4,0,0,1,244.37,336L138.15,248.27A9.42,9.42,0,0,1,126.44,250.57Z" style="fill:#fff;stroke:#263238;stroke-linecap:round;stroke-linejoin:round"></path><path d="M141.47,309.23A29.8,29.8,0,0,0,189,342.58" style="fill:none;stroke:#263238;stroke-linecap:round;stroke-linejoin:round"></path><path d="M155.29,294a29.78,29.78,0,0,0-9.19,7.45c-.29.35-.57.7-.83,1.06" style="fill:none;stroke:#263238;stroke-linecap:round;stroke-linejoin:round"></path><path d="M196.12,333a29.8,29.8,0,0,0-36.86-40.63" style="fill:none;stroke:#263238;stroke-linecap:round;stroke-linejoin:round"></path><circle cx="169.07" cy="320.45" r="27.29" transform="translate(-177.08 213.41) rotate(-45)" style="fill:#263238"></circle><path d="M152.18,322a2.74,2.74,0,0,1,.12-1.75,2.6,2.6,0,0,1,1-1.26,3.7,3.7,0,0,1,1.54-.55,2.29,2.29,0,0,1,1.59.39,3.79,3.79,0,0,1,1.23,1.57c.06.13.22.5.47,1.11s.47,1.12.67,1.55a11,11,0,0,0,1,1.63,11.71,11.71,0,0,0,1.67,1.86,8.2,8.2,0,0,0,1.46,1.22,11.11,11.11,0,0,0,1.67,1,3.11,3.11,0,0,0,1.68.3,2.1,2.1,0,0,0,1.44-.82,1.92,1.92,0,0,0,.24-1.66,6.54,6.54,0,0,0-1.24-2.44l-2.35-3.3c-.87-1.26-1.55-2.3-2-3.11a18.44,18.44,0,0,1-1.32-2.63,6.62,6.62,0,0,1-.58-2.55,6.76,6.76,0,0,1,.46-2.37,9,9,0,0,1,1.56-2.57,7.19,7.19,0,0,1,6.84-2.67q4.2.53,8.59,4.62a18.11,18.11,0,0,1,2.25,2.43,19.72,19.72,0,0,1,1.4,2q.43.76,1,2a3.21,3.21,0,0,1,.31,1.95,2.67,2.67,0,0,1-.74,1.55,3.62,3.62,0,0,1-1.38.84,2,2,0,0,1-1.62-.14,3.67,3.67,0,0,1-1.43-1.4,24.17,24.17,0,0,0-3.58-4.72c-.5-.47-1-.93-1.66-1.4a4.82,4.82,0,0,0-2-.9,1.57,1.57,0,0,0-1.59.45,1.92,1.92,0,0,0-.43,1.71,6.93,6.93,0,0,0,1.3,2.33l2.39,3.22a35.69,35.69,0,0,1,2.27,3.51,12.41,12.41,0,0,1,1.2,3.12,6.33,6.33,0,0,1,0,3.12,8.55,8.55,0,0,1-1.64,3,8.34,8.34,0,0,1-4.66,3.1,9.34,9.34,0,0,1-5.53-.4,17.14,17.14,0,0,1-5.54-3.5A19.75,19.75,0,0,1,152.18,322Zm27.35-18.85a1.84,1.84,0,0,1,1.42-.76,2,2,0,0,1,1.37.46,2,2,0,0,1,.68,1.29,1.81,1.81,0,0,1-.45,1.51L178,311.12l-3-2.49Zm-21.07,26.36,3,2.51L157,337.45a1.83,1.83,0,0,1-1.88.72,2,2,0,0,1-1.54-1.24,1.82,1.82,0,0,1,.37-2Z" style="fill:#fff;stroke:#263238;stroke-miterlimit:10"></path><rect x="71.26" y="281.26" width="169.86" height="89.63" transform="translate(293.04 -8.58) rotate(47.84)" style="fill:#fff;stroke:#263238;stroke-linecap:round;stroke-linejoin:round"></rect><path d="M125.31,249.67l-41.7,37.75a9.41,9.41,0,0,1-1.76,11.8l-.43.35,92.52,102.15c.13-.13.25-.26.39-.39a9.41,9.41,0,0,1,13.28.66L229,364.48a9.42,9.42,0,0,1,.66-13.29L137.22,249.08A9.41,9.41,0,0,1,125.31,249.67Z" style="fill:#fff;stroke:#263238;stroke-linecap:round;stroke-linejoin:round"></path><path d="M131.72,309.88A29.79,29.79,0,0,0,174,349.73" style="fill:none;stroke:#263238;stroke-linecap:round;stroke-linejoin:round"></path><path d="M147.59,296.83a29.76,29.76,0,0,0-10.17,6.05c-.33.3-.66.61-1,.93" style="fill:none;stroke:#263238;stroke-linecap:round;stroke-linejoin:round"></path><path d="M182.38,341.22a29.79,29.79,0,0,0-30.61-45.51" style="fill:none;stroke:#263238;stroke-linecap:round;stroke-linejoin:round"></path><circle cx="157.42" cy="324.96" r="27.29" transform="translate(-183.68 206.49) rotate(-45)" style="fill:#263238"></circle><path d="M140.49,324a2.68,2.68,0,0,1,.37-1.71,2.62,2.62,0,0,1,1.21-1.1,3.75,3.75,0,0,1,1.6-.32,2.22,2.22,0,0,1,1.52.62,3.69,3.69,0,0,1,1,1.72c0,.14.15.53.3,1.16s.31,1.19.45,1.63a10.39,10.39,0,0,0,.77,1.77,11.61,11.61,0,0,0,1.39,2.08,8.19,8.19,0,0,0,1.26,1.42,12.92,12.92,0,0,0,1.52,1.19,3.05,3.05,0,0,0,1.61.53,2.08,2.08,0,0,0,1.55-.59,1.89,1.89,0,0,0,.47-1.62,6.45,6.45,0,0,0-.86-2.58l-1.85-3.61c-.69-1.38-1.21-2.5-1.58-3.37a20,20,0,0,1-.92-2.8,6.57,6.57,0,0,1-.22-2.6,6.94,6.94,0,0,1,.81-2.29,9.08,9.08,0,0,1,1.9-2.31,7.19,7.19,0,0,1,7.16-1.66q4.09,1.13,7.84,5.82a20.56,20.56,0,0,1,3,4.93c.21.55.46,1.27.74,2.17a3.2,3.2,0,0,1,0,2,2.69,2.69,0,0,1-1,1.42,3.65,3.65,0,0,1-1.48.64,2,2,0,0,1-1.58-.37,3.71,3.71,0,0,1-1.22-1.6,24.42,24.42,0,0,0-2.86-5.19c-.43-.53-.91-1.07-1.45-1.62a4.55,4.55,0,0,0-1.81-1.17,1.52,1.52,0,0,0-1.64.22,1.85,1.85,0,0,0-.67,1.62,6.62,6.62,0,0,0,1,2.49l1.89,3.54a35.53,35.53,0,0,1,1.75,3.8,12.22,12.22,0,0,1,.74,3.25,6.34,6.34,0,0,1-.49,3.09,9.3,9.3,0,0,1-7.12,5.18,9.33,9.33,0,0,1-5.41-1.19,17.11,17.11,0,0,1-5-4.27A19.64,19.64,0,0,1,140.49,324Zm29.78-14.71a1.86,1.86,0,0,1,1.52-.55,2,2,0,0,1,1.28.66,2,2,0,0,1,.49,1.37,1.8,1.8,0,0,1-.66,1.42L167.6,317,165,314.11Zm-24.64,23,2.65,2.93L143,340.05a1.82,1.82,0,0,1-2,.43,2,2,0,0,1-1.34-1.44,1.8,1.8,0,0,1,.65-1.92Z" style="fill:#fff;stroke:#263238;stroke-miterlimit:10"></path><rect x="52.51" y="284.49" width="169.86" height="89.63" transform="translate(355.67 46.98) rotate(60.36)" style="fill:#fff;stroke:#263238;stroke-linecap:round;stroke-linejoin:round"></rect><path d="M123.86,248,75,275.84A9.41,9.41,0,0,1,70.7,287l-.5.25L138.37,407c.15-.1.3-.2.46-.29a9.4,9.4,0,0,1,12.83,3.52l48.57-27.64a9.41,9.41,0,0,1,3.52-12.83L135.61,250A9.41,9.41,0,0,1,123.86,248Z" style="fill:#fff;stroke:#263238;stroke-linecap:round;stroke-linejoin:round"></path><path d="M117.07,308.19a29.79,29.79,0,0,0,32.6,48.06" style="fill:none;stroke:#263238;stroke-linecap:round;stroke-linejoin:round"></path><path d="M135.38,298.89a29.86,29.86,0,0,0-11.23,3.7c-.39.23-.78.46-1.16.7" style="fill:none;stroke:#263238;stroke-linecap:round;stroke-linejoin:round"></path><path d="M159.73,349.77a29.8,29.8,0,0,0-20-51.07" style="fill:none;stroke:#263238;stroke-linecap:round;stroke-linejoin:round"></path><circle cx="138.88" cy="328.48" r="27.29" transform="translate(-199.54 215.96) rotate(-48.69)" style="fill:#263238"></circle><path d="M122.56,323.89a2.73,2.73,0,0,1,.73-1.59,2.67,2.67,0,0,1,1.42-.81,3.79,3.79,0,0,1,1.64,0,2.21,2.21,0,0,1,1.34.93,3.6,3.6,0,0,1,.6,1.9c0,.14,0,.54,0,1.2s0,1.22.08,1.69a11.54,11.54,0,0,0,.37,1.89,12.09,12.09,0,0,0,.91,2.33,8.36,8.36,0,0,0,.92,1.66,12.68,12.68,0,0,0,1.23,1.49,3,3,0,0,0,1.46.87,2.14,2.14,0,0,0,1.64-.24,1.91,1.91,0,0,0,.81-1.48,6.48,6.48,0,0,0-.29-2.71l-1-3.93c-.37-1.49-.64-2.7-.81-3.62a19.5,19.5,0,0,1-.3-2.94,6.67,6.67,0,0,1,.36-2.59,7.15,7.15,0,0,1,1.28-2.05,9.08,9.08,0,0,1,2.37-1.85,7.16,7.16,0,0,1,7.34-.06q3.75,2,6.39,7.37a19.54,19.54,0,0,1,1.24,3.07,20.11,20.11,0,0,1,.59,2.39c.09.58.18,1.34.25,2.28a3.18,3.18,0,0,1-.4,1.94,2.7,2.7,0,0,1-1.24,1.18,3.53,3.53,0,0,1-1.59.3,2,2,0,0,1-1.46-.7,3.71,3.71,0,0,1-.84-1.83,24.42,24.42,0,0,0-1.67-5.68c-.3-.61-.66-1.24-1.06-1.9a4.76,4.76,0,0,0-1.52-1.54,1.53,1.53,0,0,0-1.64-.14,1.87,1.87,0,0,0-1,1.44,6.83,6.83,0,0,0,.39,2.64l1.08,3.86a34.22,34.22,0,0,1,.88,4.09,12.46,12.46,0,0,1,0,3.34A6.41,6.41,0,0,1,142,339a8.47,8.47,0,0,1-2.62,2.28,8.37,8.37,0,0,1-5.46,1.24,9.41,9.41,0,0,1-5-2.33,17.13,17.13,0,0,1-3.94-5.25A19.7,19.7,0,0,1,122.56,323.89Zm32.26-7.9a1.87,1.87,0,0,1,1.6-.21,1.93,1.93,0,0,1,1.11.92,2,2,0,0,1,.19,1.45,1.84,1.84,0,0,1-1,1.25l-6.22,3.53-1.94-3.4Zm-29,17.15,2,3.44-6.17,3.51a1.83,1.83,0,0,1-2,0,2.06,2.06,0,0,1-1-1.7,1.82,1.82,0,0,1,1.06-1.73Z" style="fill:#fff;stroke:#263238;stroke-miterlimit:10"></path></g><g id="freepik--Card--inject-19"><rect x="144.61" y="174.08" width="228.25" height="139.52" rx="8.13" transform="translate(-15.19 17.2) rotate(-3.7)" style="fill:#F4511E;stroke:#263238;stroke-linecap:round;stroke-linejoin:round"></rect><path d="M361.14,167.32l-213.8,13.81a7,7,0,0,0-6.54,7.45l2.33,36,227.78-14.72-2.33-36A7,7,0,0,0,361.14,167.32Z" style="fill:#263238;stroke:#263238;stroke-linecap:round;stroke-linejoin:round"></path><path d="M228.58,285.53c-39.1,20.12-64.62,24.6-79.94,24.41l.25,3.89a7,7,0,0,0,7.45,6.54l213.79-13.82a7,7,0,0,0,6.54-7.45l-4.51-69.83C310.85,230.42,293.48,252.13,228.58,285.53Z" style="fill:#263238;stroke:#263238;stroke-linecap:round;stroke-linejoin:round"></path><rect x="163.85" y="213.39" width="24.42" height="23.61" rx="3.07" transform="translate(-14.16 11.82) rotate(-3.7)" style="fill:#fff;stroke:#263238;stroke-linecap:round;stroke-linejoin:round"></rect><rect x="172.27" y="221.53" width="7.57" height="7.32" rx="1.5" transform="translate(-14.16 11.83) rotate(-3.7)" style="fill:#fff;stroke:#263238;stroke-linecap:round;stroke-linejoin:round"></rect><path d="M163.28,216.84l7.14-.46a2.52,2.52,0,0,1,2.68,2.36l.2,3" style="fill:none;stroke:#263238;stroke-linecap:round;stroke-linejoin:round"></path><path d="M187.65,215.27l-7.05.45a2.53,2.53,0,0,0-2.36,2.68l.2,3" style="fill:none;stroke:#263238;stroke-linecap:round;stroke-linejoin:round"></path><path d="M164.48,235.32l7.14-.46a2.52,2.52,0,0,0,2.35-2.68l-.19-3" style="fill:none;stroke:#263238;stroke-linecap:round;stroke-linejoin:round"></path><path d="M188.85,233.75l-7,.45a2.52,2.52,0,0,1-2.69-2.35l-.19-3" style="fill:none;stroke:#263238;stroke-linecap:round;stroke-linejoin:round"></path><line x1="163.95" y1="226.55" x2="172.32" y2="226.01" style="fill:none;stroke:#263238;stroke-linecap:round;stroke-linejoin:round"></line><line x1="179.67" y1="225.53" x2="188.03" y2="224.99" style="fill:none;stroke:#263238;stroke-linecap:round;stroke-linejoin:round"></line><text transform="translate(266.11 201.13) rotate(-3.7)" style="font-size:12.450530052185059px;fill:#fff;font-family:Nunito-Regular, Nunito">CREDIT CARD</text><text transform="translate(165.71 272.28) rotate(-3.7)" style="font-size:14.383560180664062px;fill:#fff;stroke:#263238;stroke-linecap:round;stroke-linejoin:round;stroke-width:0.25px;font-family:Nunito-Regular, Nunito;letter-spacing:0.10000838070909286em"><tspan xml:space="preserve">0000000000000000</tspan></text><circle cx="328.37" cy="286.13" r="11.42" transform="translate(-56.54 489.95) rotate(-68.97)" style="fill:#fff;stroke:#263238;stroke-linecap:round;stroke-linejoin:round"></circle><circle cx="343.85" cy="285.13" r="11.42" transform="translate(35.65 608.45) rotate(-86.04)" style="fill:#fff;stroke:#263238;stroke-linecap:round;stroke-linejoin:round"></circle></g><g id="freepik--Coins--inject-19"><circle cx="420.78" cy="281.68" r="26.2" transform="translate(-59.63 121.67) rotate(-15.38)" style="fill:#fff;stroke:#263238;stroke-linecap:round;stroke-linejoin:round"></circle><circle cx="420.78" cy="278.18" r="26.2" transform="translate(117.03 680.89) rotate(-86.44)" style="fill:#fff;stroke:#263238;stroke-linecap:round;stroke-linejoin:round"></circle><path d="M442.15,271.91a22.28,22.28,0,0,0-5.64-9.5" style="fill:#fff;stroke:#263238;stroke-linecap:round;stroke-linejoin:round"></path><path d="M423.25,300.31a21.85,21.85,0,0,0,3.25-.61,22.28,22.28,0,0,0,16.43-23.86" style="fill:#fff;stroke:#263238;stroke-linecap:round;stroke-linejoin:round"></path><path d="M433.28,259.75a22.27,22.27,0,1,0-12.41,40.7" style="fill:#fff;stroke:#263238;stroke-linecap:round;stroke-linejoin:round"></path><path d="M414,289.59a2.09,2.09,0,0,1-1.05-.86,2.14,2.14,0,0,1-.32-1.21,2.85,2.85,0,0,1,.35-1.22,1.7,1.7,0,0,1,1-.82,2.86,2.86,0,0,1,1.53-.07l.9.21c.49.11.92.21,1.27.27a9.59,9.59,0,0,0,1.49.09,8.94,8.94,0,0,0,1.91-.21,6.78,6.78,0,0,0,1.42-.37,8.44,8.44,0,0,0,1.35-.62,2.38,2.38,0,0,0,.94-.92,1.63,1.63,0,0,0,.13-1.27,1.46,1.46,0,0,0-.93-.89,5,5,0,0,0-2.08-.32h-3.13c-1.18,0-2.13-.05-2.86-.11a14.21,14.21,0,0,1-2.24-.35,5.18,5.18,0,0,1-1.86-.77,5.24,5.24,0,0,1-1.28-1.36,7,7,0,0,1-.92-2.13,5.54,5.54,0,0,1,1.4-5.48,12.15,12.15,0,0,1,6.75-3.32,15.23,15.23,0,0,1,2.53-.32,13.63,13.63,0,0,1,1.89,0c.45.05,1,.13,1.75.26a2.45,2.45,0,0,1,1.37.68,2,2,0,0,1,.63,1.15,2.79,2.79,0,0,1-.08,1.25,1.58,1.58,0,0,1-.81,1,2.84,2.84,0,0,1-1.53.27,18.88,18.88,0,0,0-4.56.13,13.85,13.85,0,0,0-1.62.42,3.63,3.63,0,0,0-1.45.82,1.18,1.18,0,0,0-.43,1.2,1.46,1.46,0,0,0,.88,1,5.31,5.31,0,0,0,2,.23l3.09-.06a29.13,29.13,0,0,1,3.22.15,9.69,9.69,0,0,1,2.49.64,5,5,0,0,1,1.94,1.42,7.22,7.22,0,0,1,1,6.71,7.27,7.27,0,0,1-2.73,3.29,13.25,13.25,0,0,1-4.68,1.9A15.24,15.24,0,0,1,414,289.59Zm.44-25.59a1.4,1.4,0,0,1,.16-1.23,1.46,1.46,0,0,1,.9-.65,1.61,1.61,0,0,1,1.11.14,1.41,1.41,0,0,1,.74,1l1.42,5.33-2.92.78Zm7.08,25,2.94-.78,1.41,5.29a1.41,1.41,0,0,1-.4,1.5,1.58,1.58,0,0,1-1.46.41,1.41,1.41,0,0,1-1.08-1.13Z" style="fill:#263238"></path><line x1="399.13" y1="292.85" x2="399.13" y2="296.16" style="fill:none;stroke:#263238;stroke-linecap:round;stroke-linejoin:round"></line><line x1="401.47" y1="296.16" x2="401.47" y2="299.68" style="fill:none;stroke:#263238;stroke-linecap:round;stroke-linejoin:round"></line><line x1="406.15" y1="300.07" x2="406.15" y2="303.38" style="fill:none;stroke:#263238;stroke-linecap:round;stroke-linejoin:round"></line><line x1="412.78" y1="303.38" x2="412.78" y2="306.31" style="fill:none;stroke:#263238;stroke-linecap:round;stroke-linejoin:round"></line><line x1="420" y1="304.75" x2="420" y2="306.11" style="fill:none;stroke:#263238;stroke-linecap:round;stroke-linejoin:round"></line><line x1="434.24" y1="304.16" x2="434.24" y2="302.02" style="fill:none;stroke:#263238;stroke-linecap:round;stroke-linejoin:round"></line><line x1="437.36" y1="302.02" x2="437.36" y2="298.7" style="fill:none;stroke:#263238;stroke-linecap:round;stroke-linejoin:round"></line><circle cx="383.36" cy="303.2" r="26.2" transform="translate(-46.58 70.72) rotate(-9.94)" style="fill:#fff;stroke:#263238;stroke-linecap:round;stroke-linejoin:round"></circle><circle cx="383.36" cy="299.69" r="26.2" transform="translate(-45.98 70.67) rotate(-9.94)" style="fill:#fff;stroke:#263238;stroke-linecap:round;stroke-linejoin:round"></circle><path d="M402.34,311.34a22.27,22.27,0,1,0-30.62,7.33A22.28,22.28,0,0,0,402.34,311.34Z" style="fill:#fff;stroke:#263238;stroke-linecap:round;stroke-linejoin:round"></path><path d="M370.43,302.65a2.1,2.1,0,0,1-.1-1.35,2.08,2.08,0,0,1,.66-1.07,2.81,2.81,0,0,1,1.11-.58,1.73,1.73,0,0,1,1.26.12,3,3,0,0,1,1.11,1.07c.06.09.22.35.47.79s.48.81.68,1.11a9,9,0,0,0,1,1.14,9.28,9.28,0,0,0,1.47,1.24,6.82,6.82,0,0,0,1.25.77,8.69,8.69,0,0,0,1.38.56,2.43,2.43,0,0,0,1.31,0,1.64,1.64,0,0,0,1-.77,1.46,1.46,0,0,0,0-1.3,5.12,5.12,0,0,0-1.2-1.73l-2.15-2.27c-.8-.86-1.43-1.58-1.89-2.14a15.4,15.4,0,0,1-1.29-1.87,4.93,4.93,0,0,1-.72-1.88,5.24,5.24,0,0,1,.1-1.87,6.92,6.92,0,0,1,.91-2.12,5.53,5.53,0,0,1,4.93-2.78,12.19,12.19,0,0,1,7.05,2.61,14,14,0,0,1,2,1.61,16.72,16.72,0,0,1,1.29,1.39c.28.36.61.84,1,1.45a2.43,2.43,0,0,1,.46,1.46,2.1,2.1,0,0,1-.4,1.25,2.8,2.8,0,0,1-1,.8,1.52,1.52,0,0,1-1.24.07,2.94,2.94,0,0,1-1.25-.92,18.64,18.64,0,0,0-3.24-3.22,16.63,16.63,0,0,0-1.42-.88,3.58,3.58,0,0,0-1.59-.48,1.17,1.17,0,0,0-1.17.52,1.43,1.43,0,0,0-.14,1.34,5.17,5.17,0,0,0,1.24,1.64l2.17,2.2a28.74,28.74,0,0,1,2.11,2.44,9.38,9.38,0,0,1,1.25,2.24,4.82,4.82,0,0,1,.31,2.39,6.55,6.55,0,0,1-.92,2.5,6.45,6.45,0,0,1-3.23,2.88,7.22,7.22,0,0,1-4.26.28,13.08,13.08,0,0,1-4.6-2.08A15.13,15.13,0,0,1,370.43,302.65Zm18.84-17.32a1.43,1.43,0,0,1,1-.74,1.55,1.55,0,0,1,1.09.21,1.65,1.65,0,0,1,.67.91,1.41,1.41,0,0,1-.19,1.2l-2.88,4.7L386.39,290ZM376,307.7l2.59,1.59L375.76,314a1.4,1.4,0,0,1-1.35.74,1.54,1.54,0,0,1-1.31-.77,1.39,1.39,0,0,1,.07-1.56Z" style="fill:#263238"></path><line x1="361.71" y1="314.36" x2="361.71" y2="317.68" style="fill:none;stroke:#263238;stroke-linecap:round;stroke-linejoin:round"></line><line x1="364.05" y1="317.68" x2="364.05" y2="321.19" style="fill:none;stroke:#263238;stroke-linecap:round;stroke-linejoin:round"></line><line x1="368.73" y1="321.58" x2="368.73" y2="324.89" style="fill:none;stroke:#263238;stroke-linecap:round;stroke-linejoin:round"></line><line x1="375.36" y1="324.89" x2="375.36" y2="327.82" style="fill:none;stroke:#263238;stroke-linecap:round;stroke-linejoin:round"></line><line x1="382.58" y1="326.26" x2="382.58" y2="327.63" style="fill:none;stroke:#263238;stroke-linecap:round;stroke-linejoin:round"></line><line x1="396.82" y1="325.67" x2="396.82" y2="323.53" style="fill:none;stroke:#263238;stroke-linecap:round;stroke-linejoin:round"></line><line x1="399.94" y1="323.53" x2="399.94" y2="320.21" style="fill:none;stroke:#263238;stroke-linecap:round;stroke-linejoin:round"></line><circle cx="383.36" cy="297.81" r="26.2" transform="translate(-52.99 85.07) rotate(-11.85)" style="fill:#fff;stroke:#263238;stroke-linecap:round;stroke-linejoin:round"></circle><circle cx="383.36" cy="294.31" r="26.2" transform="translate(-52.27 84.99) rotate(-11.85)" style="fill:#fff;stroke:#263238;stroke-linecap:round;stroke-linejoin:round"></circle><circle cx="383.36" cy="294.31" r="22.27" transform="translate(-57.68 96.65) rotate(-13.37)" style="fill:#fff;stroke:#263238;stroke-linecap:round;stroke-linejoin:round"></circle><path d="M370.43,297.26a2.11,2.11,0,0,1,.56-2.41,2.83,2.83,0,0,1,1.11-.59,1.78,1.78,0,0,1,1.26.13,2.92,2.92,0,0,1,1.11,1.06c.06.1.22.36.47.8s.48.81.68,1.11a9,9,0,0,0,1,1.14,9.22,9.22,0,0,0,1.47,1.23,6.34,6.34,0,0,0,1.25.78,8.61,8.61,0,0,0,1.38.55,2.34,2.34,0,0,0,1.31.05,1.65,1.65,0,0,0,1-.78,1.46,1.46,0,0,0,0-1.3,5.09,5.09,0,0,0-1.2-1.72L379.65,295c-.8-.87-1.43-1.58-1.89-2.15a14.65,14.65,0,0,1-1.29-1.87,4.88,4.88,0,0,1-.72-1.88,5.19,5.19,0,0,1,.1-1.86,7.07,7.07,0,0,1,.91-2.13,5.52,5.52,0,0,1,4.93-2.77,12.12,12.12,0,0,1,7.05,2.61,14,14,0,0,1,2,1.61A15.26,15.26,0,0,1,392,288c.28.36.61.84,1,1.44a2.47,2.47,0,0,1,.46,1.46,2.1,2.1,0,0,1-.4,1.26,2.91,2.91,0,0,1-1,.8,1.52,1.52,0,0,1-1.24.06,2.91,2.91,0,0,1-1.25-.91,18.29,18.29,0,0,0-3.24-3.22A16.63,16.63,0,0,0,385,288a3.58,3.58,0,0,0-1.59-.48,1.21,1.21,0,0,0-1.17.52,1.45,1.45,0,0,0-.14,1.35A5.17,5.17,0,0,0,383.3,291l2.17,2.2a25.94,25.94,0,0,1,2.11,2.44,9.19,9.19,0,0,1,1.25,2.24,4.81,4.81,0,0,1,.31,2.39,6.61,6.61,0,0,1-.92,2.5,6.47,6.47,0,0,1-3.23,2.87,7.22,7.22,0,0,1-4.26.29,13.27,13.27,0,0,1-4.6-2.08A15.1,15.1,0,0,1,370.43,297.26Zm18.84-17.32a1.47,1.47,0,0,1,2.09-.52,1.58,1.58,0,0,1,.67.91,1.39,1.39,0,0,1-.19,1.19l-2.88,4.7-2.57-1.58ZM376,302.32l2.59,1.59-2.86,4.66a1.39,1.39,0,0,1-1.35.75,1.57,1.57,0,0,1-1.31-.78,1.39,1.39,0,0,1,.07-1.56Z" style="fill:#263238"></path><line x1="361.71" y1="308.98" x2="361.71" y2="312.29" style="fill:none;stroke:#263238;stroke-linecap:round;stroke-linejoin:round"></line><line x1="364.05" y1="312.29" x2="364.05" y2="315.8" style="fill:none;stroke:#263238;stroke-linecap:round;stroke-linejoin:round"></line><line x1="368.73" y1="316.19" x2="368.73" y2="319.51" style="fill:none;stroke:#263238;stroke-linecap:round;stroke-linejoin:round"></line><line x1="375.36" y1="319.51" x2="375.36" y2="322.44" style="fill:none;stroke:#263238;stroke-linecap:round;stroke-linejoin:round"></line><line x1="382.58" y1="320.88" x2="382.58" y2="322.24" style="fill:none;stroke:#263238;stroke-linecap:round;stroke-linejoin:round"></line><line x1="396.82" y1="320.29" x2="396.82" y2="318.15" style="fill:none;stroke:#263238;stroke-linecap:round;stroke-linejoin:round"></line><line x1="399.94" y1="318.15" x2="399.94" y2="314.83" style="fill:none;stroke:#263238;stroke-linecap:round;stroke-linejoin:round"></line><circle cx="383.36" cy="292.39" r="26.2" transform="translate(-69.5 457.84) rotate(-57.4)" style="fill:#fff;stroke:#263238;stroke-linecap:round;stroke-linejoin:round"></circle><circle cx="383.36" cy="288.89" r="26.2" transform="translate(-66.55 456.22) rotate(-57.4)" style="fill:#fff;stroke:#263238;stroke-linecap:round;stroke-linejoin:round"></circle><circle cx="383.36" cy="288.89" r="22.27" transform="translate(-13.67 558.67) rotate(-71.2)" style="fill:#fff;stroke:#263238;stroke-linecap:round;stroke-linejoin:round"></circle><path d="M370.43,291.84a2.07,2.07,0,0,1-.1-1.34,2.15,2.15,0,0,1,.66-1.08,3,3,0,0,1,1.11-.58,1.68,1.68,0,0,1,1.26.13,2.92,2.92,0,0,1,1.11,1.06c.06.09.22.36.47.79s.48.81.68,1.11a7.81,7.81,0,0,0,1,1.14,9.28,9.28,0,0,0,1.47,1.24,6.34,6.34,0,0,0,1.25.78,9.66,9.66,0,0,0,1.38.55,2.34,2.34,0,0,0,1.31,0,1.6,1.6,0,0,0,1-.77,1.46,1.46,0,0,0,0-1.3,5.09,5.09,0,0,0-1.2-1.72l-2.15-2.27c-.8-.87-1.43-1.59-1.89-2.15a15.4,15.4,0,0,1-1.29-1.87,4.93,4.93,0,0,1-.72-1.88,5.19,5.19,0,0,1,.1-1.86,7,7,0,0,1,.91-2.13,5.5,5.5,0,0,1,4.93-2.77,12.1,12.1,0,0,1,7.05,2.6,14.74,14.74,0,0,1,2,1.61,15.13,15.13,0,0,1,1.29,1.4c.28.36.61.84,1,1.44a2.45,2.45,0,0,1,.46,1.46,2.1,2.1,0,0,1-.4,1.26,2.89,2.89,0,0,1-1,.79,1.52,1.52,0,0,1-1.24.07,2.86,2.86,0,0,1-1.25-.92,18.64,18.64,0,0,0-3.24-3.22,16.63,16.63,0,0,0-1.42-.88,3.58,3.58,0,0,0-1.59-.48,1.19,1.19,0,0,0-1.17.52,1.45,1.45,0,0,0-.14,1.35,5.15,5.15,0,0,0,1.24,1.63l2.17,2.2a28.74,28.74,0,0,1,2.11,2.44,9.25,9.25,0,0,1,1.25,2.25,4.77,4.77,0,0,1,.31,2.38,6.59,6.59,0,0,1-.92,2.51,6.47,6.47,0,0,1-3.23,2.87,7.3,7.3,0,0,1-4.26.29,13.27,13.27,0,0,1-4.6-2.08A15.21,15.21,0,0,1,370.43,291.84Zm18.84-17.32a1.41,1.41,0,0,1,1-.73,1.5,1.5,0,0,1,1.09.2,1.65,1.65,0,0,1,.67.91,1.41,1.41,0,0,1-.19,1.2L389,280.8l-2.57-1.58ZM376,296.9l2.59,1.59-2.86,4.66a1.42,1.42,0,0,1-1.35.75,1.57,1.57,0,0,1-1.31-.78,1.39,1.39,0,0,1,.07-1.56Z" style="fill:#263238"></path><line x1="361.71" y1="303.55" x2="361.71" y2="306.87" style="fill:none;stroke:#263238;stroke-linecap:round;stroke-linejoin:round"></line><line x1="364.05" y1="306.87" x2="364.05" y2="310.38" style="fill:none;stroke:#263238;stroke-linecap:round;stroke-linejoin:round"></line><line x1="368.73" y1="310.77" x2="368.73" y2="314.09" style="fill:none;stroke:#263238;stroke-linecap:round;stroke-linejoin:round"></line><line x1="375.36" y1="314.09" x2="375.36" y2="317.01" style="fill:none;stroke:#263238;stroke-linecap:round;stroke-linejoin:round"></line><line x1="382.58" y1="315.45" x2="382.58" y2="316.82" style="fill:none;stroke:#263238;stroke-linecap:round;stroke-linejoin:round"></line><line x1="396.82" y1="314.87" x2="396.82" y2="312.72" style="fill:none;stroke:#263238;stroke-linecap:round;stroke-linejoin:round"></line><line x1="399.94" y1="312.72" x2="399.94" y2="309.41" style="fill:none;stroke:#263238;stroke-linecap:round;stroke-linejoin:round"></line><circle cx="383.36" cy="287.5" r="26.2" transform="translate(-43.87 70.49) rotate(-9.94)" style="fill:#fff;stroke:#263238;stroke-linecap:round;stroke-linejoin:round"></circle><circle cx="383.36" cy="284" r="26.2" transform="translate(-41.87 67.67) rotate(-9.57)" style="fill:#fff;stroke:#263238;stroke-linecap:round;stroke-linejoin:round"></circle><circle cx="383.36" cy="284" r="22.27" transform="translate(-9.05 555.36) rotate(-71.2)" style="fill:#fff;stroke:#263238;stroke-linecap:round;stroke-linejoin:round"></circle><path d="M370.43,287a2.11,2.11,0,0,1,.56-2.41,2.83,2.83,0,0,1,1.11-.59,1.73,1.73,0,0,1,1.26.13,2.92,2.92,0,0,1,1.11,1.06c.06.09.22.36.47.8s.48.81.68,1.11a9,9,0,0,0,1,1.14,9.22,9.22,0,0,0,1.47,1.23,6.34,6.34,0,0,0,1.25.78,8.61,8.61,0,0,0,1.38.55,2.44,2.44,0,0,0,1.31.05,1.65,1.65,0,0,0,1-.78,1.46,1.46,0,0,0,0-1.3,5.09,5.09,0,0,0-1.2-1.72l-2.15-2.27c-.8-.87-1.43-1.58-1.89-2.15a14.65,14.65,0,0,1-1.29-1.87,4.88,4.88,0,0,1-.72-1.88,5.19,5.19,0,0,1,.1-1.86,7.07,7.07,0,0,1,.91-2.13,5.52,5.52,0,0,1,4.93-2.77,12.12,12.12,0,0,1,7.05,2.61,14,14,0,0,1,2,1.61,15.26,15.26,0,0,1,1.29,1.39c.28.36.61.84,1,1.44a2.47,2.47,0,0,1,.46,1.46,2.1,2.1,0,0,1-.4,1.26,2.91,2.91,0,0,1-1,.8,1.52,1.52,0,0,1-1.24.06,2.86,2.86,0,0,1-1.25-.92,18.58,18.58,0,0,0-3.24-3.21,16.63,16.63,0,0,0-1.42-.89,3.58,3.58,0,0,0-1.59-.48,1.21,1.21,0,0,0-1.17.52,1.45,1.45,0,0,0-.14,1.35,5.17,5.17,0,0,0,1.24,1.64l2.17,2.2a25.94,25.94,0,0,1,2.11,2.44,9.19,9.19,0,0,1,1.25,2.24,4.81,4.81,0,0,1,.31,2.39,6.61,6.61,0,0,1-.92,2.5,6.47,6.47,0,0,1-3.23,2.87,7.22,7.22,0,0,1-4.26.29,13.27,13.27,0,0,1-4.6-2.08A15.1,15.1,0,0,1,370.43,287Zm18.84-17.32a1.47,1.47,0,0,1,2.09-.52,1.59,1.59,0,0,1,.67.9,1.41,1.41,0,0,1-.19,1.2l-2.88,4.7-2.57-1.58ZM376,292l2.59,1.59-2.86,4.66a1.39,1.39,0,0,1-1.35.75,1.57,1.57,0,0,1-1.31-.78,1.39,1.39,0,0,1,.07-1.56Z" style="fill:#263238"></path><line x1="361.71" y1="298.67" x2="361.71" y2="301.98" style="fill:none;stroke:#263238;stroke-linecap:round;stroke-linejoin:round"></line><line x1="364.05" y1="301.98" x2="364.05" y2="305.49" style="fill:none;stroke:#263238;stroke-linecap:round;stroke-linejoin:round"></line><line x1="368.73" y1="305.88" x2="368.73" y2="309.2" style="fill:none;stroke:#263238;stroke-linecap:round;stroke-linejoin:round"></line><line x1="375.36" y1="309.2" x2="375.36" y2="312.13" style="fill:none;stroke:#263238;stroke-linecap:round;stroke-linejoin:round"></line><line x1="382.58" y1="310.57" x2="382.58" y2="311.93" style="fill:none;stroke:#263238;stroke-linecap:round;stroke-linejoin:round"></line><line x1="396.82" y1="309.98" x2="396.82" y2="307.84" style="fill:none;stroke:#263238;stroke-linecap:round;stroke-linejoin:round"></line><line x1="399.94" y1="307.84" x2="399.94" y2="304.52" style="fill:none;stroke:#263238;stroke-linecap:round;stroke-linejoin:round"></line><circle cx="383.36" cy="282.62" r="26.2" transform="translate(-43.03 70.42) rotate(-9.94)" style="fill:#fff;stroke:#263238;stroke-linecap:round;stroke-linejoin:round"></circle><circle cx="383.36" cy="279.11" r="26.2" transform="translate(-42.42 70.36) rotate(-9.94)" style="fill:#fff;stroke:#263238;stroke-linecap:round;stroke-linejoin:round"></circle><circle cx="383.36" cy="279.11" r="22.27" transform="translate(-4.42 552.05) rotate(-71.2)" style="fill:#fff;stroke:#263238;stroke-linecap:round;stroke-linejoin:round"></circle><path d="M370.43,282.07a2.11,2.11,0,0,1-.1-1.35,2.08,2.08,0,0,1,.66-1.07,2.81,2.81,0,0,1,1.11-.58,1.73,1.73,0,0,1,1.26.12,3,3,0,0,1,1.11,1.07c.06.09.22.35.47.79s.48.81.68,1.11a9,9,0,0,0,1,1.14,9.28,9.28,0,0,0,1.47,1.24,6.82,6.82,0,0,0,1.25.77,9.75,9.75,0,0,0,1.38.56,2.43,2.43,0,0,0,1.31,0,1.65,1.65,0,0,0,1-.78,1.44,1.44,0,0,0,0-1.29,5.12,5.12,0,0,0-1.2-1.73l-2.15-2.27c-.8-.87-1.43-1.58-1.89-2.15a14,14,0,0,1-1.29-1.87,4.88,4.88,0,0,1-.72-1.88,5.19,5.19,0,0,1,.1-1.86,6.92,6.92,0,0,1,.91-2.12,5.53,5.53,0,0,1,4.93-2.78,12.19,12.19,0,0,1,7.05,2.61,14,14,0,0,1,2,1.61,16.72,16.72,0,0,1,1.29,1.39c.28.36.61.84,1,1.45a2.43,2.43,0,0,1,.46,1.46,2.1,2.1,0,0,1-.4,1.25,2.91,2.91,0,0,1-1,.8,1.52,1.52,0,0,1-1.24.07,2.94,2.94,0,0,1-1.25-.92,18.64,18.64,0,0,0-3.24-3.22,16.63,16.63,0,0,0-1.42-.88,3.45,3.45,0,0,0-1.59-.48,1.17,1.17,0,0,0-1.17.52,1.43,1.43,0,0,0-.14,1.34,5.17,5.17,0,0,0,1.24,1.64l2.17,2.2a27.27,27.27,0,0,1,2.11,2.44,9.38,9.38,0,0,1,1.25,2.24,4.81,4.81,0,0,1,.31,2.39,6.55,6.55,0,0,1-.92,2.5,6.42,6.42,0,0,1-3.23,2.87,7.22,7.22,0,0,1-4.26.29,13.08,13.08,0,0,1-4.6-2.08A15.13,15.13,0,0,1,370.43,282.07Zm18.84-17.32a1.43,1.43,0,0,1,1-.74,1.55,1.55,0,0,1,1.09.21,1.65,1.65,0,0,1,.67.91,1.41,1.41,0,0,1-.19,1.2L389,271l-2.57-1.58ZM376,287.12l2.59,1.59-2.86,4.67a1.4,1.4,0,0,1-1.35.74,1.54,1.54,0,0,1-1.31-.77,1.39,1.39,0,0,1,.07-1.56Z" style="fill:#263238"></path><line x1="361.71" y1="293.78" x2="361.71" y2="297.1" style="fill:none;stroke:#263238;stroke-linecap:round;stroke-linejoin:round"></line><line x1="364.05" y1="297.1" x2="364.05" y2="300.61" style="fill:none;stroke:#263238;stroke-linecap:round;stroke-linejoin:round"></line><line x1="368.73" y1="301" x2="368.73" y2="304.31" style="fill:none;stroke:#263238;stroke-linecap:round;stroke-linejoin:round"></line><line x1="375.36" y1="304.31" x2="375.36" y2="307.24" style="fill:none;stroke:#263238;stroke-linecap:round;stroke-linejoin:round"></line><line x1="382.58" y1="305.68" x2="382.58" y2="307.04" style="fill:none;stroke:#263238;stroke-linecap:round;stroke-linejoin:round"></line><line x1="396.82" y1="305.09" x2="396.82" y2="302.95" style="fill:none;stroke:#263238;stroke-linecap:round;stroke-linejoin:round"></line><line x1="399.94" y1="302.95" x2="399.94" y2="299.63" style="fill:none;stroke:#263238;stroke-linecap:round;stroke-linejoin:round"></line><circle cx="383.36" cy="277.73" r="26.2" transform="translate(-42.19 70.34) rotate(-9.94)" style="fill:#fff;stroke:#263238;stroke-linecap:round;stroke-linejoin:round"></circle><circle cx="383.36" cy="274.23" r="26.2" transform="translate(-41.58 70.29) rotate(-9.94)" style="fill:#fff;stroke:#263238;stroke-linecap:round;stroke-linejoin:round"></circle><path d="M382.13,296.46A22.27,22.27,0,0,0,395,255.24l-.53-.31" style="fill:#fff;stroke:#263238;stroke-linecap:round;stroke-linejoin:round"></path><path d="M371.72,293.21a22.24,22.24,0,0,0,8.38,3.05" style="fill:#fff;stroke:#263238;stroke-linecap:round;stroke-linejoin:round"></path><path d="M392.32,253.84a22.27,22.27,0,0,0-23.53,37.23" style="fill:#fff;stroke:#263238;stroke-linecap:round;stroke-linejoin:round"></path><path d="M370.43,277.18a2.07,2.07,0,0,1-.1-1.34,2.11,2.11,0,0,1,.66-1.08,3,3,0,0,1,1.11-.58,1.68,1.68,0,0,1,1.26.13,2.85,2.85,0,0,1,1.11,1.06c.06.09.22.36.47.79s.48.81.68,1.11a7.81,7.81,0,0,0,1,1.14,9.28,9.28,0,0,0,1.47,1.24,6.34,6.34,0,0,0,1.25.78,9.66,9.66,0,0,0,1.38.55,2.34,2.34,0,0,0,1.31,0,1.6,1.6,0,0,0,1-.77,1.46,1.46,0,0,0,0-1.3,5,5,0,0,0-1.2-1.72L379.65,275c-.8-.87-1.43-1.59-1.89-2.15a15.4,15.4,0,0,1-1.29-1.87,4.93,4.93,0,0,1-.72-1.88,5.25,5.25,0,0,1,.1-1.87,6.92,6.92,0,0,1,.91-2.12,5.53,5.53,0,0,1,4.93-2.78,12.19,12.19,0,0,1,7.05,2.61,14,14,0,0,1,2,1.61,15.13,15.13,0,0,1,1.29,1.4c.28.35.61.84,1,1.44a2.45,2.45,0,0,1,.46,1.46,2.13,2.13,0,0,1-.4,1.26,2.89,2.89,0,0,1-1,.79,1.52,1.52,0,0,1-1.24.07,2.86,2.86,0,0,1-1.25-.92,18.64,18.64,0,0,0-3.24-3.22,16.63,16.63,0,0,0-1.42-.88,3.58,3.58,0,0,0-1.59-.48,1.19,1.19,0,0,0-1.17.52,1.45,1.45,0,0,0-.14,1.35,5.15,5.15,0,0,0,1.24,1.63l2.17,2.2a28.74,28.74,0,0,1,2.11,2.44,9.25,9.25,0,0,1,1.25,2.25,4.77,4.77,0,0,1,.31,2.38,6.55,6.55,0,0,1-.92,2.5,6.45,6.45,0,0,1-3.23,2.88,7.3,7.3,0,0,1-4.26.29,13.45,13.45,0,0,1-4.6-2.08A15.21,15.21,0,0,1,370.43,277.18Zm18.84-17.32a1.41,1.41,0,0,1,1-.73,1.5,1.5,0,0,1,1.09.2,1.65,1.65,0,0,1,.67.91,1.41,1.41,0,0,1-.19,1.2l-2.88,4.7-2.57-1.58ZM376,282.24l2.59,1.59-2.86,4.66a1.42,1.42,0,0,1-1.35.75,1.57,1.57,0,0,1-1.31-.78,1.39,1.39,0,0,1,.07-1.56Z" style="fill:#263238"></path><line x1="361.71" y1="288.89" x2="361.71" y2="292.21" style="fill:none;stroke:#263238;stroke-linecap:round;stroke-linejoin:round"></line><line x1="364.05" y1="292.21" x2="364.05" y2="295.72" style="fill:none;stroke:#263238;stroke-linecap:round;stroke-linejoin:round"></line><line x1="368.73" y1="296.11" x2="368.73" y2="299.43" style="fill:none;stroke:#263238;stroke-linecap:round;stroke-linejoin:round"></line><line x1="375.36" y1="299.43" x2="375.36" y2="302.35" style="fill:none;stroke:#263238;stroke-linecap:round;stroke-linejoin:round"></line><line x1="382.58" y1="300.79" x2="382.58" y2="302.16" style="fill:none;stroke:#263238;stroke-linecap:round;stroke-linejoin:round"></line><line x1="396.82" y1="300.21" x2="396.82" y2="298.06" style="fill:none;stroke:#263238;stroke-linecap:round;stroke-linejoin:round"></line><line x1="399.94" y1="298.06" x2="399.94" y2="294.75" style="fill:none;stroke:#263238;stroke-linecap:round;stroke-linejoin:round"></line><circle cx="427.92" cy="342.43" r="26.2" transform="translate(17.32 705.43) rotate(-80.15)" style="fill:#fff;stroke:#263238;stroke-linecap:round;stroke-linejoin:round"></circle><circle cx="427.92" cy="338.92" r="26.2" transform="translate(-100.8 203.14) rotate(-23.98)" style="fill:#fff;stroke:#263238;stroke-linecap:round;stroke-linejoin:round"></circle><circle cx="427.92" cy="338.92" r="22.27" transform="matrix(0.3, -0.95, 0.95, 0.3, -24.75, 644)" style="fill:#fff;stroke:#263238;stroke-linecap:round;stroke-linejoin:round"></circle><path d="M421.15,350.33a2.09,2.09,0,0,1-1-.86,2.06,2.06,0,0,1-.32-1.21,2.85,2.85,0,0,1,.35-1.22,1.72,1.72,0,0,1,.95-.82,2.81,2.81,0,0,1,1.54-.06c.11,0,.41.08.9.2s.92.21,1.27.27a9.5,9.5,0,0,0,1.49.09,8.94,8.94,0,0,0,1.91-.21,6.22,6.22,0,0,0,1.42-.37,8.87,8.87,0,0,0,1.35-.62,2.38,2.38,0,0,0,.94-.92,1.63,1.63,0,0,0,.13-1.27,1.46,1.46,0,0,0-.94-.89,4.92,4.92,0,0,0-2.07-.32h-3.13c-1.18,0-2.14-.05-2.86-.11a14.21,14.21,0,0,1-2.24-.35,5.18,5.18,0,0,1-1.86-.77,5.24,5.24,0,0,1-1.28-1.36,7,7,0,0,1-.92-2.12,5.55,5.55,0,0,1,1.4-5.49,12.15,12.15,0,0,1,6.75-3.32,15.23,15.23,0,0,1,2.53-.32,15.43,15.43,0,0,1,1.89,0c.45.05,1,.13,1.75.26a2.51,2.51,0,0,1,1.37.68,2,2,0,0,1,.63,1.15,2.79,2.79,0,0,1-.08,1.25,1.56,1.56,0,0,1-.82.95,2.79,2.79,0,0,1-1.52.27,18.88,18.88,0,0,0-4.56.13,13.85,13.85,0,0,0-1.62.42,3.63,3.63,0,0,0-1.45.82,1.18,1.18,0,0,0-.43,1.2,1.46,1.46,0,0,0,.88,1,5.31,5.31,0,0,0,2,.23l3.09-.06a26.62,26.62,0,0,1,3.22.16,9.29,9.29,0,0,1,2.49.63,5,5,0,0,1,1.94,1.42,7.22,7.22,0,0,1,1,6.71,7.22,7.22,0,0,1-2.73,3.29,13.25,13.25,0,0,1-4.68,1.9A15.24,15.24,0,0,1,421.15,350.33Zm.44-25.59a1.43,1.43,0,0,1,.15-1.23,1.55,1.55,0,0,1,.91-.65,1.61,1.61,0,0,1,1.11.14,1.41,1.41,0,0,1,.74,1l1.42,5.33-2.92.78Zm7.08,25,2.94-.78,1.41,5.29a1.43,1.43,0,0,1-.4,1.5,1.56,1.56,0,0,1-1.46.41,1.39,1.39,0,0,1-1.08-1.13Z" style="fill:#263238"></path><line x1="406.26" y1="353.59" x2="406.26" y2="356.91" style="fill:none;stroke:#263238;stroke-linecap:round;stroke-linejoin:round"></line><line x1="408.61" y1="356.91" x2="408.61" y2="360.42" style="fill:none;stroke:#263238;stroke-linecap:round;stroke-linejoin:round"></line><line x1="413.29" y1="360.81" x2="413.29" y2="364.12" style="fill:none;stroke:#263238;stroke-linecap:round;stroke-linejoin:round"></line><line x1="419.92" y1="364.12" x2="419.92" y2="367.05" style="fill:none;stroke:#263238;stroke-linecap:round;stroke-linejoin:round"></line><line x1="427.14" y1="365.49" x2="427.14" y2="366.85" style="fill:none;stroke:#263238;stroke-linecap:round;stroke-linejoin:round"></line><line x1="441.38" y1="364.9" x2="441.38" y2="362.76" style="fill:none;stroke:#263238;stroke-linecap:round;stroke-linejoin:round"></line><line x1="444.5" y1="362.76" x2="444.5" y2="359.44" style="fill:none;stroke:#263238;stroke-linecap:round;stroke-linejoin:round"></line><path d="M450.25,351.19a26.2,26.2,0,1,0-36,8.63A26.2,26.2,0,0,0,450.25,351.19Z" style="fill:#fff;stroke:#263238;stroke-linecap:round;stroke-linejoin:round"></path><circle cx="427.92" cy="333.99" r="26.2" transform="translate(57.03 730.35) rotate(-84.87)" style="fill:#fff;stroke:#263238;stroke-linecap:round;stroke-linejoin:round"></circle><path d="M448.16,343.27A22.27,22.27,0,0,0,441,316" style="fill:#fff;stroke:#263238;stroke-linecap:round;stroke-linejoin:round"></path><path d="M436.46,313.42A22.27,22.27,0,1,0,446.6,346.1" style="fill:#fff;stroke:#263238;stroke-linecap:round;stroke-linejoin:round"></path><path d="M421.15,345.39a2.07,2.07,0,0,1-1-.85,2.09,2.09,0,0,1-.32-1.22,2.81,2.81,0,0,1,.35-1.21,1.68,1.68,0,0,1,.95-.82,2.9,2.9,0,0,1,1.54-.07c.11,0,.41.08.9.2s.92.21,1.27.27a8.25,8.25,0,0,0,1.49.1,9.65,9.65,0,0,0,1.91-.22,6.73,6.73,0,0,0,1.42-.36,10,10,0,0,0,1.35-.62,2.45,2.45,0,0,0,.94-.92,1.63,1.63,0,0,0,.13-1.27,1.42,1.42,0,0,0-.94-.89,4.92,4.92,0,0,0-2.07-.32h-3.13c-1.18,0-2.14-.05-2.86-.11a15.53,15.53,0,0,1-2.24-.36,4.85,4.85,0,0,1-1.86-.77,5.09,5.09,0,0,1-1.28-1.36,6.92,6.92,0,0,1-.92-2.12,5.55,5.55,0,0,1,1.4-5.49,12.15,12.15,0,0,1,6.75-3.31,14.24,14.24,0,0,1,2.53-.32,13.63,13.63,0,0,1,1.89,0c.45,0,1,.13,1.75.26a2.5,2.5,0,0,1,1.37.67,2.07,2.07,0,0,1,.63,1.16,2.75,2.75,0,0,1-.08,1.24,1.58,1.58,0,0,1-.82,1,3,3,0,0,1-1.52.27,18.38,18.38,0,0,0-4.56.12q-.78.17-1.62.42a3.65,3.65,0,0,0-1.45.83,1.18,1.18,0,0,0-.43,1.2,1.44,1.44,0,0,0,.88,1,5.12,5.12,0,0,0,2,.23l3.09-.05a24.92,24.92,0,0,1,3.22.15,9.69,9.69,0,0,1,2.49.64,4.78,4.78,0,0,1,1.94,1.42,7.2,7.2,0,0,1,1,6.71,7.19,7.19,0,0,1-2.73,3.28,13.07,13.07,0,0,1-4.68,1.9A15.07,15.07,0,0,1,421.15,345.39Zm.44-25.59a1.43,1.43,0,0,1,.15-1.23,1.52,1.52,0,0,1,2-.5,1.41,1.41,0,0,1,.74,1l1.42,5.33-2.92.77Zm7.08,25,2.94-.78,1.41,5.28a1.42,1.42,0,0,1-.4,1.5,1.56,1.56,0,0,1-1.46.41,1.36,1.36,0,0,1-1.08-1.12Z" style="fill:#263238"></path><line x1="406.26" y1="348.65" x2="406.26" y2="351.97" style="fill:none;stroke:#263238;stroke-linecap:round;stroke-linejoin:round"></line><line x1="408.61" y1="351.97" x2="408.61" y2="355.48" style="fill:none;stroke:#263238;stroke-linecap:round;stroke-linejoin:round"></line><line x1="413.29" y1="355.87" x2="413.29" y2="359.19" style="fill:none;stroke:#263238;stroke-linecap:round;stroke-linejoin:round"></line><line x1="419.92" y1="359.19" x2="419.92" y2="362.11" style="fill:none;stroke:#263238;stroke-linecap:round;stroke-linejoin:round"></line><line x1="427.14" y1="360.55" x2="427.14" y2="361.92" style="fill:none;stroke:#263238;stroke-linecap:round;stroke-linejoin:round"></line><line x1="441.38" y1="359.97" x2="441.38" y2="357.82" style="fill:none;stroke:#263238;stroke-linecap:round;stroke-linejoin:round"></line><line x1="444.5" y1="357.82" x2="444.5" y2="354.51" style="fill:none;stroke:#263238;stroke-linecap:round;stroke-linejoin:round"></line><circle cx="385.61" cy="356.54" r="26.2" transform="translate(-134 280.19) rotate(-34.4)" style="fill:#fff;stroke:#263238;stroke-linecap:round;stroke-linejoin:round"></circle><circle cx="385.61" cy="353.04" r="26.2" transform="translate(-72.44 101.01) rotate(-13.65)" style="fill:#fff;stroke:#263238;stroke-linecap:round;stroke-linejoin:round"></circle><path d="M395.84,372.82a22.26,22.26,0,0,0,1.41-38.76,21.16,21.16,0,0,0-2.14-1.16" style="fill:#fff;stroke:#263238;stroke-linecap:round;stroke-linejoin:round"></path><path d="M385.38,375.31a22.45,22.45,0,0,0,7-1" style="fill:#fff;stroke:#263238;stroke-linecap:round;stroke-linejoin:round"></path><path d="M374,372a22.18,22.18,0,0,0,8.21,3" style="fill:#fff;stroke:#263238;stroke-linecap:round;stroke-linejoin:round"></path><path d="M391.86,331.66a22.28,22.28,0,0,0-23.38,35.62" style="fill:#fff;stroke:#263238;stroke-linecap:round;stroke-linejoin:round"></path><path d="M372.67,356a2.18,2.18,0,0,1-.1-1.35,2.08,2.08,0,0,1,.66-1.07,2.94,2.94,0,0,1,1.12-.59,1.76,1.76,0,0,1,1.25.13,2.75,2.75,0,0,1,1.11,1.07c.06.09.22.35.48.79s.48.81.67,1.11a9,9,0,0,0,1,1.14,8.92,8.92,0,0,0,1.48,1.24,6.72,6.72,0,0,0,1.24.77,8.61,8.61,0,0,0,1.38.55,2.35,2.35,0,0,0,1.31,0,1.65,1.65,0,0,0,1-.78,1.44,1.44,0,0,0,0-1.29A4.89,4.89,0,0,0,384,356l-2.15-2.27c-.8-.87-1.43-1.58-1.89-2.15a14,14,0,0,1-1.29-1.87,5.22,5.22,0,0,1-.72-1.88,5.43,5.43,0,0,1,.1-1.86,7.07,7.07,0,0,1,.91-2.13,5.54,5.54,0,0,1,4.94-2.77,12.24,12.24,0,0,1,7.05,2.61,14.49,14.49,0,0,1,2,1.61,12.81,12.81,0,0,1,1.29,1.39c.28.36.62.84,1,1.45a2.48,2.48,0,0,1,.45,1.45,2,2,0,0,1-.4,1.26,2.78,2.78,0,0,1-1,.8,1.51,1.51,0,0,1-1.25.06,2.83,2.83,0,0,1-1.25-.91,18.93,18.93,0,0,0-3.23-3.22c-.44-.3-.91-.6-1.43-.89a3.44,3.44,0,0,0-1.59-.47,1.16,1.16,0,0,0-1.16.51,1.43,1.43,0,0,0-.15,1.35,5.33,5.33,0,0,0,1.24,1.64l2.17,2.2a25.72,25.72,0,0,1,2.11,2.44,9.38,9.38,0,0,1,1.25,2.24,4.81,4.81,0,0,1,.31,2.39,7.2,7.2,0,0,1-4.14,5.37,7.22,7.22,0,0,1-4.26.29,13.31,13.31,0,0,1-4.61-2.08A15.2,15.2,0,0,1,372.67,356Zm18.84-17.33a1.46,1.46,0,0,1,1-.73,1.52,1.52,0,0,1,1.09.21,1.56,1.56,0,0,1,.66.91,1.42,1.42,0,0,1-.18,1.19L391.2,345l-2.57-1.58Zm-13.24,22.38,2.6,1.59L378,367.3a1.4,1.4,0,0,1-1.36.75,1.58,1.58,0,0,1-1.31-.78,1.41,1.41,0,0,1,.07-1.56Z" style="fill:#263238"></path><line x1="363.95" y1="367.71" x2="363.95" y2="371.02" style="fill:none;stroke:#263238;stroke-linecap:round;stroke-linejoin:round"></line><line x1="366.29" y1="371.02" x2="366.29" y2="374.54" style="fill:none;stroke:#263238;stroke-linecap:round;stroke-linejoin:round"></line><line x1="370.97" y1="374.93" x2="370.97" y2="378.24" style="fill:none;stroke:#263238;stroke-linecap:round;stroke-linejoin:round"></line><line x1="377.6" y1="378.24" x2="377.6" y2="381.17" style="fill:none;stroke:#263238;stroke-linecap:round;stroke-linejoin:round"></line><line x1="384.82" y1="379.61" x2="384.82" y2="380.97" style="fill:none;stroke:#263238;stroke-linecap:round;stroke-linejoin:round"></line><line x1="399.06" y1="379.02" x2="399.06" y2="376.88" style="fill:none;stroke:#263238;stroke-linecap:round;stroke-linejoin:round"></line><line x1="402.18" y1="376.88" x2="402.18" y2="373.56" style="fill:none;stroke:#263238;stroke-linecap:round;stroke-linejoin:round"></line></g></svg>